<?xml version="1.0" encoding="utf-8"?>
<!-- Generator: Adobe Illustrator 16.0.0, SVG Export Plug-In . SVG Version: 6.00 Build 0)  -->
<!DOCTYPE svg PUBLIC "-//W3C//DTD SVG 1.0//EN" "http://www.w3.org/TR/2001/REC-SVG-20010904/DTD/svg10.dtd">
<svg version="1.0" id="Capa_1" xmlns="http://www.w3.org/2000/svg" xmlns:xlink="http://www.w3.org/1999/xlink" x="0px" y="0px"
	 width="434.5px" height="133.5px" viewBox="0 0 434.5 133.5" enable-background="new 0 0 434.5 133.5" xml:space="preserve">
<g>
	<g>
		<path fill="#16377A" d="M92.962-56.809c0.158,0.631,0.313,1.225,0.451,1.713c0.055,0.137,0.089,0.387,0.139,0.488
			c0.218,0.803,0.356,1.292,0.486,1.708c0.277,0.977-0.704,2.085-2.138,2.246c-0.038-0.007-0.075-0.014-0.112-0.021
			c-0.131,0.018-0.263,0.036-0.394,0.054c-1.389,0.227-2.598-0.327-2.774-1.317c-0.03-0.213-0.125-0.634-0.216-1.021
			c-0.086-0.35-0.207-0.949-0.313-1.441c-0.096-0.421-0.223-1.056-0.318-1.478c-0.121-0.599-0.232-1.126-0.344-1.655
			c-2.523,0.356-5.045,0.723-7.565,1.1c-0.183,0.584-0.365,1.167-0.547,1.751c-0.202,0.61-0.363,1.252-0.569,1.827
			c-0.295,0.952-0.535,1.788-0.668,2.352c-0.268,1.129-1.361,2.095-2.901,2.299c-0.149-0.013-0.22-0.001-0.327,0.015
			c-1.035,0.162-2.098-0.541-1.822-1.348c0.76-1.9,1.63-4.324,2.393-6.548c0.208-0.564,0.417-1.129,0.625-1.693
			c1.289-3.576,3.883-11.075,5.197-14.963c0.431-1.15,1.919-2.019,3.504-2.206c0.262-0.001,0.519-0.037,0.776-0.074
			c1.507-0.211,3.038,0.304,3.304,1.426c0.209,0.985,0.419,1.97,0.67,2.986c0.024,0.178,0.085,0.351,0.11,0.529
			c0.06,0.172,0.094,0.422,0.156,0.594c0.02,0.143,0.07,0.244,0.09,0.386C90.896-65.002,91.932-60.906,92.962-56.809z
			 M80.724-59.315c2.172-0.285,3.076-0.414,3.834-0.524c0.867-0.125,1.373-0.197,2.2-0.35c-0.274-1.158-0.518-2.354-0.793-3.512
			c-0.28-1.192-0.592-2.344-0.868-3.501c-0.307-1.116-0.497-1.923-0.604-2.415c-0.001-0.012-0.003-0.023-0.005-0.036
			c-0.031,0.041-0.026,0.076-0.059,0.117c-0.167,0.386-0.3,0.768-0.463,1.19c-0.215,0.575-0.435,1.114-0.598,1.536
			c-0.136,0.346-0.24,0.651-0.288,0.84C82.289-63.753,81.503-61.535,80.724-59.315z"/>
		<path fill="#16377A" d="M102.36-72.094c0.183-0.022,0.362-0.081,0.545-0.103c0.475-0.058,0.915-0.111,1.277-0.191
			c1.085-0.24,2.049,0.369,1.987,1.099c-0.127,0.81-1.126,1.435-2.331,1.581c-0.698,0.049-1.281,0.121-1.792,0.184
			c-0.015,0.183-0.038,0.293-0.048,0.512c-0.077,0.877-0.163,1.973-0.249,3.068c-0.062,0.984-0.147,2.079-0.208,3.063
			c-0.043,0.837-0.13,1.608-0.171,2.156c-0.167,1.901-0.251,3.54-0.122,4.572c0.166,1.317,0.808,1.779,1.598,1.681
			c0.215-0.027,0.462-0.094,0.74-0.201c0.953-0.263,1.959,0.229,1.926,0.848c-0.107,0.917-0.942,1.813-2.209,2.152
			c-0.246,0.066-0.675,0.12-0.926,0.152c-2.397,0.301-4.022-0.172-4.658-0.85c-0.639-0.713-1.011-1.315-1.104-2.027
			c-0.089-0.676-0.048-1.478,0.001-2.497c0.24-4.037,0.49-8.073,0.75-12.11c-0.749-0.049-1.396-0.471-1.362-1.055
			c0.018-0.727,0.639-1.386,1.589-1.507c0.069-0.914,0.048-1.67,0.03-2.392c-0.036-1.153,0.94-2.29,2.478-2.844
			c1.257-0.41,2.701,0.102,2.556,1.059c-0.224,1.22-0.338,2.102-0.407,3.666C102.287-72.085,102.323-72.089,102.36-72.094z"/>
		<path fill="#16377A" d="M115.58-55.501c1.293-0.143,2.332-0.616,3.157-1.065c0.858-0.488,1.995-0.066,1.86,0.741
			c-0.17,0.812-0.84,1.676-2.093,2.171c-0.876,0.275-1.968,0.573-3.474,0.741c-6.248,0.522-8.187-2.588-8.797-7.037
			c-0.461-3.812,1.117-7.253,2.189-8.858c2.158-3.36,5.644-4.762,8.284-5.043c3.924-0.418,6.095,1.281,6.34,3.744
			c0.101,0.999-0.27,2.443-0.946,3.738c-0.741,1.374-2.229,2.574-3.433,3.315c-2.161,1.385-4.566,1.792-7.301,2.213
			c-0.02,0.146-0.003,0.614,0.075,1.291C111.638-57.836,112.46-55.118,115.58-55.501z M111.397-61.855
			c1.957-0.512,3.914-2.028,5.55-3.901c0.747-0.91,1.269-2.229,1.114-3.691c-0.162-1.534-1.005-2.167-1.92-2.068
			c-0.547,0.059-1.766,0.445-3.136,2.402C112.021-67.669,111.347-64.847,111.397-61.855z"/>
		<path fill="#16377A" d="M125.056-67.315c0.109-1.489,0.227-3.303,0.093-4.66c-0.007-0.071-0.014-0.143-0.021-0.214
			c-0.117-0.818,0.305-1.798,1.574-2.065c0.363-0.07,0.653-0.135,1.013-0.24c0.037-0.004,0.143-0.05,0.18-0.053
			c1.16-0.255,2.476,0.38,2.445,1.249c-0.033,0.436,0.081-0.332-0.02,0.579c0.163-0.232,0.396-0.505,0.633-0.743
			c1.363-1.242,3.248-2.096,5.378-2.279c2.313-0.2,5.498,0.336,5.736,3.343c0.052,0.643,0.004,1.439-0.155,3.107
			c-0.086,0.763-0.156,1.705-0.235,2.54c-0.075,0.87-0.194,1.671-0.272,2.505c-0.166,1.561-0.434,4.5-0.395,6.296
			c0.016,1.079-1.176,1.969-2.577,2.089c-0.108,0.009-0.216,0.018-0.324,0.027c-1.182,0.137-2.332-0.59-2.159-1.505
			c0.26-1.176,0.505-2.926,0.751-6.405c0.077-0.799,0.155-1.598,0.232-2.396c0.175-1.78,0.276-3.193,0.187-4.23
			c-0.146-1.716-0.755-2.385-2.366-2.244c-1.391,0.122-2.974,1.381-3.913,2.765c-1,1.534-1.187,4.219-1.331,6.179
			c-0.086,1.414-0.171,2.828-0.255,4.241c-0.075,1.124-0.072,1.917-0.043,2.599c0.027,1.042-1.198,1.88-2.562,2.015
			c-0.096,0.01-0.191,0.019-0.287,0.028c-1.215,0.156-2.344-0.595-2.247-1.435c0.23-1.321,0.35-2.668,0.442-4.3
			C124.722-62.787,124.887-65.051,125.056-67.315z"/>
		<path fill="#16377A" d="M158.651-77.026c1.155,0.18,1.584,1.198,1.334,1.932c-0.186,0.586-0.832,0.841-1.638,0.891
			c-0.476,0.03-0.883-0.017-1.186-0.142c0.012-0.001,0.024-0.002,0.037-0.002c-0.448-0.115-0.933-0.192-1.481-0.157
			c-4.479,0.292-6.766,5.287-6.406,10.152c0.128,1.754,0.574,3.879,2.268,4.767c0.98,0.542,1.895,0.694,2.759,0.636
			c0.793-0.054,1.468-0.242,2.137-0.538c1.028-0.354,1.83,0.314,1.623,1.047c-0.271,0.844-1.312,1.521-2.485,1.779
			c-0.535,0.107-1.215,0.189-1.861,0.233c-5.671,0.39-9.36-2.404-9.749-7.272c-0.451-5.571,3.185-12.836,12.098-13.417
			C157.201-77.188,158.019-77.13,158.651-77.026z"/>
		<path fill="#16377A" d="M164.99-66.434c-0.455,3.619-0.622,5.75-0.662,6.973c-0.013,1.043-1.269,1.833-2.635,1.915
			c-0.096,0.005-0.191,0.011-0.287,0.017c-1.149,0.104-2.11-0.842-2.059-1.744c-0.002-0.036,0.029-0.11,0.025-0.181
			c0.133-0.764,0.325-1.781,0.488-3.265c0.133-1.183,0.267-2.366,0.402-3.548c0.586-4.78,0.781-7.127,0.667-8.415
			c-0.088-0.857,0.254-1.921,1.646-2.073c0.51-0.101,0.873-0.194,1.272-0.288c1.236-0.321,2.351,0.519,2.327,1.454
			c-0.029,0.146-0.053,0.398-0.042,0.577c-0.112,0.653-0.249,1.522-0.404,2.717C165.48-70.342,165.234-68.388,164.99-66.434z
			 M167.074-82.321c0.061,1.183-0.949,3.066-3.083,3.185c-1.251,0.069-2.574-0.428-2.651-1.753c-0.066-1.11,0.863-3,3.159-3.126
			C165.794-84.087,167.011-83.54,167.074-82.321z"/>
		<path fill="#16377A" d="M184.806-76.689c1.971,1.802,2.106,3.881,2.139,4.885c0.163,5.603-3.229,13.756-11.444,14.114
			c-2.086,0.092-4.163-0.381-5.631-1.564c-0.906-0.781-2.36-2.286-2.529-5.438c-0.319-5.762,3.221-13.308,11.517-13.646
			C181.47-78.442,183.553-77.904,184.806-76.689z M180.678-75.034c-0.454-0.377-1.209-0.887-2.273-0.844
			c-5.258,0.217-6.141,8.57-6.004,11.361c0.161,3.369,1.66,4.483,3.318,4.41c5.686-0.244,6.133-9.94,6.071-11.666
			C181.757-72.667,181.664-74.209,180.678-75.034z M177.697-79.692c1.032-0.042,2.417-0.456,3.608-1.182
			c1.723-1.355,2.011-1.652,2.173-2.305c0.226-0.976-0.651-1.665-1.874-1.62c-1.815,0.067-2.303,0.842-2.522,1.855
			c-0.156,0.761-0.716,1.537-1.611,2.22C176.935-80.271,176.887-79.659,177.697-79.692z"/>
		<path fill="#16377A" d="M189.589-71.417c0.213-1.478,0.456-3.28,0.418-4.642c-0.002-0.072-0.004-0.144-0.006-0.215
			c-0.061-0.825,0.429-1.772,1.712-1.95c0.366-0.045,0.66-0.089,1.026-0.169c0.036-0.001,0.146-0.039,0.182-0.04
			c1.174-0.173,2.442,0.552,2.351,1.416c-0.064,0.433,0.103-0.325-0.061,0.576c0.178-0.22,0.43-0.476,0.683-0.697
			c1.444-1.144,3.383-1.864,5.518-1.897c2.32-0.038,5.458,0.72,5.485,3.735c0.007,0.646-0.096,1.436-0.372,3.089
			c-0.139,0.755-0.274,1.69-0.412,2.517c-0.137,0.862-0.31,1.654-0.445,2.48c-0.274,1.546-0.747,4.458-0.833,6.253
			c-0.06,1.078-1.312,1.882-2.715,1.904c-0.108,0.001-0.216,0.003-0.324,0.005c-1.188,0.054-2.283-0.751-2.047-1.653
			c0.34-1.154,0.707-2.883,1.195-6.336c0.133-0.792,0.266-1.583,0.399-2.375c0.299-1.764,0.498-3.166,0.482-4.206
			c-0.026-1.722-0.586-2.432-2.202-2.404c-1.395,0.024-3.061,1.17-4.093,2.485c-1.103,1.46-1.476,4.126-1.756,6.071
			c-0.184,1.404-0.368,2.809-0.55,4.213c-0.154,1.116-0.205,1.907-0.225,2.589c-0.046,1.042-1.325,1.792-2.693,1.831
			c-0.096,0.003-0.192,0.005-0.288,0.008c-1.223,0.07-2.294-0.758-2.14-1.588c0.321-1.302,0.534-2.637,0.739-4.259
			C188.94-66.923,189.263-69.17,189.589-71.417z"/>
		<path fill="#16377A" d="M233.573-78.338c1.332-0.37,2.487,0.661,2.282,1.625c-0.281,1.178-0.726,3-1.41,6.288
			c-0.242,1.167-0.483,2.335-0.725,3.503c-0.564,2.932-0.898,5.402-0.917,6.442c-0.017,0.896-1.219,1.52-2.442,1.538
			c-1.261,0.016-2.33-0.752-2.247-1.647c0.045-0.61,0.163-1.434,0.319-2.185c-1.513,1.989-3.444,4.154-6.249,4.134
			c-2.985-0.021-5.937-1.958-5.94-6.049c0.003-1.647,0.966-8.191,6.357-12.32c0.885-0.639,3.03-1.989,6.455-1.942
			c1.729,0.024,2.863,0.403,3.924,0.817C233.179-78.202,233.376-78.27,233.573-78.338z M230.739-76.054
			c-0.656-0.226-1.459-0.489-2.34-0.5c-5.591-0.069-7.098,7.614-7.11,10.553c-0.014,2.44,0.664,4.201,2.47,4.216
			c1.048,0.009,2.389-0.551,3.641-2.33c0.994-1.316,1.641-3.388,2.313-6.966C230.053-72.74,230.396-74.397,230.739-76.054z"/>
		<path fill="#16377A" d="M240.98-58.535c-4.029-0.143-4.373-2.583-4.223-4.413c0.051-0.68,0.178-1.502,0.302-2.11
			c0-0.036,0.037-0.071,0.038-0.106c0.081-0.393,0.125-0.751,0.129-0.894c0.042-0.215,0.082-0.393,0.122-0.536
			c0.039-0.143,0.079-0.321,0.082-0.429c0.041-0.215,0.12-0.428,0.162-0.714c0.166-0.785,0.454-2.323,1.374-6.93
			c0.753-3.715,1.187-6.251,1.181-7.4c-0.017-0.826,0.565-1.853,1.862-1.925c0.334-0.026,0.67-0.088,1.153-0.183
			c1.271-0.287,2.464,0.613,2.358,1.58c-0.212,0.891-0.468,1.959-0.771,3.458c-0.044,0.25-0.091,0.536-0.173,0.82
			c-0.127,0.535-0.292,1.141-0.421,1.782c-0.305,1.535-0.648,3.212-0.986,4.781c-0.341,1.605-0.643,3.212-0.978,4.783
			c-0.041,0.142-0.045,0.285-0.086,0.427c-0.046,0.358-0.132,0.858-0.212,1.143c-0.002,0.072-0.044,0.214-0.046,0.285
			c-0.25,1.178-0.464,2.393-0.232,3.153c0,0,0.227,0.939,0.658,0.988c0.541,0.016,0.834-0.048,1.344-0.212
			c0.037,0.001,0.255-0.064,0.365-0.096c0.948-0.295,1.792,0.451,1.479,1.195c-0.351,0.814-1.414,1.355-2.643,1.498
			C242.277-58.534,241.592-58.518,240.98-58.535z"/>
		<path fill="#16377A" d="M273.518-83.127c0.666,0.041,2.032,0.198,3.6,0.624c1.201,0.366,1.833,1.452,1.403,2.323
			c-0.341,0.659-1.137,0.967-2.021,0.91c-0.479-0.031-0.948-0.206-1.343-0.411c-0.642-0.399-1.549-0.672-2.877-0.752
			c-7.356-0.436-10.521,6.903-10.802,12.776c-0.218,4.482,1.574,7.758,6.328,8.025c1.082,0.062,1.991-0.029,3.357-0.451
			c0.184-0.061,0.442-0.153,0.591-0.216c0.994-0.263,2.197,0.208,1.859,0.978c-0.579,1.15-1.793,2.081-3.569,2.227
			c-0.905,0.053-2.063,0.094-3.428,0.018c-4.026-0.224-7.536-1.359-9.316-4.384c-0.903-1.621-1.466-3.764-1.36-6.202
			C256.21-74.239,260.13-83.92,273.518-83.127z"/>
		<path fill="#16377A" d="M279.727-56.649c-4.021-0.313-4.261-2.766-4.033-4.588c0.079-0.678,0.243-1.494,0.391-2.096
			c0.002-0.036,0.043-0.069,0.045-0.105c0.099-0.389,0.157-0.745,0.167-0.887c0.05-0.214,0.099-0.39,0.144-0.53
			c0.047-0.141,0.094-0.318,0.102-0.425c0.05-0.212,0.138-0.422,0.191-0.707c0.199-0.777,0.552-2.301,1.666-6.865
			c0.91-3.679,1.453-6.195,1.495-7.343c0.019-0.826,0.644-1.827,1.943-1.844c0.338-0.012,0.675-0.06,1.163-0.133
			c1.279-0.233,2.435,0.717,2.289,1.678c-0.251,0.881-0.551,1.938-0.919,3.422c-0.055,0.248-0.113,0.531-0.207,0.812
			c-0.149,0.529-0.341,1.127-0.498,1.763c-0.368,1.521-0.782,3.182-1.188,4.735c-0.408,1.589-0.776,3.182-1.18,4.736
			c-0.046,0.14-0.056,0.284-0.103,0.424c-0.062,0.355-0.171,0.852-0.263,1.132c-0.005,0.072-0.051,0.212-0.056,0.284
			c-0.302,1.166-0.568,2.37-0.368,3.14c0,0,0.187,0.948,0.617,1.016c0.539,0.039,0.833-0.013,1.351-0.155
			c0.037,0.003,0.258-0.053,0.368-0.081c0.962-0.254,1.772,0.527,1.428,1.257c-0.386,0.798-1.471,1.293-2.703,1.384
			C281.023-56.593,280.34-56.606,279.727-56.649z"/>
		<path fill="#16377A" d="M291.71-64.731c-0.946,3.522-1.404,5.609-1.612,6.816c-0.156,1.031-1.508,1.642-2.873,1.535
			c-0.096-0.007-0.191-0.015-0.288-0.022c-1.151-0.054-1.976-1.124-1.799-2.01c0.003-0.035,0.045-0.104,0.05-0.176
			c0.237-0.738,0.565-1.72,0.931-3.167c0.294-1.153,0.589-2.306,0.885-3.459c1.237-4.654,1.751-6.953,1.815-8.244
			c0.031-0.861,0.514-1.868,1.916-1.828c0.52-0.03,0.893-0.072,1.301-0.11c1.269-0.148,2.257,0.836,2.105,1.759
			c-0.05,0.14-0.106,0.388-0.121,0.566c-0.201,0.631-0.457,1.474-0.773,2.636C292.731-68.536,292.22-66.634,291.71-64.731z
			 M295.955-80.183c-0.102,1.181-1.359,2.907-3.493,2.731c-1.248-0.103-2.49-0.776-2.386-2.1c0.088-1.108,1.267-2.853,3.559-2.663
			C294.928-82.108,296.061-81.398,295.955-80.183z"/>
		<path fill="#16377A" d="M302.272-56.952c1.294,0.123,2.406-0.13,3.306-0.402c0.939-0.304,1.967,0.34,1.671,1.104
			c-0.331,0.761-1.162,1.47-2.491,1.7c-0.913,0.092-2.042,0.163-3.549,0.021c-6.221-0.757-7.485-4.196-7.18-8.676
			c0.323-3.826,2.563-6.875,3.94-8.229c2.793-2.852,6.487-3.517,9.127-3.256c3.928,0.387,5.709,2.492,5.45,4.953
			c-0.105,0.999-0.761,2.337-1.688,3.468c-1.004,1.195-2.704,2.068-4.033,2.55c-2.396,0.917-4.832,0.828-7.594,0.685
			c-0.049,0.14-0.129,0.601-0.19,1.279C298.887-60.039,299.141-57.21,302.272-56.952z M299.467-64.023
			c2.019-0.104,4.242-1.191,6.224-2.693c0.917-0.739,1.697-1.924,1.843-3.388c0.152-1.535-0.548-2.326-1.461-2.415
			c-0.548-0.053-1.818,0.077-3.557,1.715C301.257-69.589,300.027-66.962,299.467-64.023z"/>
		<path fill="#16377A" d="M313.947-66.596c0.41-1.436,0.894-3.188,1.039-4.544c0.007-0.071,0.015-0.143,0.022-0.214
			c0.05-0.825,0.661-1.699,1.959-1.702c0.37,0.004,0.667,0,1.04-0.03c0.039,0.004,0.149-0.019,0.19-0.015
			c1.187-0.015,2.347,0.875,2.141,1.719c-0.12,0.42,0.145-0.309-0.138,0.563c0.206-0.194,0.491-0.415,0.771-0.6
			c1.587-0.939,3.609-1.393,5.733-1.139c2.308,0.274,5.321,1.446,4.942,4.438c-0.08,0.641-0.287,1.411-0.782,3.011
			c-0.239,0.73-0.5,1.638-0.747,2.439c-0.251,0.836-0.53,1.597-0.775,2.398c-0.479,1.495-1.339,4.317-1.665,6.085
			c-0.203,1.06-1.555,1.689-2.951,1.521c-0.107-0.013-0.215-0.026-0.322-0.039c-1.186-0.106-2.165-1.051-1.81-1.913
			c0.492-1.098,1.089-2.762,2.036-6.119c0.238-0.767,0.477-1.533,0.715-2.299c0.534-1.708,0.92-3.07,1.043-4.104
			c0.206-1.71-0.257-2.489-1.863-2.678c-1.387-0.163-3.194,0.749-4.395,1.913c-1.291,1.299-2.02,3.89-2.558,5.78
			c-0.372,1.367-0.743,2.734-1.113,4.101c-0.303,1.085-0.46,1.862-0.57,2.536c-0.187,1.026-1.555,1.598-2.916,1.453
			c-0.096-0.01-0.191-0.021-0.287-0.031c-1.222-0.094-2.176-1.059-1.91-1.861c0.493-1.247,0.883-2.542,1.308-4.121
			C312.702-62.23,313.323-64.414,313.947-66.596z"/>
		<path fill="#16377A" d="M341.729-70.53c0.182,0.025,0.37,0.014,0.553,0.039c0.476,0.065,0.914,0.125,1.286,0.141
			c1.11,0.044,1.887,0.878,1.642,1.569c-0.328,0.751-1.454,1.101-2.657,0.936c-0.688-0.13-1.272-0.21-1.782-0.279
			c-0.06,0.173-0.111,0.274-0.176,0.483c-0.298,0.828-0.661,1.866-1.021,2.903c-0.312,0.936-0.672,1.973-0.982,2.909
			c-0.253,0.798-0.534,1.521-0.713,2.041c-0.645,1.796-1.146,3.359-1.283,4.39c-0.174,1.316,0.331,1.926,1.118,2.032
			c0.217,0.029,0.472,0.026,0.769-0.006c0.986-0.012,1.838,0.72,1.647,1.311c-0.338,0.858-1.374,1.513-2.685,1.519
			c-0.255,0.001-0.684-0.056-0.935-0.089c-2.396-0.319-3.847-1.19-4.288-2.008c-0.438-0.852-0.645-1.529-0.554-2.241
			c0.086-0.676,0.329-1.441,0.637-2.415c1.259-3.842,2.527-7.683,3.807-11.521c-0.709-0.237-1.23-0.811-1.047-1.366
			c0.201-0.698,0.97-1.178,1.921-1.053c0.298-0.866,0.47-1.603,0.636-2.306c0.26-1.124,1.492-1.976,3.121-2.12
			c1.319-0.076,2.588,0.786,2.203,1.674c-0.527,1.123-0.864,1.946-1.327,3.441C341.654-70.54,341.691-70.535,341.729-70.53z"/>
		<path fill="#16377A" d="M350.3-51.117c1.288,0.191,2.413-0.001,3.327-0.226c0.956-0.253,1.949,0.444,1.613,1.19
			c-0.371,0.742-1.24,1.407-2.579,1.566c-0.92,0.042-2.052,0.053-3.552-0.168c-6.184-1.086-7.266-4.587-6.724-9.045
			c0.524-3.803,2.927-6.729,4.375-8.009c2.942-2.7,6.674-3.167,9.3-2.767c3.907,0.595,5.579,2.792,5.189,5.236
			c-0.156,0.991-0.884,2.293-1.868,3.374c-1.068,1.14-2.815,1.921-4.169,2.332c-2.446,0.788-4.878,0.569-7.633,0.281
			c-0.057,0.137-0.16,0.593-0.257,1.268C347.077-54.379,347.182-51.542,350.3-51.117z M347.868-58.328
			c2.022,0.003,4.304-0.965,6.366-2.359c0.955-0.69,1.799-1.832,2.021-3.286c0.233-1.524-0.426-2.352-1.335-2.489
			c-0.545-0.082-1.823-0.02-3.646,1.524C349.951-63.791,348.582-61.233,347.868-58.328z"/>
	</g>
</g>
<g>
	<g>
		<path fill="#16377A" d="M28.853,46.211c1.775,2.622,3.646,5.547,3.646,5.547c0.01-0.003-0.006-0.379-0.01-0.634
			c-0.007-0.403,0.009-0.798-0.003-1.207c-0.063-2.359-0.062-4.826-0.106-7.183c0.029-4.296,0.049-6.446,0.093-10.744
			c0.034-2.268-0.025-3.832-0.099-4.87c-0.111-1.556,1.114-3.037,3.033-3.37c0.106-0.019,0.159-0.027,0.266-0.045
			c1.546-0.268,2.992,0.803,2.721,2.106c-0.569,2.718-0.759,6.667-0.928,10.452c-0.171,3.87-0.333,8.069-0.355,11.883
			c-0.004,0.666-0.026,1.372-0.032,1.95c-0.029,3.155-0.116,5.111,0.122,7.021c0.005,0.048-0.03,0.113-0.028,0.16
			c0.019,0.239,0.042,0.475,0.059,0.62c0.149,1.269-0.963,2.643-2.619,2.889c-1.603,0.236-3.366-0.309-4.028-1.369
			c-0.725-1.162-1.88-3.044-4.687-7.077c-2.33-3.348-4.788-6.879-7.177-10.175c-1.738-2.393-5.199-7.637-5.199-7.637
			c-0.126,0.039,0.166,6.585,0.401,12.53c0.055,1.407,0.118,3.043,0.175,4.978c0.15,5.027,0.363,7.96,0.604,9.748
			c0.201,1.483-1.113,2.97-2.98,3.244c-0.205,0.042-0.307,0.063-0.512,0.105c-1.537,0.314-2.984-0.677-2.852-1.898
			c0.298-2.732,0.532-8.958,0.4-21.581c-0.052-4.886-0.384-8.157-0.733-9.882c-0.285-1.422,0.61-3.029,2.47-3.398
			c0.914-0.181,1.372-0.27,2.286-0.45c2.117-0.467,4.01,0.488,4.852,2.014c-0.021,0.002-0.033,0.005-0.053,0.008
			c0.648,1.089,1.401,2.155,2.736,4.009C23.76,38.847,25.468,41.297,28.853,46.211z"/>
		<path fill="#16377A" d="M48.906,45.881c-0.146,2.698-0.162,3.906,0.023,5.031c0.319,1.94,1.425,3.488,3.857,3.096
			c0.983-0.159,3.962-1.08,5.551-4.913c0.902-2.176,1.375-7.14,1.546-11.184c0.131-3.092,0.084-5.146-0.059-6.43
			c-0.16-1.438,0.805-2.96,2.394-3.55c0.201-0.075,0.523-0.13,0.674-0.205c-0.021,0.003-0.03,0.005-0.05,0.008
			c0.151-0.076,0.323-0.135,0.567-0.188c1.327-0.294,3.064,0.469,2.935,1.558c-0.311,2.62-0.66,6.179-0.821,10.999
			c-0.243,7.289-0.214,10.81,0.074,12.755c0.025,0.164,0.038,0.243,0.063,0.408c0.249,1.324-0.99,2.608-2.59,2.849
			c-1.756,0.266-3.34-0.793-3.505-2.183c-0.07-0.595-0.169-2.803-0.169-2.803c-0.023-0.005-1.373,3.499-2.657,4.709
			c-2.02,1.903-5.028,2.641-5.8,2.769c-3.659,0.599-7.208-0.629-7.844-4.352c-0.122-0.716-0.141-1.447-0.151-3.388
			c0.113-5.606,0.175-8.409,0.315-14.017c0.04-1.058,0.01-1.895-0.042-2.516c-0.112-1.34,0.482-2.871,2.019-3.533
			c0.146-0.061,0.47-0.13,0.62-0.207c0.149-0.077,0.427-0.157,0.618-0.204c1.458-0.359,3.265,0.512,3.17,1.789
			c-0.178,2.387-0.303,3.509-0.447,5.945C49.076,41.229,49.018,42.778,48.906,45.881z"/>
		<path fill="#16377A" d="M83.61,50.504c2.012-0.274,3.609-0.975,4.748-1.657c0.92-0.551,2.168,0.006,2.013,0.949
			c-0.199,1.214-1.085,2.538-2.611,3.093c-1.215,0.442-2.857,0.917-4.898,1.156c-8.525,0.995-11.514-3.54-12.473-9.885
			c-0.836-5.532,1.34-10.55,2.796-12.883c3.028-4.858,7.869-6.96,11.542-7.425c5.375-0.678,8.406,1.682,8.82,5.175
			c0.183,1.542-0.26,3.648-1.175,5.406c-1.067,2.051-3.123,3.79-4.738,4.856c-3.253,2.144-9.642,2.282-10.84,3.453
			c-0.05,0.05-0.028,0.944,0.111,1.97C77.248,47.225,78.607,51.182,83.61,50.504z M79.022,30.643
			c-1.803,2.64-2.527,10.663-2.233,10.899c0.551,0.439,6.477-3.211,8.867-6.071c1.207-1.444,1.986-3.378,1.73-5.433
			c-0.288-2.312-1.854-3.212-3.447-3.011c-0.956,0.122-2.929,0.741-4.864,3.607C79.054,30.638,79.043,30.639,79.022,30.643z"/>
		<path fill="#16377A" d="M100.403,37.927c-1.678-0.748-4.825-2.155-5.216-5.495c-0.333-2.829,1.219-5.654,3.554-7.809
			c2.453-2.261,6.402-3.045,8.535-3.268c1.494-0.156,2.568-0.16,3.608-0.005c-0.021,0.002-0.033,0.005-0.053,0.005
			c1.577,0.153,2.464,1.523,2.045,2.706c-0.459,1.293-2.146,1.696-3.584,1.195c-0.819-0.286-1.815-0.438-2.932-0.319
			c-3.718,0.393-5.455,3.142-5.227,5.201c0.263,2.365,2.168,3.195,4.176,4.019c1.144,0.522,1.714,0.785,2.854,1.313
			c1.675,0.76,4.242,2.006,4.554,5.097c0.224,2.214-0.575,5.334-3.453,7.897c-2.853,2.544-6.486,3.098-8.764,3.358
			c-1.399,0.16-2.838,0.19-3.821,0.08c-1.621-0.181-2.873-1.718-2.575-3.081c0.261-1.199,1.956-1.815,3.318-1.333
			c1.015,0.359,2.386,0.559,4.361,0.335c3.743-0.421,5.529-2.897,5.303-5.006c-0.21-1.957-1.669-2.738-3.227-3.401
			C102.479,38.817,101.789,38.521,100.403,37.927z"/>
		<path fill="#16377A" d="M126.004,19.568c0.747-0.064,1.447-0.127,1.974-0.22c1.261-0.22,2.375,0.65,2.231,1.63
			c-0.161,1.092-1.488,1.925-2.944,2.014c-1.041,0.064-3.021,0.056-3.196,0.225c-0.357,0.353-0.361,3.369-0.596,5.302
			c-0.316,2.602-0.595,5.729-0.808,7.554c-0.316,2.72-0.54,5.092-0.403,6.587c0.184,2.009,1.305,2.738,2.763,2.608
			c0.469-0.042,0.895-0.158,1.288-0.271c1.012-0.292,2.138,0.437,2.001,1.281c-0.205,1.265-1.264,2.487-2.84,2.846
			c-0.356,0.08-0.877,0.131-1.292,0.17c-3.216,0.292-5.463-0.484-6.313-1.437c-0.828-0.93-1.281-1.851-1.392-2.983
			c-0.096-0.979,0.002-2.135,0.123-3.601c0.689-7.016,1.045-10.521,1.781-17.535c0.17-0.016,0.256-0.024,0.426-0.04
			c-0.16,0.014-0.271-0.027-0.377-0.016c-1.17,0.108-2.142-0.639-2.08-1.52c0.074-1.032,1.053-1.974,2.454-1.949
			c-0.021,0.002-0.032,0.003-0.053,0.006c0.138-1.416,0.195-2.513,0.199-3.655c0.005-1.662,1.346-3.23,3.329-3.839
			c1.503-0.463,3.238,0.364,3.007,1.607c-0.31,1.67-1.012,5.17-0.769,5.417C124.591,19.829,125.47,19.614,126.004,19.568z"/>
		<path fill="#16377A" d="M132.866,28.657c0.304-2.828,0.348-4.625,0.18-5.778c-0.177-1.209,0.458-2.614,2.021-2.914
			c0.519-0.101,1.004-0.179,1.427-0.264c-0.021,0.002-0.03,0.002-0.051,0.005c1.576-0.432,3.195,0.543,3.13,1.736
			c-0.016,0.301-0.143,0.946-0.249,1.68c-0.106,0.735-0.408,2.417-0.408,2.417c0.028,0.01,2.257-4.306,4.084-5.642
			c0.95-0.693,2.015-1.246,2.947-1.601c1.54-0.588,2.909,0.73,2.546,2.011c-0.4,1.406-2.214,2.417-3.92,2.959
			c-2.182,0.697-4.94,3.23-5.999,8.372c-0.575,2.786-1.223,9.748-1.266,13.125c-0.018,1.489-1.403,2.804-3.226,2.901
			c-0.104,0.008-0.153,0.013-0.257,0.021c-1.558,0.126-3.067-0.897-2.803-2.207c0.179-0.894,0.37-1.852,0.411-2.634
			C131.992,37.168,132.279,34.333,132.866,28.657z"/>
		<path fill="#16377A" d="M172.292,19.235c2.71,2.425,2.997,5.524,3.057,7.024c0.32,8.068-4.368,19.855-15.956,20.504
			c-2.857,0.16-5.822-0.485-7.851-2.124c-1.267-1.021-3.347-3.154-3.658-7.803c-0.556-8.312,4.352-19.27,16.061-19.855
			C167.582,16.798,170.459,17.595,172.292,19.235z M167.057,21.545c-0.661-0.538-1.934-1.309-3.746-1.215
			c-8.103,0.411-9.34,12.65-9.093,16.73c0.297,4.909,2.751,6.574,5.461,6.423c8.757-0.488,9.308-14.67,9.195-17.152
			C168.817,25.09,168.665,22.855,167.057,21.545z"/>
		<path fill="#16377A" d="M182.597,31.954c-1.611-0.878-4.632-2.533-4.757-5.895c-0.106-2.845,1.662-5.539,4.157-7.501
			c2.619-2.059,6.61-2.527,8.75-2.58c1.499-0.038,2.574,0.045,3.596,0.282c-0.022,0.002-0.033,0-0.055,0
			c1.558,0.277,2.335,1.714,1.822,2.861c-0.559,1.254-2.272,1.521-3.663,0.907c-0.793-0.349-1.772-0.58-2.893-0.551
			c-3.733,0.096-5.68,2.7-5.616,4.77c0.076,2.379,1.907,3.36,3.84,4.341c1.098,0.611,1.645,0.913,2.738,1.527
			c1.606,0.892,4.066,2.339,4.13,5.444c0.048,2.224-0.998,5.274-4.063,7.602c-3.042,2.309-6.7,2.574-8.987,2.654
			c-1.405,0.047-2.84-0.04-3.81-0.227c-1.599-0.309-2.72-1.94-2.317-3.277c0.354-1.174,2.091-1.652,3.408-1.064
			c0.982,0.438,2.328,0.749,4.311,0.684c3.757-0.123,5.729-2.452,5.672-4.573c-0.054-1.968-1.443-2.86-2.94-3.645
			C184.593,33.007,183.928,32.654,182.597,31.954z"/>
		<path fill="#16377A" d="M214.093,18.25c0.683-3.675,1.009-5.908,1.162-7.3c0.163-1.496,1.292-2.898,3.232-2.846
			c0.367,0.002,0.549,0,0.917,0c1.347,0.006,3.07-0.036,4.687-0.077c0.194,0,0.293,0,0.486,0.002
			c1.242-0.043,2.696-0.081,3.343-0.073c6.039,0.063,11.015,1.983,10.881,8.349c-0.053,2.484-1.298,13.974-17.714,13.905
			c-1.529-0.008-1.897,0.045-2.902-0.111c-0.701,3.85-1.049,5.776-1.739,9.627c-0.053,0.207-0.068,0.421-0.103,0.618
			c-0.077,0.432-0.101,0.888-0.156,1.245c-0.241,1.538-1.665,2.847-3.592,2.855c-0.354,0.002-0.531,0.002-0.884,0.003
			c-1.612,0.007-2.782-1.355-2.415-2.627c0.67-2.31,1.377-5.493,1.942-8.084C212.361,27.54,212.934,24.443,214.093,18.25z
			 M218.772,26.375c0.425,0,1.112,0.054,1.482,0.055c2.545,0.009,5.071-0.302,6.74-1.043c3.864-1.721,4.87-6.874,4.898-8.893
			c0.076-5.227-4.544-5.286-7.07-5.307c-0.43-0.002-0.864,0.044-1.563,0.04c-0.481-0.002-1.083-0.115-1.286,0.043
			c-0.764,0.598-0.922,3.993-1.146,4.966c-0.155,0.665-0.274,1.237-0.492,2.064C219.708,21.529,219.393,23.147,218.772,26.375z"/>
		<path fill="#16377A" d="M241.049,25.569c0.596-2.78,0.823-4.56,0.774-5.726c-0.05-1.221,0.729-2.553,2.313-2.69
			c0.525-0.045,1.014-0.076,1.443-0.115c-0.021-0.001-0.033-0.001-0.052-0.001c1.61-0.268,3.122,0.872,2.936,2.051
			c-0.05,0.297-0.242,0.922-0.424,1.641c-0.184,0.721-0.656,2.364-0.656,2.364c0.027,0.012,2.689-4.048,4.644-5.188
			c1.017-0.591,2.128-1.031,3.092-1.288c1.591-0.425,2.814,1.028,2.32,2.263c-0.541,1.357-2.445,2.171-4.199,2.537
			c-2.24,0.467-5.242,2.701-6.824,7.705c-0.86,2.714-2.225,9.571-2.617,12.924c-0.174,1.479-1.685,2.646-3.504,2.552
			c-0.104-0.002-0.155-0.002-0.259-0.004c-1.561-0.035-2.951-1.21-2.556-2.486c0.271-0.87,0.559-1.801,0.68-2.576
			C239.301,33.947,239.88,31.155,241.049,25.569z"/>
		<path fill="#16377A" d="M281.223,20.279c2.446,2.692,2.412,5.804,2.317,7.303c-0.517,8.057-6.403,19.295-17.995,18.741
			c-2.857-0.135-5.737-1.085-7.586-2.923c-1.154-1.148-3.001-3.483-2.831-8.138c0.31-8.325,6.316-18.72,18.025-18.091
			C276.788,17.366,279.571,18.459,281.223,20.279z M275.777,22.034c-0.603-0.605-1.787-1.502-3.6-1.597
			c-8.1-0.428-10.596,11.614-10.771,15.699c-0.212,4.913,2.053,6.824,4.767,6.955c8.759,0.421,10.775-13.628,10.92-16.108
			C277.162,25.742,277.241,23.502,275.777,22.034z"/>
		<path fill="#16377A" d="M308.72,36.257c-0.093,0.459-0.2,0.875-0.332,1.32c-0.763,2.602-1.534,5.94-1.781,8.212
			c-0.139,1.313-1.391,2.5-3.03,2.385c-1.738-0.122-3.191-1.49-2.895-2.942c0.101-0.501,0.879-3.719,0.879-3.719
			c-0.067-0.035-5.301,6.626-9.559,6.313c-4.413-0.326-8.067-3.467-7.683-9.354c0.093-1.396,1.331-8.848,6.42-14.139
			c3.121-3.248,8.063-5.325,12.92-4.922c1.494,0.123,3.286,0.861,3.483,0.761c0.668-0.348,1.071-4.093,1.092-5.206
			c0.024-1.261,1.052-2.601,2.726-2.669c0.38-0.014,0.771-0.05,0.927-0.074c1.618-0.254,3.454,0.906,3.055,2.152
			c-0.286,0.9-0.62,2.076-1.168,3.893c-0.227,0.757-0.481,1.673-0.787,2.686C311.26,27.069,310.408,30.129,308.72,36.257z
			 M290.729,37.198c-0.259,3.613,1.009,6.401,3.614,6.6c1.668,0.124,4.153-0.877,6.341-4.382c1.693-2.716,2.574-5.814,5.529-15.899
			c0.148,0.012,0.223,0.02,0.369,0.032c-1.244-0.471-2.338-0.874-3.72-0.987C293.971,21.83,290.96,33.945,290.729,37.198z"/>
		<path fill="#16377A" d="M320.692,37.444c-0.843,2.568-1.171,3.733-1.283,4.866c-0.195,1.956,0.469,3.737,2.916,3.988
			c0.989,0.102,4.1-0.012,6.628-3.302c1.434-1.868,3.175-6.537,4.388-10.396c0.931-2.954,1.424-4.948,1.621-6.226
			c0.218-1.43,1.543-2.65,3.226-2.805c0.215-0.02,0.538,0.009,0.706-0.024c-0.021-0.001-0.034-0.004-0.055-0.006
			c0.165-0.032,0.349-0.045,0.597-0.035c1.355,0.063,2.834,1.25,2.426,2.27c-0.981,2.45-2.241,5.795-3.647,10.408
			c-2.128,6.974-3.013,10.383-3.239,12.335c-0.02,0.164-0.025,0.244-0.046,0.409c-0.104,1.343-1.628,2.261-3.235,2.08
			c-1.762-0.199-3.018-1.635-2.813-3.018c0.086-0.594,0.563-2.751,0.563-2.751c-0.023-0.009-2.236,3.023-3.788,3.858
			c-2.44,1.313-5.53,1.244-6.309,1.165c-3.68-0.37-6.773-2.477-6.421-6.239c0.068-0.721,0.234-1.432,0.729-3.31
			c1.562-5.384,2.349-8.072,3.938-13.451c0.312-1.01,0.506-1.827,0.617-2.439c0.237-1.326,1.213-2.65,2.864-2.89
			c0.156-0.022,0.479-0.004,0.645-0.038c0.165-0.037,0.456-0.043,0.653-0.04c1.496,0.032,3.008,1.343,2.586,2.554
			c-0.789,2.257-1.198,3.313-1.969,5.626C322.066,32.997,321.607,34.479,320.692,37.444z"/>
		<path fill="#16377A" d="M365.951,26.699c1.332,0.506,1.554,1.951,0.99,2.912c-0.649,1.103-2.354,0.967-3.604,0.268
			c0.02,0.004,0.032,0.007,0.052,0.01c-0.605-0.294-1.327-0.555-2.229-0.681c-6.833-0.95-11.758,5.531-12.668,12.616
			c-0.32,2.516-0.216,5.649,2.089,7.577c1.236,1.033,2.596,1.545,3.997,1.735c1.244,0.168,2.341,0.059,3.398-0.112
			c1.136-0.182,1.839,0.905,1.398,1.711c-0.604,1.105-2.157,1.793-3.681,1.79c-0.786-0.001-1.775-0.083-2.656-0.202
			c-7.905-1.062-12.139-5.989-11.289-12.976c0.976-8.014,8.102-17.272,20.695-15.514C363.932,26.042,365.079,26.366,365.951,26.699z
			"/>
		<path fill="#16377A" d="M378.593,28.165c0.744,0.116,1.438,0.22,1.974,0.257c1.278,0.088,2.16,1.199,1.784,2.117
			c-0.415,1.021-1.907,1.515-3.344,1.253c-1.031-0.187-2.953-0.666-3.165-0.542c-0.43,0.257-1.155,3.186-1.846,5.007
			c-0.927,2.451-1.941,5.423-2.582,7.144c-0.957,2.567-1.738,4.818-1.961,6.302c-0.299,1.996,0.614,2.969,2.064,3.189
			c0.466,0.072,0.906,0.061,1.314,0.044c1.055-0.042,1.979,0.934,1.643,1.721c-0.5,1.179-1.819,2.118-3.438,2.088
			c-0.368-0.006-0.887-0.082-1.302-0.143c-3.198-0.485-5.199-1.773-5.797-2.9c-0.585-1.1-0.8-2.104-0.64-3.233
			c0.141-0.973,0.503-2.069,0.972-3.465c2.34-6.648,3.524-9.97,5.911-16.607c0.17,0.025,0.253,0.038,0.424,0.063
			c-0.16-0.023-0.255-0.091-0.363-0.106c-1.163-0.173-1.936-1.13-1.664-1.97c0.317-0.986,1.494-1.668,2.854-1.309
			c-0.021-0.004-0.032-0.004-0.054-0.008c0.47-1.342,0.79-2.394,1.067-3.503c0.399-1.612,2.076-2.815,4.149-2.934
			c1.573-0.092,3.065,1.123,2.547,2.276c-0.699,1.548-2.219,4.782-2.04,5.079C377.158,28.083,378.063,28.083,378.593,28.165z"/>
		<path fill="#16377A" d="M406.25,35.525c2.115,2.966,1.708,6.051,1.433,7.528c-1.478,7.938-8.682,18.387-20.162,16.447
			c-2.831-0.48-5.595-1.77-7.215-3.816c-1.013-1.277-2.577-3.816-1.848-8.417c1.301-8.229,8.526-17.829,20.118-15.797
			C402.174,32.097,404.819,33.519,406.25,35.525z M400.607,36.609c-0.526-0.672-1.602-1.705-3.396-2.017
			c-8.021-1.4-11.944,10.26-12.607,14.295c-0.798,4.852,1.231,7.018,3.919,7.474c8.674,1.471,12.369-12.235,12.808-14.681
			C401.551,40.458,401.894,38.245,400.607,36.609z"/>
		<path fill="#16377A" d="M413.521,50.217c-1.382-1.216-3.976-3.497-3.354-6.801c0.525-2.799,2.858-5.033,5.736-6.391
			c3.022-1.426,7.037-0.995,9.146-0.571c1.477,0.3,2.512,0.616,3.462,1.075c-0.021-0.005-0.034-0.007-0.055-0.011
			c1.466,0.618,1.91,2.195,1.152,3.198c-0.827,1.096-2.565,0.977-3.791,0.067c-0.7-0.517-1.608-0.96-2.714-1.182
			c-3.681-0.737-6.163,1.368-6.558,3.399c-0.457,2.336,1.122,3.698,2.799,5.085c0.938,0.84,1.402,1.264,2.339,2.106
			c1.376,1.227,3.468,3.185,2.844,6.227c-0.448,2.182-2.146,4.92-5.668,6.506c-3.492,1.573-7.14,1.014-9.398,0.582
			c-1.384-0.266-2.772-0.668-3.68-1.066c-1.497-0.657-2.234-2.497-1.544-3.71c0.607-1.065,2.418-1.146,3.579-0.275
			c0.865,0.647,2.113,1.242,4.069,1.619c3.708,0.718,6.159-1.11,6.575-3.19c0.384-1.93-0.783-3.112-2.075-4.21
			C415.244,51.69,414.672,51.198,413.521,50.217z"/>
	</g>
</g>
<g>
	<g>
		<path fill="#8CC3E7" d="M56.299,82.33c0,0.042,0.012,0.079,0.014,0.121c0.005,0.101,0.014,0.203,0.033,0.301l-0.006,0.003
			c0,0,0.027,0.189,0.148,0.501c0.31,0.785,1.244,2.383,3.997,4.01c2.733-1.808,3.557-3.487,3.801-4.265
			c0.09-0.283,0.107-0.451,0.107-0.451l-0.005-0.004c0.014-0.11,0.019-0.224,0.019-0.343c0-0.023,0.006-0.051,0.006-0.078
			c-0.006-0.267-0.063-0.519-0.143-0.757c-0.11-0.33-0.28-0.625-0.508-0.859c-0.367-0.389-0.858-0.621-1.394-0.604
			c-1.018,0.025-1.929,0.936-2.02,2.063c-0.143-1.119-1.103-1.984-2.121-1.957c-0.604,0.013-1.13,0.342-1.484,0.838
			c-0.186,0.27-0.33,0.591-0.397,0.943C56.316,81.966,56.293,82.145,56.299,82.33z"/>
	</g>
</g>
<g>
	<g>
		<path fill="#8CC3E7" d="M370.506,80.237c0,0.04,0.007,0.079,0.007,0.121c0.011,0.1,0.018,0.2,0.035,0.302l-0.004,0.002
			c0,0,0.025,0.188,0.147,0.502c0.312,0.784,1.244,2.382,3.999,4.01c2.731-1.809,3.556-3.487,3.803-4.265
			c0.088-0.286,0.105-0.454,0.105-0.454l-0.011-0.001c0.018-0.111,0.023-0.225,0.026-0.342c0-0.027,0.005-0.054,0.005-0.082
			c-0.008-0.265-0.066-0.519-0.143-0.754c-0.111-0.333-0.282-0.627-0.51-0.862c-0.368-0.385-0.86-0.618-1.396-0.603
			c-1.014,0.025-1.931,0.938-2.02,2.065c-0.142-1.122-1.098-1.986-2.12-1.962c-0.604,0.017-1.131,0.343-1.484,0.84
			c-0.188,0.271-0.329,0.59-0.399,0.944C370.52,79.87,370.497,80.053,370.506,80.237z"/>
	</g>
</g>
<g>
	<path fill="#8CC3E7" d="M234.986,106.669c-2.503-0.139-7.333-2.949-13.836-3.707c-4.983-0.579-9.417,2.353-13.695,8.023
		c-0.6,0.808-1.505,2.067,0.81,2.3c5.019,0.502,8.214,2.82,13.838,3.2c4.68,0.314,8.815-2.638,13.779-7.526
		C237.052,107.797,236.887,106.771,234.986,106.669z"/>
	<path fill="#8CC3E7" d="M205.233,98.588c0.781,0.355,1.476,0.752,2.37-1.074c2.248-4.608,3.817-8.743,3.299-12.779
		c-0.458-3.469-3.187-6.552-6.934-10.657c-0.939-1.02-1.71-0.667-2.316,0.887c-0.448,1.11-3.304,6.689-4.089,12.295
		C196.957,91.563,199.72,96.05,205.233,98.588z"/>
	<path fill="#8CC3E7" d="M246.259,75.723c-0.368-0.277-0.719-0.47-1.053-0.638c-2.918-1.37-7.148,2.229-10.814,4.593
		c-2.293,1.471-6.736,2.864-9.784,2.592c-1.927-0.156-1.854-2.027,0.086-2.012c1.935,0.021,4.823-0.943,8.869-3.494
		c2.108-1.328,4.521-3.77,7.586-4.609c-0.888-3.556-3.599-6.87-5.074-7.862c-0.858-0.578-1.753-0.299-2.018,0.396
		c-2.358,6.222-6.45,7.627-8.584,8.671c-2.146,1.043-5.691,1.788-8.894,5.756c-2.94,3.669-4.16,9.652-0.412,14.087
		c-2.513,2.026-13.167,10.77-17.375,22.876c-0.682,1.974-1.196,4.026-1.479,6.169c-0.133,0.941,0.438,1.659,1.134,1.883
		c0.387,0.131,0.817,0.131,1.205-0.016c0.7-0.274,1.271-0.855,1.595-1.815c0.142-0.405,0.25-0.883,0.329-1.463
		c0.129-1.057,0.486-3.035,1.364-5.569c1.846-5.329,6.017-13.106,15.271-20.145v-0.001c3.851,2.998,7.871,4.059,11.989,2.368
		c4.646-1.899,7.386-6.338,9.187-11.64c2.174-6.401,4.478-7.515,6.654-8.19C247.243,77.286,247.499,76.667,246.259,75.723z"/>
</g>
<path fill="#8CC3E7" d="M195.371,121.237c-0.137-0.631-0.7-1.266-1.669-1.878c-0.537-0.342-1.547-0.807-2.825-1.393
	c-1.783-0.817-4.003-1.84-5.628-2.844c-0.364-0.254-0.784-0.555-1.241-0.894c-3.502-2.771-7.597-6.444-10.838-11.271
	c-1.416-2.403-1.895-5.316-1.465-8.894c5.575-0.744,9.407-3.789,11.427-9.184c0.218-1.288-0.167-2.599-1.085-3.684
	c-1.026-1.215-2.603-1.969-4.115-1.969c-0.86,0-1.657,0.23-2.324,0.653c-3.175,1.708-4.559,4.961-5.329,7.276
	c-0.362,1.182-0.658,2.344-0.887,3.462c-2.33,0.071-4.547-0.213-6.119-0.413c-0.368-0.047-0.701-0.088-1.031-0.124
	c-4.015-0.211-10.718-1.873-18.479-3.8c-10.33-2.565-23.187-5.754-35.653-7.028c-14.884-0.56-28.074,2.951-36.223,5.824
	c-1.347,0.338-2.755,0.605-3.996,0.845c-1.403,0.267-2.511,0.479-3.123,0.707c-1.065,0.396-1.74,0.892-2.007,1.477
	c-0.156,0.344-0.172,0.703-0.045,1.041c0.103,0.274,0.458,0.912,1.539,0.912c0.463,0,1.022-0.119,1.664-0.355
	c0.584-0.22,1.574-0.702,2.827-1.314c1.425-0.694,3.198-1.561,4.727-2.205c6.801-2.083,17.4-4.563,29.275-4.563
	c1.74,0,3.48,0.055,5.127,0.154c11.636,1.479,23.979,4.81,33.899,7.486c8.326,2.246,15.519,4.188,20.008,4.446
	c0.481,0.013,1.123,0.09,1.886,0.18c1.438,0.166,3.254,0.368,5.207,0.362c-0.273,3.855,0.422,7.188,2.095,9.947
	c2.33,3.277,5.139,5.852,7.963,8.076c2.343,1.947,4.346,3.61,5.632,4.434l0.024,0.291c0.002,0,0.004,0,0.007,0
	c0.408,2,0.761,0.214,1.006,0.359c1.341,0.97,2.757,2.017,3.895,2.967c1.072,0.897,1.919,1.54,2.459,1.879
	c0.779,0.494,1.456,0.711,2.02,0.711c0.131,0,0.256-0.028,0.374-0.054c0.367-0.084,0.663-0.303,0.846-0.6
	C195.389,121.963,195.451,121.603,195.371,121.237z M178.333,82.562c0.941,0,1.445,0.631,1.498,1.881
	c-1.218,3.204-3.644,5.13-7.397,5.858c0.186-0.731,0.4-1.479,0.647-2.269C173.546,84.857,176.542,82.562,178.333,82.562z"/>
<path fill="#8CC3E7" d="M374.031,88.117c-0.267-0.586-0.941-1.087-2.01-1.482c-0.614-0.23-1.72-0.441-3.122-0.71
	c-1.245-0.239-2.654-0.507-3.938-0.827c-8.428-2.965-21.563-6.377-36.333-5.837c-12.416,1.27-25.271,4.458-35.599,7.021
	c-7.767,1.93-14.473,3.592-18.529,3.807c-0.286,0.032-0.62,0.073-0.987,0.12c-1.527,0.194-3.789,0.48-6.118,0.413
	c-0.232-1.137-0.53-2.304-0.893-3.478c-0.764-2.3-2.143-5.552-5.277-7.234c-1.562-0.987-3.592-0.896-5.303,0.239
	c-1.702,1.131-2.567,2.945-2.233,4.865c1.987,5.266,5.822,8.313,11.395,9.052c0.43,3.573-0.054,6.484-1.452,8.858
	c-8.803,13.127-22.252,19.337-27.884,21.475c-7.519,2.479-15.334,2.236-21.031,1.451c-1.768-0.342-3.768-0.913-5.425-1.396
	c-1.345-0.39-2.409-0.698-3.038-0.795c-1.133-0.164-1.974-0.055-2.49,0.331c-0.298,0.223-0.483,0.53-0.531,0.872
	c-0.055,0.36,0.033,0.709,0.255,1.015c0.381,0.515,1.146,0.864,2.27,1.028c0.633,0.099,1.741,0.115,3.142,0.141
	c0.461,0.008,0.963,0.017,1.474,0.028c4.175,0.95,8.033,1.437,11.711,1.437c5.054,0,9.764-0.929,14.472-2.775
	c6.461-2.267,19.852-8.289,29.289-21.578c1.648-2.727,2.345-6.054,2.067-9.904c1.99,0.015,3.822-0.202,5.207-0.362
	c0.762-0.09,1.408-0.167,1.903-0.184c4.471-0.255,11.66-2.195,19.985-4.442c9.919-2.676,22.267-6.008,33.859-7.479
	c13.732-0.875,26.313,1.914,34.383,4.376c1.586,0.667,3.353,1.531,4.773,2.224c1.262,0.614,2.26,1.103,2.85,1.322
	c2.361,0.877,3.024-0.097,3.194-0.553C374.197,88.817,374.185,88.459,374.031,88.117z M263.732,88.147
	c0.228,0.704,0.436,1.427,0.621,2.153c-3.756-0.729-6.178-2.654-7.395-5.858c0.047-1.189,0.506-1.821,1.358-1.88
	C260.104,82.432,263.222,84.742,263.732,88.147z"/>
</svg>
