<?xml version="1.0" standalone="no"?>
<!DOCTYPE svg PUBLIC "-//W3C//DTD SVG 1.1//EN" "http://www.w3.org/Graphics/SVG/1.1/DTD/svg11.dtd" >
<svg xmlns="http://www.w3.org/2000/svg" xmlns:xlink="http://www.w3.org/1999/xlink" version="1.1">
<metadata></metadata>
<defs>
<font id="raspoutine_demibolditalic" horiz-adv-x="1150" >
<font-face units-per-em="2048" ascent="1638" descent="-410" />
<missing-glyph horiz-adv-x="468" />
<glyph horiz-adv-x="0" />
<glyph horiz-adv-x="682" />
<glyph unicode=" "  horiz-adv-x="468" />
<glyph unicode="&#x09;" horiz-adv-x="468" />
<glyph unicode="&#xa0;" horiz-adv-x="468" />
<glyph unicode="!" horiz-adv-x="555" d="M66 94q0 -39 25 -65t56 -35.5t64 -9.5q74 0 131 50t57 111q0 48 -39 78.5t-102 30.5q-68 0 -130 -46.5t-62 -113.5zM162 444q-5 -34 31.5 -61t85.5 -27q57 0 98 25t47 63q32 190 93 464.5t106 439.5q10 38 -36 64.5t-100 23.5q-67 -6 -119.5 -41t-58.5 -84 q-16 -155 -61 -393q-14 -72 -19 -105q-8 -43 -67 -369z" />
<glyph unicode="&#x22;" horiz-adv-x="811" d="M236 909q0 -9 18.5 -16.5t46.5 -7.5q24 0 44.5 7t23.5 15l170 502q11 41 4 68t-41 42t-84 15q-59 0 -109.5 -29.5t-58.5 -81.5q0 -2 -1 -6t-1 -6q-1 -4 -2 -12t-2 -13zM575 909q0 -9 19 -16.5t47 -7.5q24 0 44.5 7t23.5 15l170 502q11 41 4 68t-40.5 42t-82.5 15 q-59 0 -110.5 -29.5t-61.5 -81.5q0 -12 -2 -20q0 -5 -1 -10t-1 -7z" />
<glyph unicode="#" horiz-adv-x="1366" d="M145 467v164h304q3 18 8 53t8 53q13 82 16 107h-286v164h307q4 29 15.5 101t17.5 114q4 26 14 104t16 117h244l-64 -436h144q9 63 33 215q4 22 32 221h240l-59 -436h278v-164h-301q-7 -57 -16 -107q-3 -18 -8.5 -52.5t-8.5 -53.5h283v-164h-305l-68 -467h-241l67 467 h-145q-10 -73 -33 -229q-5 -36 -17 -117t-18 -121h-244l70 467h-283zM690 631h148q5 37 15 106.5t15 106.5h-143q-7 -57 -16 -107q-3 -19 -9.5 -53.5t-9.5 -52.5z" />
<glyph unicode="$" horiz-adv-x="1024" d="M-39 158q23 51 102 51q42 0 80 -19q82 -42 207 -45q4 11 8.5 24t11 29t9.5 25q19 56 27 80q14 43 75 43q32 0 54.5 -15.5t19.5 -43.5q0 -24 -4 -60q0 -27 -2 -45q47 23 96 84q39 48 39 137q3 43 -10 77t-40.5 58t-46 35.5t-48.5 26.5l-15 6q-59 31 -94.5 51.5t-92 60.5 t-89 76.5t-57.5 90t-25 110.5q0 65 18 127q34 111 166 226q58 50 122 75.5t151 42.5q19 74 24 125q3 27 36.5 45.5t74.5 18.5q39 0 65.5 -21.5t20.5 -46.5q7 15 3 -3q-2 -6 -7 -25q-9 -29 -11 -39l-6 -37q111 -5 203 -29q53 -13 82.5 -55t15.5 -84q-21 -55 -104 -55 q-45 0 -70 14q-66 34 -166 41q-2 -7 -30 -82q-20 -60 -29 -88q-18 -37 -78 -37q-30 0 -50 13.5t-17 37.5q1 12 6 70q4 40 4 51q-57 -27 -99 -82.5t-42 -142.5q0 -44 11 -77t34 -56t38 -33.5t43 -25.5q6 -3 9 -5l12 -8t14 -8q56 -28 94.5 -50t83.5 -51.5t74 -58.5t54.5 -64.5 t38 -77t12.5 -89.5q0 -79 -39.5 -161.5t-106.5 -146.5q-112 -97 -307 -147q-2 -11 -6 -34.5t-6 -35.5q-2 -13 -7.5 -34t-7.5 -29v-8l-2 -7q-3 -28 -35 -47.5t-77 -19.5q-30 0 -56 19t-28 38q5 5 10 15h-2v20q2 9 5 26t5 25q10 45 10 49h-28q-165 0 -256 29q-48 18 -69 66.5 t-3 89.5z" />
<glyph unicode="%" horiz-adv-x="1732" d="M113 809q0 50 12.5 122t40.5 164t86 179t135 137q86 53 207 53q122 0 184 -53q84 -73 84 -207q0 -57 -10.5 -125t-32.5 -146t-61 -149t-89.5 -129.5t-125.5 -93.5t-162 -35q-114 0 -174 54v-2q-94 82 -94 231zM344 801q0 -154 64 -154q49 0 98 68q48 60 86.5 233 t38.5 281q0 125 -60 125q-49 0 -89.5 -48t-65 -117t-41.5 -149.5t-24 -141.5t-7 -97zM418 78q133 220 303 522q2 4 8 15.5t8 15.5l13 24q51 94 59 109q2 6 10 20l8 15q6 11 20.5 35t20.5 36q6 11 19 32.5t20 33.5q214 378 273 491q18 33 58.5 39t82.5 -20q27 -19 39.5 -41.5 t1.5 -38.5q-69 -111 -320 -557q-329 -584 -446 -803q-18 -30 -58 -31.5t-75 21.5q-26 15 -39.5 41t-5.5 41zM934 266q0 49 13 122t41.5 164.5t86 179t133.5 138.5q92 52 205 52q119 0 184 -52q84 -73 84 -206q0 -57 -10.5 -124.5t-32 -146t-60.5 -150t-89.5 -130.5t-125 -94 t-161.5 -35q-116 0 -176 55v-2q-92 82 -92 229zM1167 258q0 -152 64 -152q40 0 94 68q46 59 85.5 232.5t39.5 279.5q0 127 -59 127q-48 0 -88 -48t-64.5 -117t-41.5 -150t-23.5 -142t-6.5 -98z" />
<glyph unicode="&#x26;" horiz-adv-x="1202" d="M80 332q0 118 84 227q117 138 375 168q0 1 -1 4t-1 4q0 8 2 8q-1 0 -4.5 1t-4.5 1q-74 14 -124 35q-68 34 -105 88t-37 121q0 138 131 260q146 123 383 123q86 0 152 -14q50 -14 53 -27l-2 2q20 -33 16 -49q-14 -28 -30 -35q-63 -24 -101 -10q-61 25 -121 25 q-125 0 -198.5 -83t-73.5 -194q0 -23 6.5 -49.5t21.5 -58.5t48 -58t78 -37q66 -12 217 -12q2 10 7 33t7 33q6 35 12 67l7 31q2 7 4.5 17t4 16.5t1.5 9.5q4 8 4 16q3 16 7.5 41t6.5 35q6 38 40.5 67t82.5 40q62 7 84 -15q19 -22 16 -30q-37 -104 -86 -361h66l22 2 q52 0 58 -14h-4q23 -23 20 -29q-8 -26 -41 -42t-78 -15h-59l-76 -375l-14 -70q-4 -42 -32 -83t-89 -58h2l-63 -12q-131 -25 -262 -25q-113 0 -183 23q-128 43 -153 78h2q-78 78 -78 180zM303 354q0 -146 107 -188q68 -27 157 -27q69 0 152 17l106 518q-223 0 -309 -21h2 q-98 -31 -156.5 -118.5t-58.5 -180.5z" />
<glyph unicode="'" horiz-adv-x="425" d="M217 909q0 -9 19.5 -16.5t44.5 -7.5q56 0 69 22l172 502q11 41 4 68t-41.5 42t-81.5 15q-63 0 -113.5 -29t-60.5 -82q-2 -12 -2 -20q0 -5 -1 -10t-1 -7z" />
<glyph unicode="(" horiz-adv-x="790" d="M236 254q0 -273 114 -596l-2 2q3 -18 28.5 -29.5t61.5 -11.5q34 0 54.5 15t17.5 34q-45 208 -45 438q0 290 66 586.5t161 507.5q15 36 68 139h-2q5 7 8 12.5t4 7.5t2 3q4 6 31 59q18 35 39 78q7 13 -13.5 27t-46.5 14q-72 0 -100 -39q-228 -330 -342 -653 q-104 -307 -104 -594z" />
<glyph unicode=")" horiz-adv-x="772" d="M-90 -338l59 -43q71 0 99 39q226 315 344 655q104 304 104 590q0 273 -115 598q-14 39 -88 39q-34 0 -54 -15t-17 -34q45 -195 45 -438q0 -259 -69 -564.5t-159 -529.5q-31 -75 -82 -168q-4 -9 -15 -30t-17 -33q-4 -8 -16 -30t-19 -36z" />
<glyph unicode="*" horiz-adv-x="681" d="M156 1010q15 -31 55 -38t74 17h-4q12 6 16 10v-2q18 14 29 25h-4l20 10q4 2 13 9t14 10q-2 -7 -8 -21.5t-9 -21.5l-12 -31q-1 -3 -3 -8t-3 -8q-2 -4 -5 -13.5t-5 -13.5q-6 -21 17 -37t62 -16q47 0 79 20t34 49v11q0 6 2 38t4 52q29 -25 45 -41q29 -31 72 -28.5t72 36.5 h-2q13 19 1 40t-38 36q-19 8 -109 61q24 9 84 39q7 5 27.5 12t23.5 8h-2l19 11q27 9 40 30t5 39q-16 35 -50.5 45t-70.5 -18q-13 -12 -33.5 -27t-23.5 -18q-4 -3 -8 -5.5t-9.5 -5.5t-9.5 -5q1 4 4 12t4 12q3 11 7 24.5t5 14.5h3l18 63q6 20 -20 37t-60 17q-44 0 -77 -19 t-33 -47q0 -7 -1.5 -30t-1.5 -31q-2 -20 -2 -58l-25.5 24t-9 9t-1.5 2.5t-5 5.5q-2 2 -9 8.5t-13 12.5q-32 28 -66.5 24.5t-58.5 -32.5q-12 -20 -3.5 -43.5t34.5 -36.5q57 -32 129 -78q-8 -4 -174 -68h2q-29 -8 -41 -31t-4 -42z" />
<glyph unicode="+" horiz-adv-x="1366" d="M113 596q-5 -36 25 -60t81 -24h385q-9 -57 -37 -211q-8 -51 -37 -215q-3 -35 27 -60.5t80 -25.5q51 0 91 25.5t46 60.5l76 426h389q50 0 89.5 24.5t45.5 59.5q6 36 -24.5 61t-81.5 25h-389q23 125 39 211q22 134 34 211q3 35 -26.5 60.5t-79.5 25.5q-51 0 -91 -25.5 t-46 -60.5q-33 -187 -37 -211q-7 -42 -20 -114.5t-17 -96.5h-385q-51 0 -91 -25.5t-46 -60.5z" />
<glyph unicode="," horiz-adv-x="468" d="M-114.5 -217.5q4.5 -18.5 20.5 -28.5l112 6q215 250 279 428q12 35 -28.5 61.5t-88.5 18.5q-57 -13 -95.5 -47t-47.5 -76q-15 -63 -25 -92q-49 -144 -123 -241q-8 -11 -3.5 -29.5z" />
<glyph unicode="-" horiz-adv-x="641" d="M90 602q-6 -38 31 -67t88 -27h22q2 0 6.5 1t6.5 1h12q49 0 201 -8q60 -1 104 24.5t55 67.5v2q7 33 -31 62.5t-85 31.5q-57 -4 -146 -4q-79 0 -108 2q-55 -2 -102 -26.5t-54 -59.5z" />
<glyph unicode="." horiz-adv-x="468" d="M-10 92q0 67 63 113.5t131 46.5q63 0 102.5 -30.5t39.5 -78.5q0 -61 -57.5 -111t-131.5 -50q-56 0 -101.5 26.5t-45.5 83.5z" />
<glyph unicode="/" horiz-adv-x="724" d="M-82 74q-13 -21 11 -43.5t59 -24.5q52 -1 90.5 17t50.5 49q17 46 64 118l563 1006q35 59 41 68q15 29 24 41q7 13 16 27t11 18l18 30q13 22 -12.5 43t-62.5 23q-48 3 -88 -11.5t-54 -45.5q-16 -35 -30 -65t-24 -52t-24.5 -50t-21 -42t-24 -46t-23.5 -44t-29.5 -55 t-32.5 -60q-3 -6 -14 -27.5t-18 -32.5q-22 -33 -35 -59q-8 -16 -25.5 -46.5t-25.5 -45.5q-11 -22 -52 -92l-18 -37q-4 -6 -15.5 -25.5t-15.5 -25.5q-8 -19 -24 -46t-23 -40q-5 -10 -19.5 -34t-19.5 -34q-123 -215 -177 -297q-17 -25 -40 -59z" />
<glyph unicode="0" d="M80 434q0 -173 74 -299h-2q38 -66 126.5 -110.5t210.5 -44.5q108 0 204.5 38.5t169.5 104.5t134 155t102 188t69.5 205t41.5 205t13 189q0 79 -17.5 142.5t-43.5 105t-65 72t-75 46t-79.5 24.5t-71.5 11t-60 2q-49 0 -99.5 -9t-112.5 -34.5t-119.5 -65.5t-118.5 -107 t-111 -154q-72 -144 -121 -349.5t-49 -314.5zM381 414q0 149 40.5 338.5t96.5 312.5q115 256 264 256q16 0 30 -2.5t37 -14.5t39 -33t28 -63t12 -100q0 -120 -42.5 -347.5t-101.5 -381.5q-105 -236 -256 -236q-147 0 -147 271z" />
<glyph unicode="1" horiz-adv-x="782" d="M201 1192q-3 -43 45.5 -61.5t95.5 6.5q90 46 164 67q-8 -68 -32 -219.5t-36 -200.5l-69 -338q-53 -250 -76 -331q-9 -40 24.5 -75t85.5 -34h41q62 -1 105.5 31.5t48.5 79.5q3 39 12 86l62 342q26 151 57 344q55 301 96 467q9 43 -36.5 68.5t-96.5 5.5q-155 -64 -354 -117 q-55 -12 -94 -46t-43 -75z" />
<glyph unicode="2" d="M20 100q-3 -37 33.5 -69t85.5 -33q176 4 336 4q168 0 234 -2q45 -2 153 -2q67 -1 118.5 31.5t63.5 83.5q0 1 5 16q11 39 -25 66t-88 18q-64 -15 -191 -12h-481q51 34 178 125q479 330 619 503q65 87 93 169t28 124q0 348 -477 348q-128 0 -265 -26q-62 -13 -106.5 -54.5 t-52.5 -89.5q-7 -41 40 -61.5t99 -1.5q117 43 227 43q105 0 172.5 -44.5t67.5 -139.5q0 -254 -469 -623q-151 -120 -275 -203q-104 -72 -123 -170z" />
<glyph unicode="3" d="M45 123q-11 -37 14.5 -75t73.5 -50q100 -21 254 -21q144 0 268.5 35t217 100.5t145.5 165.5t53 222q0 100 -75.5 164t-213.5 86q-9 1 -37 4t-43 4q17 5 39 12.5t35 11.5q147 49 245.5 152t98.5 237q0 27 -6.5 55.5t-24 60.5t-43.5 60.5t-68 54.5t-95 42q-77 22 -176 22 q-135 0 -291 -36q-55 -15 -95 -52t-49 -80q-7 -33 35.5 -49.5t87.5 -1.5q83 27 84 27t5 1t5 1q70 12 129 12q94 0 141.5 -47t47.5 -125q0 -130 -108 -220.5t-293 -90.5h-19q-54 0 -96 -21t-51 -53q-6 -31 28.5 -56t77.5 -22q70 9 105 9q82 0 141.5 -13t92 -32t51 -48 t23.5 -53.5t5 -56.5q0 -40 -10 -81t-37 -87t-69 -81.5t-113 -59t-162 -23.5q-90 0 -154 33q-52 22 -106.5 12.5t-67.5 -49.5z" />
<glyph unicode="4" d="M57 422q-4 -33 29.5 -58.5t81.5 -25.5h504q-2 -8 -6.5 -27t-6.5 -32q-2 -11 -7 -32.5t-7 -33.5q-9 -42 -22 -92q-12 -45 28 -81t99 -36q63 0 112.5 32.5t57.5 78.5q6 41 12 84q2 12 7 35t7 36q2 15 6.5 38.5t5.5 29.5h35q58 -3 104 24t54 68q5 36 -30.5 64t-86.5 28h-41 q7 35 21 114.5t22 123.5q42 221 45 239q3 13 43 195q2 10 11 47.5t12 56.5l-2 -2q1 2 2 10t2 11q6 9 6 16q5 41 -31 75.5t-90 33.5h-53q-66 1 -129 -24t-98 -66q-70 -84 -92 -107q-3 -4 -27 -28q-41 -47 -113 -136q-5 -7 -14.5 -18.5t-11.5 -13.5q-24 -31 -97 -125 t-155.5 -199.5t-93.5 -120.5q-2 -3 -8.5 -9t-8.5 -9q-63 -87 -76 -164zM324 522q274 369 512 643l2 2l-131 -645h-383z" />
<glyph unicode="5" d="M80 131q-11 -40 13.5 -80t76.5 -53q102 -25 215 -25q142 0 258 27t211 98q130 94 190 209.5t60 231.5q0 152 -101 251t-286 99q-58 0 -114 -18t-84.5 -35t-69.5 -45l81 436q113 -8 297 -8q166 0 239.5 12t117.5 53q40 43 55 76q17 39 -26.5 67t-102.5 23h2q-19 0 -25 -2 h5q-76 -8 -246 -8q-61 0 -217 4q-18 0 -54 4h3q-10 2 -35 2q-5 0 -16.5 1t-16.5 1q-69 2 -121 -28.5t-61 -80.5q-49 -311 -119 -600q-9 -44 40.5 -67t100.5 0q114 43 215 43q105 0 168.5 -50t63.5 -163q0 -49 -11 -98.5t-37.5 -101.5t-66 -92t-102 -65.5t-140.5 -25.5 q-69 0 -135 20q-20 7 -43 21q-39 20 -82 20q-37 0 -64 -14t-36 -39z" />
<glyph unicode="6" d="M100 414q0 -238 150 -357q52 -38 130.5 -59t158.5 -21q87 0 173 21.5t148 58.5q77 48 136 122t89 142t48.5 139.5t23 109t4.5 57.5q0 156 -101.5 247t-271.5 91q-198 0 -337 -177q24 87 50 158t66.5 143.5t87 121.5t111 78.5t139.5 27.5q68 0 133 -35q35 -18 82 -18 q73 0 101 45q17 32 -2 69.5t-56 51.5q-98 30 -243 30q-148 0 -273.5 -48t-214.5 -128q-87 -81 -155 -203t-104.5 -246t-54.5 -232t-18 -189zM393 334q0 56 17 130.5t50.5 153.5t96 133t141.5 54q77 0 117.5 -57.5t40.5 -161.5q0 -83 -35.5 -210t-97.5 -190q-88 -65 -166 -65 q-79 0 -121.5 56t-42.5 157z" />
<glyph unicode="7" d="M188 96q-22 -29 6.5 -60.5t75.5 -31.5h39q71 0 128 26t81 74q159 316 404 703q47 74 299 450q12 18 39.5 61.5t37.5 59.5q12 23 -18.5 51t-71.5 29q-137 -10 -278 -10h-127q-24 0 -63.5 1t-55.5 1h-139q-69 0 -131 4q-63 -2 -114.5 -30.5t-57.5 -71.5q-3 -35 -9 -66 q0 -4 -1 -6q-1 -1 -1 -2q2 -34 42.5 -53.5t84.5 -1.5q3 2 6 3t7 1.5t6 1.5q36 10 117 14h471l-555 -827q-140 -211 -222 -320z" />
<glyph unicode="8" d="M66 299q0 -67 25.5 -123.5t79 -102.5t146.5 -72t218 -26q101 0 186.5 20.5t146.5 54.5t109 80t78 94t49.5 99.5t27 94t7.5 80.5q0 41 -10.5 76.5t-25.5 60.5t-40 47t-45 34.5t-50.5 25t-46 17.5t-42.5 13l8 -2l-8 4q162 49 239 146q39 61 65.5 137t26.5 131 q0 103 -84 196q-101 97 -335 97q-254 0 -383 -101q-67 -54 -110.5 -126t-57 -124.5t-13.5 -95.5q0 -90 52 -164q47 -63 174 -100q-155 -32 -248 -125q-43 -43 -72.5 -95t-43 -100t-18.5 -84t-5 -67zM375 317q0 79 30 172.5t93 141.5q74 55 164 55q80 0 122.5 -49t42.5 -141 q0 -74 -20.5 -150.5t-54.5 -122.5q-82 -110 -203 -110q-86 0 -130 52t-44 152zM528 1026q0 131 56 217q22 31 41 52t59.5 42t87.5 21q14 0 27 -2t33.5 -11t35.5 -25t26 -47.5t11 -74.5q0 -97 -28 -182t-64 -121q-59 -59 -127 -59q-67 0 -112.5 45t-45.5 145z" />
<glyph unicode="9" d="M63 90q0 -24 20.5 -46.5t59.5 -37.5q91 -31 219 -31q182 0 328.5 61t233.5 154q48 52 87.5 115.5t61.5 110t44 117t28 94t20 84.5q39 216 39 311q0 86 -16 155.5t-42 115.5t-64 80t-75 52t-84 28.5t-81.5 13.5t-75.5 3q-138 0 -249.5 -42.5t-181 -109.5t-117 -154 t-66.5 -171.5t-19 -167.5q0 -79 24 -142t61.5 -101.5t88 -64t99.5 -35t100 -9.5q67 0 143 20t133 54q15 10 54 49q-56 -238 -127 -320q-40 -49 -81 -81t-78.5 -44t-59 -15t-48.5 -3q-108 0 -178 45q-49 17 -76 17q-86 0 -106 -45q-19 -32 -19 -60zM451 858q0 87 26 192.5 t84 172.5q84 96 180 96q73 0 138 -68h-2q26 -35 26 -143q0 -111 -34.5 -225t-92.5 -170q-70 -70 -178 -70q-147 0 -147 215z" />
<glyph unicode=":" horiz-adv-x="555" d="M78 92q0 -57 44.5 -83.5t100.5 -26.5q74 0 131.5 50t57.5 111q0 48 -39.5 78.5t-102.5 30.5q-68 0 -130 -46.5t-62 -113.5zM233 967q0 -37 25 -63.5t57 -37t66 -10.5q74 0 130 49.5t56 110.5q0 49 -38.5 79.5t-100.5 30.5q-69 0 -132 -46.5t-63 -112.5z" />
<glyph unicode=";" horiz-adv-x="555" d="M-35.5 -219q5.5 -19 23.5 -29h-2q26 -19 61 -17.5t53 25.5q113 130 180 229t101 195q12 38 -28 65.5t-93 18.5q-58 -11 -95.5 -45.5t-47.5 -77.5q-19 -74 -25 -92q-58 -165 -123 -241q-10 -12 -4.5 -31zM217 958q0 -55 46.5 -81.5t101.5 -26.5q73 0 129.5 49t56.5 111 q0 48 -38.5 79t-100.5 31q-68 0 -131.5 -47.5t-63.5 -114.5z" />
<glyph unicode="&#x3c;" horiz-adv-x="1406" d="M23 723q-6 -36 15.5 -71t63.5 -58q99 -50 287 -147t260 -134q506 -256 553 -280q44 -20 91.5 -3.5t56.5 56.5q6 36 -15 70.5t-61 58.5q-328 172 -494 258q-251 130 -485 250l1153 506q52 23 86.5 59t40.5 72q5 41 -36 59t-93 -4q-593 -256 -647 -280q-270 -118 -649 -283 q-49 -22 -84 -57.5t-43 -71.5z" />
<glyph unicode="=" horiz-adv-x="1370" d="M113 414q-5 -36 25 -60t81 -24h957q52 0 89.5 24t43.5 60q6 34 -23.5 59t-81.5 25h-958q-46 0 -86.5 -25.5t-46.5 -58.5zM178 780q-6 -35 25.5 -59.5t79.5 -24.5h958q51 0 89 24.5t44 59.5q6 34 -25.5 59t-78.5 25h-959q-50 0 -88.5 -25t-44.5 -59z" />
<glyph unicode="&#x3e;" horiz-adv-x="1519" d="M4 86q-6 -42 35 -58.5t94 5.5l1297 561q49 22 83.5 57.5t42.5 71.5t-14 71t-67 58h2l-1098 563q-44 22 -92.5 4t-57.5 -59q-6 -38 14.5 -73t63.5 -58q74 -37 156 -80t182 -95t156 -81l483 -250q-372 -164 -571 -250q-97 -44 -300 -133t-282 -125q-48 -23 -84 -58.5 t-43 -70.5z" />
<glyph unicode="?" horiz-adv-x="894" d="M68 94q0 -57 45.5 -83.5t101.5 -26.5q74 0 130 50t56 111q0 47 -39 78t-100 31q-68 0 -131 -46.5t-63 -113.5zM150 471q-6 -39 33 -66.5t93 -29.5q57 -1 98 27t52 71v-2q14 48 44 74.5t81 46.5l104 35q50 21 82 38.5t73.5 48.5t72 76t51.5 105q43 123 43 221 q0 56 -13 104t-45.5 94t-82.5 78.5t-129 52t-181 19.5q-65 0 -155 -12q-57 -9 -90 -42.5t-33 -76.5q0 -37 43 -54.5t90 -2.5q64 22 123 22q85 0 139 -45q43 -37 43 -149q0 -68 -15 -138t-40 -110q-64 -89 -201 -137q-106 -32 -151.5 -54.5t-73.5 -64.5q-47 -74 -55 -129z " />
<glyph unicode="@" horiz-adv-x="1835" d="M152 481q0 193 75.5 369.5t203 304t304.5 203.5t371 76q281 0 450.5 -154t169.5 -410q0 -176 -69 -339.5t-182.5 -263t-235.5 -99.5q-69 0 -92 14h2q-104 56 -115 125q-59 -79 -125 -125.5t-151 -46.5q-73 0 -134.5 28.5t-103 92.5t-41.5 154q0 36 13.5 96t42.5 142 t89.5 171t141.5 154q122 92 293 92q75 0 172 -33q2 1 5 2t5 2q3 1 8 2t8 2q49 15 87.5 -10.5t27.5 -64.5v2q-34 -149 -78 -381q0 -1 -1 -5t-1 -6q0 -6 -4 -14l2 2q-28 -140 -28 -203q-10 -114 22 -114q42 0 93 50.5t95.5 132t74.5 199t30 236.5q0 107 -29 194t-77 143 t-112 93.5t-130 53.5t-135 16q-212 0 -395.5 -120t-291.5 -323.5t-108 -437.5q0 -129 36.5 -236.5t98.5 -181.5t145.5 -125t175.5 -74.5t191 -23.5q129 0 255.5 42.5t213 97.5t162.5 124q11 11 53 11l47 -11q5 -10 2 -25t-12 -24q-49 -49 -141 -110q-254 -174 -578 -174 q-67 0 -137.5 9.5t-150 33t-151 59t-137.5 92.5t-114.5 128t-77 170.5t-28.5 215.5zM725 471q0 -192 104 -192q34 0 76 28t82 80q54 88 100 320l39 229h4q-61 18 -100 18q-69 0 -124.5 -38t-88 -93.5t-54.5 -124.5t-30 -125.5t-8 -101.5z" />
<glyph unicode="A" horiz-adv-x="1236" d="M-76 102q-6 -11 -6 -22q0 -20 20 -40q31 -30 76 -30q11 0 19 -2h4q61 0 109 28q50 30 69 77q20 51 57 127q9 18 26 53.5t21 44.5l46 94h430q5 -70 6 -96q1 -13 3 -43.5t3 -42.5q5 -77 6 -84q4 -46 4 -60q1 -42 43 -70q40 -26 95 -26h8h22l6 -2h3q59 0 99 33q36 30 36 67 q0 5 -1 11q-6 38 -14 100q-1 3 -2 14t-2 15q-6 40 -12 100l-80 719q0 4 -1 11.5t-1 11.5q-1 5 -2 17t-2 17q0 5 -1 15.5t-1 15.5q-9 89 -15 174q-4 48 -54 77.5t-116 29.5q-29 0 -43 2h-9q-62 0 -117 -25q-59 -27 -83 -72q-205 -420 -409 -800l-49 -90q-99 -193 -191 -349z M436 588l185 356q8 19 22 45q5 10 20.5 37.5t24.5 44.5q23 43 35 64q1 1 2 3t2 3v-2q4 -61 14 -142q3 -33 10.5 -100.5t10.5 -103.5q3 -34 8 -102.5t8 -102.5q-47 -2 -125 -2q-94 0 -217 2z" />
<glyph unicode="B" d="M18 113q-1 -8 -1 -15q1 -36 31 -66q38 -36 93 -36h27q41 0 115 -4h12q90 -4 162 -4q76 0 143 8.5t114 20t90.5 31.5t68.5 34.5t52 38.5t36 34t26 29q105 130 105 262q0 244 -326 302q124 16 215 73q98 64 150.5 158t52.5 184q0 98 -68 189q-54 64 -145.5 83t-225.5 19 q-49 0 -131 -4q-10 0 -31.5 -1t-31.5 -1q-110 -4 -148 -4h-28h-3q-55 0 -90 -34q-34 -33 -34 -74q0 -92 -27 -230l-155 -776q-5 -20 -5 -29q-6 -31 -43 -188zM330 211q0 29 14 100l70 346q96 2 157 2q18 0 29 -0.5t36 -4t42 -10.5t38.5 -22t35 -35.5t23 -53.5t9.5 -74 q0 -38 -7 -76.5t-29.5 -85t-58 -81.5t-97.5 -59t-143 -24q-63 0 -91 14t-28 64zM446 825l93 480q4 2 12 2q75 10 131 10q30 0 54 -3t53.5 -14t49 -30.5t33 -55t13.5 -84.5q0 -50 -16.5 -101t-53 -97.5t-86.5 -69.5q-62 -26 -123 -33q-64 -6 -117 -6q-6 0 -18.5 1t-17.5 1h-7 z" />
<glyph unicode="C" d="M76 545q0 -199 92 -350q145 -224 541 -224q83 0 194 13q72 10 122 47.5t73 91.5q12 31 -27 47q-20 8 -42 9q-20 0 -40 -7q-8 -4 -33 -14q-97 -37 -188 -37q-194 0 -287.5 117.5t-93.5 320.5q0 105 19 208.5t62.5 204.5t106.5 177.5t160 124t215 47.5q101 0 162 -33 q41 -18 76 -18q38 0 67 15.5t41 43.5q6 14 6 29q0 24 -16 48q-26 38 -76 50q-112 23 -200 23q-153 0 -284 -32t-225 -86.5t-168.5 -130.5t-122 -159t-78.5 -176.5t-43.5 -179t-12.5 -170.5z" />
<glyph unicode="D" horiz-adv-x="1374" d="M20 109q-3 -10 -3 -20q-1 -30 27 -55q34 -32 85 -32h6q2 0 6 1t6 1h11q25 2 61 2q35 0 141 -4q57 -2 132 -2q567 0 784 498q44 106 72 226t28 220q0 101 -37 205q-113 299 -557 299q-27 0 -145 -4q-57 -2 -133 -2q-45 0 -123 4h-3q-61 0 -99 -36q-37 -35 -37 -80v-28 q0 -105 -31 -272q-7 -40 -26 -140t-29 -155q-28 -139 -58 -297q-45 -235 -78 -329zM348 215q0 28 14 107q10 48 36 187t40 206q16 81 76 393q18 106 39 192q8 0 14 3h-2q2 0 5.5 1t4.5 1q35 6 78 6q102 0 175 -19.5t128.5 -64.5t83 -123.5t27.5 -192.5q0 -140 -43.5 -288 t-87.5 -230q-152 -260 -436 -260q-93 0 -122.5 13t-29.5 69z" />
<glyph unicode="E" horiz-adv-x="1024" d="M25 113q-4 -12 -4 -24q1 -29 23 -55q31 -36 84 -36h3q221 0 307 2q16 0 47 -1t45 -1h215h4q64 0 113 31q51 32 66 82q2 7 2 13q0 26 -29 42q-23 13 -52 14q-15 0 -32 -4q-6 0 -14 -4q-3 -1 -14 -2l-7 -2h2q-2 0 -6.5 -1t-5.5 -1q-107 -19 -268 -19q-102 0 -133 10t-31 58 q0 35 12 96l70 377q8 0 36 1t46 1q40 0 94 -4q61 0 116 23t62 63q1 5 1 10q0 30 -35 49q-36 19 -84 19h-13q-46 -4 -90 -4h-23q-4 0 -12 -1t-12 -1h-55q6 32 21.5 106.5t23.5 116.5q5 26 13 71.5t15 82.5t13 69q2 0 6 1t6 1q110 4 219 4t182 -10q14 -2 27 -2q38 0 70 16 q43 20 51 56v7q0 28 -30 52q-34 27 -77 29q-180 -4 -317 -4q-201 0 -285 2q-59 -3 -104.5 -38.5t-48.5 -82.5q-6 -139 -82 -557l-58 -313q-39 -219 -73 -338z" />
<glyph unicode="F" horiz-adv-x="980" d="M27 113q-3 -10 -3 -20q0 -29 26 -55q35 -34 89 -34h37q61 0 106 33.5t50 81.5q8 70 22 147l72 406h170q118 0 172 -10q17 -3 33 -3q44 1 81 21q50 28 62 76q3 36 -40 63q-35 22 -75 22q-9 0 -18 -1h-6q-1 0 -5.5 -1t-6.5 -1q-46 -6 -50 -7q-68 -8 -163 -8q-64 0 -107 2 h-18q0 9 3 25.5t3 19.5q1 9 4 24t4 21q48 264 76 365q166 6 221 6q98 0 164 -14q19 -3 37 -3q37 0 73 13q52 19 62 59q1 5 1 11q0 32 -31 62q-36 36 -85 36q-57 -4 -123 -6h-35q-14 0 -59.5 -1t-73.5 -1q-90 -2 -219 -2h-94h-3q-57 0 -94 -34q-38 -34 -38 -81 q-4 -110 -37 -276l-135 -723q-23 -141 -49 -213z" />
<glyph unicode="G" horiz-adv-x="1337" d="M70 526q0 -271 142 -408.5t394 -142.5h19q127 0 284 25h-2q25 3 72 6q64 6 107 43t51 86q3 10 6 31l6 29q1 4 2 12t2 12q8 44 21 103q9 39 20 100q12 62 35 139q2 9 2 17q0 32 -30 60q-38 34 -95 36q-29 0 -43 2h-4q-54 0 -95 -30q-41 -31 -44 -73q-8 -67 -25 -145 q-6 -26 -15.5 -76t-13.5 -69q-6 -28 -17.5 -80t-14.5 -68q-82 -22 -146 -22q-52 0 -93 16.5t-63.5 35t-60.5 58.5h2q-36 41 -56.5 110.5t-25 117t-4.5 92.5q0 275 119 477q35 62 73.5 111.5t70 80t67 53t60 33t54 16.5t43 6.5t33.5 0.5q138 0 230 -66q32 -16 77 -16 q86 0 107 43q11 19 11 40q0 20 -10 40q-20 44 -67 63q-70 26 -186 37q-71 8 -147 8q-105 0 -191.5 -17.5t-156.5 -53.5t-122 -75.5t-110 -96.5q-125 -126 -198.5 -311t-73.5 -390z" />
<glyph unicode="H" horiz-adv-x="1366" d="M29 119q-3 -11 -3 -21q0 -30 28 -56q35 -33 87 -32h6h17q66 0 115 34t55 85q12 94 33 211q5 30 15 88.5t15 87.5q11 62 27 170q152 4 244 4q153 0 313 -4h14l-75 -379q-26 -136 -43 -190q-3 -11 -3 -21q0 -28 23 -52q31 -33 81 -32h3h39h4q60 0 102 31q44 32 50 78 q7 73 26 178q56 312 164 885l-2 -2q1 2 2 9.5t2 10.5q6 9 6 17q2 10 8.5 33t8.5 34l16 64q2 7 2 14q1 28 -29 52q-36 30 -94 30q-6 -2 -10 -2q-1 0 -5 1t-5 1q-60 -3 -105.5 -37t-50.5 -78v-16q-9 -44 -10 -49q-7 -37 -21 -118.5t-16 -92.5q-7 -40 -21 -116.5t-16 -86.5 q-70 -4 -227 -4q-227 0 -342 4l57 285q0 18 6 30q1 7 4 18t4 15q15 85 29 137q3 9 3 18q0 29 -28 55q-36 34 -92 34q-6 -2 -10 -2t-7 1l-3 1h-10h-4q-59 0 -100 -31q-43 -32 -48 -78q-3 -41 -16 -114q-15 -77 -41.5 -225t-38.5 -212q-17 -85 -46.5 -245.5t-35.5 -192.5 q-10 -50 -12 -59q-22 -123 -39 -168z" />
<glyph unicode="I" horiz-adv-x="512" d="M20 113q-3 -10 -3 -19q-1 -30 27 -56q34 -32 88 -32h3h37q63 0 108 32.5t50 80.5q10 87 37 229q21 114 65 357t64 356q43 213 61 274q3 9 2 19q-1 30 -27 56q-35 34 -85 34h-3h-45h-3q-58 0 -96 -34q-40 -35 -44 -83q-13 -115 -39 -240l-139 -739q-1 -4 -2 -11t-2 -11 l-6 -25q-1 -6 -4.5 -18.5t-4.5 -18.5q-22 -94 -39 -151z" />
<glyph unicode="J" horiz-adv-x="724" d="M-86 98q-6 -13 -6 -26q0 -22 18 -46q30 -36 78 -44q35 -5 59 -5q253 0 375 119q38 39 64 81.5t46.5 105t32 111t31.5 147.5q7 41 25.5 132t26.5 138q8 43 24.5 133t24.5 133q33 172 57 252q3 10 3 19q0 30 -25 56q-33 34 -86 34h-3h-38h-4q-57 0 -97 -30q-42 -31 -47 -77 q-7 -61 -33 -201l-86 -460q-16 -82 -28 -137.5t-29.5 -119.5t-36 -105t-42 -76.5t-52.5 -52.5t-64 -17l-4 2q-16 2 -32 2q-45 0 -83 -13q-52 -17 -69 -55z" />
<glyph unicode="K" horiz-adv-x="1236" d="M29 113q36 105 51 213l139 755q30 154 37 250q5 46 50 78.5t106 32.5h41h3q50 0 78 -34q21 -26 22 -54q0 -10 -3 -21q-19 -79 -51 -229q-7 -42 -20.5 -115t-16.5 -92q-7 -37 -17 -90t-16 -86q151 123 295 270q134 128 205 285q8 14 16 49q0 1 1 4.5t1 5.5q13 48 57 79 q43 30 105 30h4h53h8q49 0 83 -34q25 -24 24 -49q0 -13 -6 -26q-27 -63 -102 -161q-60 -78 -162.5 -181t-178.5 -173t-77 -72l4 2q6 -55 25.5 -111t33 -81.5t51.5 -94.5q2 -4 7.5 -11.5t7.5 -11.5q17 -33 26 -45q46 -84 114 -169.5t134 -149.5q20 -20 -1.5 -45t-57.5 -25 q-14 2 -41 2q-169 0 -227 76q-78 89 -152 199q-123 181 -160 288l-147 -125h6q-5 -45 -16 -112q-3 -19 -9.5 -55t-9.5 -54q-2 -9 -8 -51q-1 -6 -2 -17t-2 -16q0 -2 -1 -6t-1 -6q0 -8 -4 -16l2 2q-8 -47 -55 -78t-113 -31h-19h-6q-50 0 -84 32q-27 26 -27 55q0 10 3 20z" />
<glyph unicode="L" horiz-adv-x="937" d="M23 106q-2 -8 -2 -16q0 -29 29 -53q37 -31 89 -33q82 4 156 4q151 0 405 -8q63 2 115.5 33.5t65.5 77.5h-2q4 12 6 16q1 5 1 9q0 28 -34 44q-22 11 -45 11q-18 0 -37 -7q-93 -28 -229 -28q-90 0 -158 4q-35 3 -35 59q0 30 14 109q8 46 30.5 163t33.5 183q25 145 61 346 q40 207 74 328q1 6 1 13q0 29 -30 53q-36 29 -87 28h-3h-36h-4q-60 0 -100 -32q-42 -32 -46 -79q-6 -74 -31 -211l-125 -682q-53 -265 -77 -332z" />
<glyph unicode="M" horiz-adv-x="1675" d="M-16 109q-3 -10 -3 -20q0 -27 23 -51q31 -33 79 -32h3h20q66 0 117.5 31.5t55.5 79.5q8 73 38 260q17 81 49.5 246.5t49.5 246.5l33 160q2 -10 5 -30t5 -29q31 -160 55 -289q35 -189 55 -289q8 -53 16 -104t12 -78t7 -45q3 -28 35 -48t74 -20q51 0 89.5 17.5t51.5 48.5 l27 51q7 15 20 37.5t19 34.5q18 30 22 37q19 30 39 69q43 75 123.5 213l101.5 174q91 158 166 287l-141 -729q-30 -155 -51 -225q-3 -10 -3 -20q0 -29 23 -53q30 -33 81 -32h3h53h4q59 0 101 30q44 31 45 77v18q0 2 1 6t1 6v13q16 167 143 831q53 273 82 352q3 9 3 18 q0 26 -25 50q-32 31 -83 31h-3h-105h-10q-67 0 -120 -24q-57 -26 -81 -75q-61 -126 -127 -233l-248 -426q-11 -14 -26 -45l-4 -6q-41 -70 -45 -80q-3 -4 -10 -14t-13 -19q-8 50 -20 115t-19 104q-10 56 -28.5 160.5t-20.5 114.5q-38 233 -45 313q-6 53 -56 85 q-47 31 -110 30h-8q-18 -2 -57 -2q-36 0 -52 2h-4q-58 0 -100 -29q-43 -30 -43 -74q-4 -145 -80 -503q-7 -35 -44.5 -190.5t-63.5 -250.5q-59 -219 -82 -284zM885 631q0 2 4 6l4 8l22 37q-1 1 -5.5 -5t-9 -14.5l-9 -17t-6.5 -14.5z" />
<glyph unicode="N" horiz-adv-x="1366" d="M-2 113q-3 -9 -3 -18q-1 -29 27 -53q36 -32 91 -32h18h11q56 0 99 29q47 32 50 78q7 116 51 381q30 184 31 192q55 349 65 412q16 -48 28.5 -79.5t18 -44t20 -41t23.5 -46.5l21 -49q11 -25 31.5 -70t37 -82.5t31.5 -71.5q17 -38 99 -223q110 -251 129 -307 q13 -35 59 -58.5t102 -25.5h4q55 0 93 28q40 28 45 70q0 15 2 25q0 1 1 3t1 3q10 102 43 273q1 4 3 13t3 13q4 15 8 49q26 137 45 230q11 54 45 227q2 10 6 29.5t6 29.5q53 235 89 338q4 11 4 22q0 27 -24 51q-34 34 -87 34h-10q-61 0 -105 -33.5t-49 -81.5q-7 -73 -28 -188 l-76 -416l-6 -37q-17 -112 -39 -242v-4q-9 23 -34.5 81.5t-39.5 92.5l-233 537q-60 133 -74 174h2q-14 52 -64 85q-49 32 -114 32h-4h-89q-61 0 -99 -35t-38 -82q0 -133 -47 -387q-122 -660 -180 -825z" />
<glyph unicode="O" horiz-adv-x="1492" d="M66 524q0 -99 34 -200t101 -179q80 -88 201 -129t245 -41q129 0 242.5 36.5t198 98.5t154.5 145t116.5 173.5t78.5 186.5t46 182.5t14 163.5q0 244 -144 376.5t-421 132.5q-270 0 -469 -141q-98 -71 -173.5 -165.5t-116.5 -181t-66.5 -181t-33 -158.5t-7.5 -119zM371 520 q0 81 13 168.5t39.5 179t71 172.5t102 145.5t138 102t174.5 37.5l178 -59q103 -89 103 -320q0 -78 -12.5 -164.5t-37 -181.5t-68 -180.5t-100 -154.5t-137.5 -109.5t-176 -40.5q-65 2 -130.5 36t-106.5 105q-27 46 -39 123.5t-12 140.5z" />
<glyph unicode="P" horiz-adv-x="1110" d="M20 117q-3 -10 -3 -20q1 -31 27 -57q34 -34 89 -34h35q64 0 109 34t53 83q2 17 6 49l-2 -2q4 8 4 12q0 2 1 6.5t1 6.5q11 58 32.5 181.5t33.5 188.5h92q134 0 243 26.5t179 67t123 97t80 108t43.5 109t20 91t3.5 62.5q0 326 -436 326q-41 0 -127 -4h-19q-122 -4 -178 -4 h-33h-3q-60 0 -97 -34q-38 -34 -43 -83q-12 -109 -45 -287l-113 -608q-1 -4 -3 -13t-3 -13q-36 -188 -70 -289zM428 723l59 315q2 10 13 54q1 5 3 14t3 14q0 2 1 5t1 5q23 113 39 181q6 0 12 2h19q8 0 20 1t16 1h23q31 0 50 -1t53 -6t56 -18t45 -34t34.5 -57.5t11.5 -84.5 q0 -36 -7.5 -79t-25 -96t-53.5 -100t-86 -73h2q-101 -43 -252 -43h-37z" />
<glyph unicode="Q" horiz-adv-x="1492" d="M68 522q0 43 7 96t22.5 124t46 146.5t72 152t107 151.5t144.5 135q199 141 467 141q277 0 421 -133t144 -377q0 -163 -65.5 -362t-194.5 -356q-152 -172 -201 -471v-13q0 -3 -1 -7.5t-1 -6.5q-1 -23 -3 -35.5t-12 -32t-28 -32.5q-27 -18 -47.5 -21.5t-36 8.5t-24 23.5 t-20.5 31.5q-3 6 -5 9v4q-2 2 -6.5 7.5t-5.5 6.5q-45 78 -45 142q0 55 24 139q-84 -19 -176 -19q-129 0 -248.5 39.5t-199.5 130.5q-135 153 -135 379zM375 518q0 -63 12 -139.5t39 -124.5q40 -71 105.5 -106t130.5 -35q96 0 204 63q86 52 151.5 144.5t102 201.5t54.5 215.5 t18 206.5q0 234 -90 313l2 -2q-80 68 -193 68q-90 0 -177 -43t-152 -119q-101 -116 -154 -298t-53 -345z" />
<glyph unicode="R" horiz-adv-x="1193" d="M25 111q-2 -8 -2 -16q0 -31 30 -57q38 -34 94 -34l15 2q5 0 8 -1l4 -1q60 0 105 35t53 82q2 6 2 16q0 1 1 4.5t1 5.5v9q4 23 17.5 101t21.5 122q27 148 37 219h112q25 -149 103 -307q60 -120 116 -199q29 -43 89 -64.5t131 -21.5q3 0 8.5 -1t7.5 -1h35h2q38 0 58 31 q20 32 -3 57q-243 261 -268 545q171 48 266 143q49 49 83 102.5t47.5 100.5t18.5 76t5 53q0 74 -36.5 148.5t-119.5 128.5q-95 57 -313 57h-29q-5 0 -21 -1t-24 -1q-101 0 -152 -2h-127h-3q-58 0 -96 -34q-40 -34 -44 -81q-8 -83 -27 -182q-77 -415 -90 -483 q-8 -44 -23 -122.5t-20 -107.5q-54 -267 -73 -321zM440 754l47 258q32 161 62 284q121 11 133 11q227 0 227 -213q0 -49 -14.5 -103t-56.5 -113t-105 -85q-89 -41 -229 -41q-7 0 -21.5 1t-21.5 1h-21z" />
<glyph unicode="S" horiz-adv-x="1067" d="M8 135q-5 -16 -5 -31q-1 -28 15 -56q24 -44 78 -56q94 -23 189 -23q259 0 434 105q39 25 78.5 59.5t85.5 86t75 117t29 132.5q0 42 -15.5 81t-36.5 66.5t-58.5 58.5t-66 49t-75.5 46l-119 70q-39 22 -57.5 34.5t-47 39.5t-41.5 62t-13 81q0 29 8.5 61.5t30.5 68.5t54 65 t83.5 48t114.5 19q103 0 176 -41q35 -14 77 -14q84 0 95 53v-2q3 13 3 25q0 31 -19 60q-27 41 -83 52q-103 21 -198 21q-124 0 -229.5 -28.5t-177.5 -75.5t-123 -108t-75 -125t-24 -128q0 -43 14.5 -82.5t32.5 -66t54.5 -58t58 -46.5t65.5 -44l117 -70q102 -58 142 -101.5 t40 -121.5q0 -128 -93.5 -205.5t-231.5 -77.5q-81 0 -160 27l-4 4q-49 22 -94 22q-86 0 -103 -53zM201 164l6 -2q-4 0 -6 2z" />
<glyph unicode="T" d="M135 1356v2q-2 -8 -2 -16q0 -28 32 -50q28 -18 60 -18q16 0 33 4q66 18 191 18h133q0 -10 -4 -14q-1 -4 -2.5 -14.5t-2.5 -14.5q-3 -22 -16 -101t-22 -140q-2 -12 -7.5 -37t-7.5 -39l-92 -500q-46 -229 -78 -327q-3 -10 -3 -19q0 -29 31 -53q39 -29 90 -29h7h29 q60 0 107 30t51 75q11 105 45 293q8 44 23.5 130t23.5 130q5 26 22 116t25 138v12l-2 -2q6 18 6 22q47 240 74 344h194q57 0 80 -4q14 -1 28 -1q43 -1 79 11q48 16 55 54q1 6 1 12q0 32 -32 56q-35 28 -85 28h-7q-18 -2 -64 -2h-26q-5 0 -17 -1t-18 -1h-674q-55 0 -78 2h-9 q-60 0 -108 -24q-52 -26 -63 -70z" />
<glyph unicode="U" horiz-adv-x="1366" d="M86 293q0 -127 119 -223q59 -45 156.5 -70t205.5 -25q247 0 385 72q167 85 224 234q33 89 79 327q9 48 27 145.5t27 145.5q38 201 53 291q23 109 35 149q3 10 3 20q0 27 -26 53q-34 34 -88 34q-59 0 -104.5 -31t-48.5 -76q-6 -55 -25 -161l-102 -555q-40 -202 -66.5 -283 t-67.5 -115q-95 -78 -243 -78q-56 0 -123 28t-98 79q-25 43 -25 123q0 64 14 143l6 35q40 222 64 342q3 15 63 342q8 39 21 86v10q0 1 1 3t1 3l-2 -2q3 10 3 19q0 28 -24 52q-32 32 -84 32h-43q-61 0 -101.5 -34.5t-45.5 -82.5q0 -5 -1 -9l-1 -3q0 -13 -4 -21 q-62 -370 -74 -436q-5 -28 -34 -193.5t-44 -246.5q-12 -82 -12 -123z" />
<glyph unicode="V" horiz-adv-x="1280" d="M154 1339q31 -107 55 -266l102 -676q21 -141 29 -209q1 -8 3 -26.5t3 -26.5q0 -1 1 -4.5t1 -5.5v-10q4 -48 56 -78.5t118 -30.5h15q67 0 123.5 29t80.5 78q17 35 45 89t56 106l80.5 149.5t93.5 173.5q22 42 71 130t72 130l141 256q87 160 117 201q9 12 9 25q0 16 -14 34 q-26 31 -69 31h-12q-31 0 -47 2h-4q-65 0 -116 -30q-52 -32 -70 -83q-44 -134 -117 -276q-65 -137 -92 -185q-19 -36 -54 -103.5t-43 -82.5q-6 -11 -41.5 -80t-54.5 -104q-19 -36 -51.5 -102t-40.5 -81l-94 734q-27 189 -27 286q1 45 -41 77q-40 31 -96 30h-10 q-18 -2 -45 -2h-23h-6q-48 0 -80 -30q-27 -24 -26 -52q0 -8 2 -17z" />
<glyph unicode="W" horiz-adv-x="1849" d="M154 1339q-1 5 -1 11q1 35 35 62q37 30 88 30h7h39h3q57 0 99 -32q40 -31 39 -73v-6q-2 -25 -2 -86q0 -55 2 -88l26 -571q0 -17 11 -178q0 -14 4 -64q78 180 121 268q75 162 155 340q72 164 117 295q14 47 70 72t129 27h4q60 0 100 -28q41 -30 39 -75v-31q0 -6 -1 -18.5 t-1 -19.5q0 -62 10 -244q6 -64 13 -178t10 -154q3 -37 6.5 -81t6.5 -83.5t7 -93.5q2 4 5 14.5t5 14.5q155 362 241.5 582t129.5 386q13 47 64 75q48 26 109 26h9h25q17 0 27 2q49 0 79 -30q18 -19 18 -37q0 -11 -7 -23q-20 -35 -82 -162q-1 -2 -9 -17.5t-12 -23.5 q-63 -145 -166 -367q-35 -77 -97 -215t-68 -151q-2 -4 -5.5 -12.5t-5.5 -12.5q-61 -139 -88 -209l-12 -30q-4 -11 -14 -39q-18 -51 -74 -80q-53 -27 -118 -27h-9l-3 1q-4 1 -9 1h-39q-2 0 -5 -1t-5 -1q-59 2 -106.5 33t-47.5 74q0 107 -10 258q-2 29 -6.5 86t-6.5 86 q-9 133 -12 174t-8 127q-5 -11 -17 -36.5t-20 -41.5q-4 -10 -10 -21.5t-13 -25t-10 -19.5q-8 -20 -28 -65q-7 -14 -13 -23h2q-101 -198 -170 -366q-1 -1 -3 -8t-3 -9l-49 -121q-19 -48 -77 -76q-54 -26 -120 -26h-10q-8 2 -14 2h-29q-2 0 -5 -1t-5 -1q-60 1 -106 37t-46 80 q1 17 1 39q0 51 -5 129l-45 770q0 4 -1 11.5t-1 10.5q-15 210 -26 258zM467 289h10q19 37 23 49q-17 108 -25 108t-8 -157z" />
<glyph unicode="X" horiz-adv-x="1236" d="M-49.5 32q21.5 -28 59.5 -28h49q66 0 127.5 25t94.5 67q58 74 104 129q15 18 27 33q14 16 110 139q13 16 42 55.5t46 59.5q27 -55 41 -86q35 -77 51 -113q62 -134 86 -200q19 -49 72 -79q50 -28 113 -28h8h49q51 0 86 30q23 20 23 42q0 11 -6 22l-7 13q-2 3 -6 11t-6 11 q-10 20 -26 51l-17 31q-19 34 -33.5 61.5t-24.5 49t-14 28.5l-12 25q-53 111 -90 182q-77 158 -90 185q72 88 231 266q202 228 240 270q50 56 78 84q20 20 -4 46t-61 26h-3q-12 -2 -24 -2h-25h-9q-58 0 -112 -23q-58 -25 -88 -67q-63 -87 -127 -164l-192 -242 q-19 44 -54 120t-55 120l2 -2q0 1 -1 3t-1 3l-8 8h4q-3 8 -10 24.5t-10 24.5q-22 47 -25 57q-25 66 -73 106q-44 37 -100 36h-11q-20 -2 -56 -2h-28h-6q-43 0 -70 -29q-18 -19 -18 -38q0 -13 8 -25q43 -70 84 -156q37 -76 116 -242q20 -39 58 -119.5t57 -119.5 q-52 -65 -156 -181q-101 -117 -161 -188q-126 -145 -246 -260q-22 -22 -0.5 -50z" />
<glyph unicode="Y" horiz-adv-x="1110" d="M96 51q0 -19 19 -31t55 -12h51h10q51 0 109 28q64 31 102 75q27 40 77 113t65 95q27 41 79 116t64 93l465 680q89 126 113 156q20 24 -8 51t-68 27h-60q-62 0 -115.5 -28t-76.5 -73q-66 -132 -246 -417q-4 -6 -16 -25.5t-19 -28.5q-6 -10 -22.5 -33.5t-24.5 -37.5 l-125 413q-20 74 -30 121q-9 46 -54 79q-45 32 -102 32h-4q-14 -2 -37 -2t-37 2h-3q-50 0 -80 -34q-20 -23 -20 -47q0 -12 5 -24q11 -33 43 -112q3 -9 31 -86q4 -7 8.5 -25t5.5 -20q15 -46 44 -139.5t44 -139.5q54 -163 90 -278q-70 -153 -149 -256q-45 -64 -54 -70 q-2 -2 -13 -12.5t-13 -12.5q-74 -78 -74 -82h2q-31 -42 -31 -55zM623 760h2h-2z" />
<glyph unicode="Z" horiz-adv-x="1110" d="M-51 98q-8 -12 -8 -26q0 -17 13 -35q24 -33 64 -35q159 6 344 6q230 0 476 -8h3q65 0 119 36q56 38 76 95q6 13 8 19h-4l9 10q0 1 1 3t1 3l-2 -2q12 28 -25 46q-20 9 -42 10q-19 0 -38 -7q-55 -23 -113 -31q-109 -16 -253 -16q-87 0 -133 5t-56 11t-10 17q0 30 37 86 q248 364 653 905q28 38 117 149q11 14 11 29q1 17 -13 36q-26 36 -70 38q-230 -4 -369 -4q-239 0 -438 4q-65 -2 -116 -37t-60 -84q-1 -5 -1 -9q0 -32 40 -50q26 -12 55 -13q20 0 41 6q53 17 115.5 21t196.5 4h221q-65 -111 -186.5 -286t-180.5 -253q-238 -340 -483 -643z " />
<glyph unicode="[" horiz-adv-x="727" d="M100 -264q21 67 74 303l232 1178q5 35 8 47q0 2 1 6t1 6q8 49 22 147q6 50 51.5 85.5t108.5 35.5h215q29 0 51 -13t19 -28q-3 -18 -27 -29.5t-59 -11.5h-123q-91 -470 -172 -882q-33 -168 -94 -471.5t-82 -411.5h120q29 0 51 -13t19 -28q-3 -18 -27.5 -29.5t-58.5 -11.5 h-215q-57 0 -92 38.5t-23 82.5z" />
<glyph unicode="\" horiz-adv-x="837" d="M76 1380q-9 22 20 43t66 23q114 7 135 -57q6 -21 18 -64t16 -55.5t12.5 -43t13 -43.5t13 -39t16.5 -48.5t19 -52.5t25 -68q2 -6 9.5 -22.5t9.5 -22.5l5 -15t5.5 -16t5.5 -12q2 -6 7 -18.5t7 -18.5q8 -21 31 -84t37 -94q13 -38 33 -86q2 -4 59 -156q1 -3 5 -13.5t5 -13.5 q67 -174 144 -329q9 -22 -18.5 -44.5t-65.5 -23.5q-53 -1 -87 17.5t-42 50.5q-14 55 -39 116l-387 1006q-2 6 -11 27t-12 30q0 1 -4 10t-6 13q-28 65 -45 104z" />
<glyph unicode="]" horiz-adv-x="747" d="M-125 -338q5 15 29 25t57 10h119q28 146 174 883q27 137 87 435.5t89 446.5h-121q-32 0 -53.5 13t-17.5 30q9 39 88 39h211q57 0 94.5 -34.5t25.5 -75.5q-12 -34 -23.5 -76t-18.5 -73t-18.5 -84t-18.5 -83l-230 -1177q-1 -5 -2 -15.5t-2 -15.5q-5 -30 -6 -35 q-17 -93 -23 -141q-5 -49 -49 -84t-108 -35h-213q-31 0 -52.5 13.5t-17.5 33.5z" />
<glyph unicode="^" horiz-adv-x="1492" d="M395 780q27 54 79.5 154.5t74.5 142.5q90 176 149 297q37 72 152 72q49 0 90.5 -20t58.5 -52l289 -592q15 -32 -15 -64t-77 -32q-60 0 -108.5 26t-69.5 66q-37 77 -45 94q-26 52 -127 269q-14 -27 -41 -81.5t-41 -82.5q-17 -34 -100 -201q-19 -40 -67 -65t-110 -25 q-47 0 -77 31.5t-15 62.5z" />
<glyph unicode="_" horiz-adv-x="1075" d="M-106 -199q-3 -23 20 -39t61 -16h959q39 0 67 16t31 39q5 22 -19 38t-61 16h-958q-38 0 -66.5 -16t-33.5 -38z" />
<glyph unicode="`" horiz-adv-x="468" d="M53 1442q-6 28 26.5 47.5t82.5 19.5q72 0 100.5 -24.5t42.5 -75.5q18 -71 90 -123h-2q27 -17 26.5 -38t-30.5 -21q-98 0 -184 47h10z" />
<glyph unicode="a" horiz-adv-x="1110" d="M6 326q0 -84 28.5 -151.5t77 -108.5t108 -62.5t124.5 -21.5q57 0 109 20t96.5 57.5t77 74t69.5 87.5q-13 -69 -16 -125v-5q0 -35 36 -61t86 -26h7q54 2 95.5 27.5t41.5 62.5q0 108 45 369l37 201q20 107 72 360q1 7 1 14q-1 35 -35 61q-27 21 -59 21q-17 0 -36 -6 l-33 -12q-110 43 -219 43q-207 0 -359 -115q-85 -67 -151.5 -155.5t-103 -168t-60.5 -161t-31.5 -133t-7.5 -86.5zM291 401q0 46 8 103.5t24.5 128t47.5 135.5t72.5 119.5t104 87.5t136.5 33q48 0 131 -27l-53 -285q-27 -156 -55.5 -249.5t-69.5 -149.5q-93 -135 -205 -135 q-141 0 -141 239z" />
<glyph unicode="b" horiz-adv-x="1110" d="M23 156q-5 -18 -5 -36q0 -33 16 -64q24 -48 85 -62h-2q84 -23 209 -23q287 0 476 161.5t263 434.5q31 124 31 221q0 89 -28.5 158.5t-76.5 111.5t-108 63.5t-127 21.5q-157 0 -307 -187q2 22 10 56q2 11 20 127q4 19 9.5 46t9 46.5t6.5 34.5q4 39 10 59q5 31 12 59 q1 7 2 13q0 33 -40 53q-32 16 -70 16q-17 0 -35 -4q-39 -9 -66 -12q-53 -8 -80 -40q-24 -29 -24 -63v-8q4 -24 4 -45q0 -119 -70 -512l-71 -387q-36 -176 -53 -239zM305 115q14 114 23 180.5t28.5 176.5t46.5 193t62 140q44 71 98.5 113.5t108.5 42.5q73 0 107 -67.5 t34 -174.5q0 -31 -3.5 -71.5t-14.5 -101.5t-29 -118.5t-50.5 -117.5t-75 -104.5t-106.5 -73t-141 -28.5q-27 0 -88 11z" />
<glyph unicode="c" horiz-adv-x="854" d="M23 430q0 -210 139 -332.5t381 -122.5q52 0 106 7q52 8 93.5 33t54.5 59q11 32 -17 54q-18 15 -43 15q-13 0 -28 -4q-61 -22 -123 -22q-83 0 -154 47q-108 67 -108 280q0 142 46 266.5t138.5 205.5t212.5 81q38 0 82 -14h-2q24 -12 65 -12q79 0 95 45q5 14 5 28 q0 20 -10 40q-18 36 -63 46q-66 15 -141 15q-143 0 -265.5 -44t-206 -116t-143 -165.5t-87 -192.5t-27.5 -197z" />
<glyph unicode="d" horiz-adv-x="1110" d="M8 332q0 -167 99 -258.5t245 -91.5q55 0 102.5 16.5t87 47.5t68.5 63t62 77q-7 -38 -10 -71q-1 -5 -1 -11q1 -38 39 -67q44 -33 103 -33q56 1 92.5 33.5t38.5 75.5q0 79 41 327q4 18 8 54l111 614q6 32 12 61q1 9 4 25.5t4 22.5q5 35 12 69q13 73 17 86q1 7 2 13 q1 33 -41 53q-33 16 -73 16q-18 0 -38 -4q-3 -1 -14 -3t-14 -3q-53 -7 -84 -42q-29 -33 -29 -72v-5q1 -8 1 -17q0 -55 -24 -180q-67 13 -114 13q-144 0 -274.5 -64.5t-219.5 -171.5q-64 -81 -110 -177.5t-66 -178t-28.5 -134.5t-8.5 -83zM293 399q0 37 7.5 90t24 124 t48 138.5t73.5 125.5t106.5 93.5t141.5 35.5q35 0 109 -19q-65 -337 -92.5 -453t-65.5 -190q-50 -98 -107.5 -143t-107.5 -45q-65 0 -101 67t-36 176z" />
<glyph unicode="e" horiz-adv-x="991" d="M27 430q1 -81 13.5 -145t43.5 -123t80.5 -98t128 -63.5t182.5 -27.5q94 0 201 21q53 14 86.5 44t44.5 66q2 7 2 13q-1 25 -29 39q-18 10 -37 10q-18 0 -36 -8q-100 -41 -185 -41h-5q-49 1 -85 17q-38 18 -60 44t-35.5 62.5t-17.5 67.5t-4 65q0 57 4 73q96 4 153.5 9 t132.5 22.5t136 48.5q147 72 211 168q74 115 74 207q0 110 -85.5 180t-244.5 70q-80 0 -161 -20.5t-171 -75t-157 -137.5q-68 -82 -124 -211.5t-56 -276.5zM328 504q12 125 49.5 234t85.5 167q101 117 188 117q41 0 67.5 -33t26.5 -96q0 -120 -83 -203q-173 -163 -334 -186z " />
<glyph unicode="f" horiz-adv-x="555" d="M-340 -381q-2 -8 -2 -16q0 -24 20 -47q26 -32 70 -33q86 5 160.5 33.5t127.5 69t97.5 98t73 111.5t51 119t33.5 111.5t20 96.5q3 15 9.5 49t9.5 49q2 8 5 25.5t5 25.5q4 15 8 49q39 231 55 330q5 36 54 324h26q84 0 111 -2q47 0 84 17t41 46q6 29 -26 51.5t-75 22.5h-51 q-3 0 -10.5 -1t-11.5 -1h-64q16 76 31 131.5t37 107t51.5 79.5t65.5 30q122 4 153 64q4 11 4 21q0 23 -21 44q-29 29 -74 29h-3q-178 -8 -293 -88q-88 -69 -137 -162t-78 -254q-38 -3 -67 -18.5t-33 -38.5q-5 -25 14.5 -47.5t52.5 -28.5q-14 -119 -53 -352 q-8 -45 -28 -168.5t-31 -188.5q-38 -218 -72 -351.5t-76 -184.5q-54 -75 -123 -84q-48 -2 -88 -19t-53 -49z" />
<glyph unicode="g" horiz-adv-x="1110" d="M-53 -385q-7 -14 -7 -28q0 -19 14 -39q23 -35 66 -46q61 -12 158 -12q208 0 352 55h-2q51 19 94 43.5t76 48t61.5 59t47.5 62.5t37 73t28.5 75.5t23 86t18.5 87.5t18 96l96 526q34 198 66 316q3 10 3 19q0 33 -35 57q-26 18 -56 18q-21 0 -43 -8q-11 -4 -25 -10 q-2 2 -4 2h6q-113 49 -231 49q-133 0 -249.5 -52.5t-198 -137.5t-140.5 -192t-87 -216.5t-28 -210.5q0 -121 62 -217h-2q38 -63 112.5 -100t173.5 -37q101 0 176.5 53.5t141.5 144.5q-34 -174 -67 -273.5t-81 -142.5q-108 -116 -282 -116q-62 0 -125 18q-29 9 -56 9 q-22 0 -44 -6q-48 -14 -68 -54zM291 408q0 45 6.5 99.5t21 125t44 134t70.5 119t105 88t142 32.5q56 0 139 -33h-6q-64 -321 -99.5 -459.5t-78.5 -208.5q-46 -60 -100 -100.5t-103 -40.5q-61 0 -108 78q-33 50 -33 166z" />
<glyph unicode="h" d="M14 109q-3 -10 -3 -19q-1 -28 25 -52q34 -32 87 -32q67 0 115.5 33t56.5 84q12 86 39 231t39 197q31 126 68 211.5t65 114.5q96 104 207 104q108 0 108 -133q0 -37 -12 -107q-14 -75 -78 -462q-15 -89 -35 -166q-2 -8 -2 -15q0 -32 32 -58q39 -32 93 -32q64 0 110.5 31.5 t49.5 77.5q12 110 18 149l80 457q25 163 25 201q0 78 -43.5 131t-108 74.5t-145.5 21.5q-139 0 -244 -68q-62 -38 -108 -100l-1 -3l1 5q5 32 16.5 92t15.5 84q12 60 27.5 134.5t15.5 76.5q1 7 1 13q1 32 -37 54q-35 21 -78 21q-12 0 -25 -2q-17 -3 -63 -8q-51 -6 -74 -38 q-21 -29 -21 -65v-6v-9q0 -88 -55 -378l-104 -569q-36 -189 -58 -276z" />
<glyph unicode="i" horiz-adv-x="468" d="M16 117q-1 -5 -1 -10q0 -34 30 -64q33 -33 79 -33h3h16q60 0 106.5 29t49.5 72q11 130 59 395l60 332q9 52 31 153q0 17 4 33v6q1 36 -35 64q-29 22 -65 23q-12 0 -25 -3q-58 -10 -72 -12q-52 -2 -76 -36q-22 -31 -22 -70v-7v-9q0 -106 -66 -468l-35 -201 q-10 -58 -39 -184q0 -2 -1 -5.5t-1 -4.5zM201 1341q0 -53 41.5 -80.5t99.5 -27.5q82 0 131 56t49 116q0 50 -39.5 77t-97.5 27q-86 0 -135 -55.5t-49 -112.5z" />
<glyph unicode="j" horiz-adv-x="468" d="M-336 -401q-3 -10 -3 -19q0 -26 23 -48q27 -25 67 -25q8 0 16 1q114 7 206 40t156 110q59 72 91 175t69 290l133 702q13 76 31 170q3 15 6 27q2 7 2 14q0 32 -35 56q-30 21 -68 21q-14 0 -28 -3q-40 -8 -76 -14q-52 -4 -79 -35q-25 -29 -25 -63v-5q2 -4 2 -20 q0 -124 -63 -474t-116 -554q-81 -246 -168 -271q-51 -5 -91 -24.5t-50 -50.5zM199 1335q0 -53 41 -80.5t98 -27.5q83 0 132.5 56t49.5 116q0 50 -40 77t-99 27q-85 0 -133.5 -55.5t-48.5 -112.5z" />
<glyph unicode="k" horiz-adv-x="1013" d="M10 90q-2 -5 -2 -11q0 -25 35 -45q42 -24 98 -24q61 0 109.5 30t52.5 75q0 14 2 22q4 19 4 66v16q-1 18 -1 31q0 42 7 51h-2l158 141q12 -38 25 -72t23 -57.5t25.5 -51.5t22 -40.5t25.5 -38.5t22.5 -31t25.5 -33t24 -30q36 -43 94 -65q51 -19 111 -19h16h16q34 0 48 32.5 t-7 55.5q-43 36 -71.5 68t-68 104t-75.5 176q-30 77 -51 189l-4 -2q126 119 301 385q7 12 7 24q0 24 -24 46q-38 34 -92 34h-20h-9q-53 0 -91 -34q-40 -36 -60 -89q0 -4 2 -2q-2 -2 -4.5 -6.5t-3.5 -5.5q0 -4 2 -2q-2 -2 -4.5 -7.5t-3.5 -6.5q-43 -90 -127 -198t-168 -185 l80 426q40 232 69 360q2 7 2 14q0 32 -36 56q-31 21 -70 21q-14 0 -29 -3q-27 -7 -67 -10q-52 -3 -72 -35q-19 -29 -18 -68v-8q1 -6 1 -13q0 -33 -12 -93q-65 -372 -69 -391q-12 -61 -35.5 -191.5t-36.5 -198.5q2 -2 -2 -20q-4 -12 -4 -18q-37 -205 -58 -281v-10q0 -6 -2 -8 z" />
<glyph unicode="l" horiz-adv-x="585" d="M57 240q-1 -12 -1 -24q0 -220 247 -222q59 0 105 6q54 8 94 31.5t53 58.5q13 33 -17 56q-19 15 -42 15q-13 0 -27 -5q-18 -6 -20 -6q-43 -15 -76 -15q-11 1 -21 14.5t-14 26.5l-4 14q-6 19 -7 52q0 49 15 129q0 2 1 8t1 8q6 23 10 66q1 4 2 12t2 12q8 45 48 275 q32 182 47 274q4 22 11.5 60.5t8.5 41.5q3 11 8 48q9 55 37 198v5q0 37 -40 65q-29 20 -62 20q-15 0 -31 -4q-45 -10 -63 -12q-50 -4 -76 -38q-25 -32 -25 -69v-6v-10q0 -98 -55 -414q-60 -352 -68 -397q-1 -9 -4 -23t-4 -18q0 -8 -4 -24q-2 -10 -6 -31q0 -16 -6 -51 q0 -1 -1 -3.5t-1 -3.5q-13 -74 -15 -120z" />
<glyph unicode="m" horiz-adv-x="1640" d="M18 113q-1 -7 -1 -14q0 -30 28 -56q34 -31 83 -31h3h16q61 0 107 32t49 77q10 113 44 305t65 287q47 122 118 193t142 71q34 0 42.5 -26.5t8.5 -104.5q0 -79 -37 -283q-4 -23 -12.5 -72.5t-11.5 -68.5q-43 -238 -62 -305q-2 -8 -2 -15q0 -32 32 -58q38 -32 95 -32 q61 0 108.5 31t51.5 76q9 108 39.5 287t64.5 290q54 141 131 210t146 69q23 0 33 -27t10 -102q0 -47 -25 -193q-28 -158 -31 -178q-5 -33 -16.5 -95t-15.5 -87q-24 -122 -41 -178q-2 -9 -2 -17q0 -30 26 -56q32 -32 85 -32h3h17q61 0 107.5 33t49.5 82q8 125 41 297 q5 29 16.5 87t16.5 87q24 138 31 174q22 113 22 168q0 44 -13 80t-36 58t-49.5 38t-57 23.5t-54 10.5t-46.5 3q-58 0 -112.5 -20t-80 -38.5t-42.5 -35.5q-57 -57 -111 -139q-8 43 -23.5 80.5t-43.5 73.5t-75 57.5t-108 21.5q-81 0 -144.5 -32.5t-88.5 -61.5q-37 -37 -53 -60 q5 25 6 29q1 7 1 13q0 33 -39 55q-36 20 -76 20q-12 0 -25 -2q-15 0 -27 -4q-2 0 -5.5 -1t-6.5 -1q-17 0 -23 -2q-52 -8 -74 -40q-21 -30 -20 -70v-7v-15q0 -60 -19 -165q-16 -99 -59 -340q-4 -22 -31 -172l2 2q-1 -3 -4 -15.5t-4 -15.5q-14 -77 -33 -153z" />
<glyph unicode="n" d="M16 106q-1 -6 -1 -12q1 -30 31 -54q36 -29 86 -28h3h17q60 0 106 29t49 72q3 59 17 147l36 240q12 75 22 124t33 115.5t52 104.5q46 58 110.5 97.5t120.5 39.5q67 0 94 -32t27 -107q0 -68 -31 -240l-24 -135q-38 -243 -74 -361q-2 -8 -2 -16q0 -28 28 -52q34 -28 83 -28 h6h18q61 0 107 31t49 76q7 112 51 356q4 22 13.5 68.5t13.5 72.5q2 14 10.5 66.5t13.5 77.5q23 135 23 176q0 61 -28.5 106t-75.5 67.5t-96.5 33t-102.5 10.5q-176 0 -309 -102q-23 -19 -39 -39l4 25q-1 -3 -1 1q0 2 1 6v6q1 32 -37 57q-34 22 -74 22q-9 0 -18 -1 q-1 0 -5.5 -1t-5.5 -1q-23 -5 -57 -8q-50 -6 -75 -38q-23 -29 -23 -64v-6v-13q0 -78 -31 -264l-65 -383q-20 -130 -50 -242z" />
<glyph unicode="o" d="M16 399q0 -195 127 -317q117 -105 316 -105q98 0 185 26.5t154 72.5t123.5 108t95.5 132.5t66 147t39.5 150.5t12.5 144q0 171 -111 282q-101 107 -328 107q-133 0 -247 -46t-192 -122t-133.5 -174t-81.5 -201.5t-26 -204.5zM301 375q0 55 9.5 127.5t35.5 164t64.5 165.5 t105.5 125t150 51q66 0 125 -54q55 -51 55 -188q0 -26 -3 -67t-13.5 -104.5t-26.5 -126t-45 -127.5t-66 -114t-93 -80.5t-122 -31.5q-78 0 -127 62t-49 198z" />
<glyph unicode="p" horiz-adv-x="1110" d="M-100 -424q-1 -5 -1 -11q0 -29 33 -54q39 -29 91 -29h14h11q57 0 95 29q42 32 47 83q9 82 23 162q3 15 11.5 58t13.5 67q20 100 22 117q61 -12 150 -12q126 0 237.5 47.5t196.5 132.5q118 116 188 296t70 343t-83 251.5t-226 88.5t-240 -70q-60 -44 -119 -129q2 10 9 38 t10 44v5q0 37 -39 61q-32 20 -70 20q-13 0 -27 -2q-38 -8 -71 -10q-43 -5 -65.5 -35.5t-24.5 -65.5q1 -13 1 -28q0 -74 -18 -166q0 -19 -6 -31q-2 -15 -8 -46.5t-8 -47.5q-2 -11 -8 -50.5t-11 -64.5l-129 -665l2 2q-1 -3 -2 -10.5t-2 -10.5q-6 -15 -6 -20q-1 -10 -3 -21.5 t-5 -25t-4 -21.5q-30 -148 -49 -219zM285 172h6q0 25 8 41q50 277 82 381q53 171 133.5 270t163.5 99q68 0 101.5 -61.5t33.5 -156.5q0 -71 -12 -154.5t-47 -183t-86 -161.5q-96 -117 -234 -117q-65 0 -149 43z" />
<glyph unicode="q" horiz-adv-x="1110" d="M12 346q0 -176 113 -287q82 -79 229 -79q154 0 260 90q34 30 64 71q-8 -37 -10 -53q-32 -180 -58 -295q-2 -10 -6 -26q-5 -26 -24 -103l2 2q-3 -6 -7 -22q0 -2 -1 -5t-1 -4q0 -38 41 -69t90 -31h3q61 2 110 35.5t53 79.5q13 183 40 366t83 492q59 314 125 549q3 9 3 17 q0 31 -36 49q-23 12 -48 12q-23 0 -48 -11l-35 -16q-30 16 -106 33q-69 14 -131 14q-331 0 -539 -291q-85 -125 -125.5 -271.5t-40.5 -246.5zM291 426q0 111 40.5 253.5t110.5 217.5q107 119 258 119q50 0 129 -27h-2l-59 -287q-65 -346 -176 -454q-35 -35 -79.5 -58.5 t-70.5 -23.5q-48 0 -80 23t-46.5 65t-19.5 81.5t-5 90.5z" />
<glyph unicode="r" horiz-adv-x="681" d="M14 113q-2 -8 -2 -16q0 -29 31 -55q39 -32 94 -32h10h4q59 0 101 31q44 32 49 78q7 99 36 263.5t52 244.5q38 140 104 215.5t134 93.5h-2q64 15 112.5 43t61.5 65q4 12 4 22q0 30 -29 55q-26 22 -58 22q-17 0 -36 -6q-70 -24 -119 -56q-65 -46 -119 -116q1 5 4.5 13 t4.5 13q1 7 3 23l3 23q0 35 -41 57q-31 17 -68 17q-15 0 -31 -3h2q-16 -2 -53 -6q-51 -8 -78 -40q-24 -29 -24 -65v-8v-14q0 -71 -25 -211l-100 -553q-3 -22 -25 -98z" />
<glyph unicode="s" horiz-adv-x="768" d="M-78 106q-2 -7 -2 -15q0 -27 25 -53q32 -34 86 -48q73 -15 151 -15q236 0 367 95q90 66 132 145.5t42 153.5q0 35 -11.5 66t-27 52.5t-41.5 43t-42.5 32.5t-43.5 27l-102 63q-34 19 -51 30.5t-39.5 33t-32.5 48t-10 60.5q0 65 54.5 120.5t145.5 55.5q48 0 101 -24h-2 q25 -14 69 -14q80 0 101 49q6 14 6 28q-1 22 -15 46q-24 38 -73 47h2q-52 14 -142 14q-86 0 -182.5 -20t-165.5 -72q-176 -141 -176 -293q0 -37 14 -72t32 -59t47 -48t47 -36t44 -27l127 -74q33 -20 50.5 -33.5t34 -43t16.5 -66.5q0 -67 -55.5 -117.5t-151.5 -50.5 q-86 0 -158 33h2q-27 14 -56 14q-22 0 -44 -8q-52 -18 -72 -68z" />
<glyph unicode="t" horiz-adv-x="598" d="M47 184q0 34 19 142l129 680q-32 6 -52 25.5t-16 43.5q5 31 32 52.5t66 21.5q12 59 19 135q5 50 47 89t108 54q17 3 33 3q36 0 66 -16q36 -20 36 -50q0 -7 -2 -14q-31 -107 -47 -205h7q5 0 15 1t15 1q52 0 72 2q6 1 12 1q36 0 64 -22q26 -21 27 -45q0 -5 -1 -10 q-9 -33 -48 -53.5t-91 -20.5q-39 2 -100 2q-1 -3 -3 -12t-3 -16q-32 -158 -35 -172q-5 -27 -16.5 -86t-16.5 -86t-14 -70t-11 -51q-39 -180 -39 -258q0 -54 21 -80.5t57 -26.5q15 0 43 7q9 1 18 1q30 1 56 -15q34 -20 29 -48q-9 -39 -47.5 -69t-92.5 -37q-14 -2 -53 -2 q-97 0 -164 23t-92 58q-47 68 -47 123z" />
<glyph unicode="u" horiz-adv-x="1110" d="M27 203q0 -107 85 -165t210 -58q24 0 59.5 4.5t92.5 21.5t99 45q52 38 89 90v-28v-6q0 -39 40 -71q42 -34 101 -34q56 0 97 29.5t40 70.5v17q0 107 70 495q46 262 92 424q1 4 1 8q0 29 -37 53q-34 22 -72 22q-8 0 -17 -1q-22 0 -39 -10l4 4q-4 -2 -14 -2 q-56 -10 -90.5 -47t-36.5 -82q-3 -86 -35 -250q-24 -128 -57.5 -249t-63.5 -175h2q-30 -48 -65.5 -81t-68 -47.5t-54.5 -19.5t-39 -5q-107 0 -107 139q0 57 31 197l57 299q1 7 4.5 19.5t4.5 16.5q7 36 45 191q1 6 1 11q0 33 -36 59q-36 25 -79 25q-8 0 -17 -1q-15 0 -27 -4 h4q-1 0 -5 -1t-5 -1q-17 0 -21 -2h4q-55 -10 -83 -46.5t-31 -82.5q-3 -37 -15 -96l-102 -543q-16 -101 -16 -133z" />
<glyph unicode="v" horiz-adv-x="1067" d="M109 1018q16 -68 30 -139q28 -132 41 -213q2 -3 8 -29v-19q6 -32 16 -90.5t13 -76.5q23 -133 29 -172q16 -109 22 -158t55 -82t115 -33q69 0 126.5 26.5t80.5 71.5q30 66 68 136l61 122q119 242 156.5 315t111.5 204q55 94 82 137q8 12 8 25q0 20 -20 40q-32 33 -82 33 q-68 0 -119.5 -29.5t-66.5 -78.5q-26 -100 -96 -252l-234 -480q-32 171 -41.5 239t-36.5 302q-12 102 -16 187q-2 47 -44 79q-40 31 -98 31h-4h-49h-7q-50 0 -84 -28q-27 -22 -26 -50q0 -10 3 -20z" />
<glyph unicode="w" horiz-adv-x="1536" d="M117 1001q-1 6 -1 12q0 37 34 69q38 36 95 36h3h18q61 0 106 -33q42 -31 42 -73v-6q-4 -70 -4 -148q1 -35 2 -121t2 -123q2 -84 2 -243v-9v-4q0 1 1 2t1 2q2 4 20 46q12 24 19 45l127 299q32 65 53 127q2 6 6 14v2q18 48 70 74t121 28q22 0 39 -18t29 -58.5t20.5 -80.5 t14.5 -109t9.5 -117t7.5 -129q2 -29 2 -86q1 -18 -0.5 -26.5t2.5 -42.5q9 23 35.5 89t42.5 105q22 51 60.5 146t52.5 127q40 113 70 215v-2q11 49 65.5 77.5t122.5 30.5h3q43 0 70 -30q18 -20 18 -40q0 -11 -5 -22q-26 -44 -45 -86q-3 -6 -9 -19.5t-9 -19.5l-9 -14 q-47 -107 -174.5 -391.5t-152.5 -339.5l2 2q-2 -5 -6 -11l-11 -12q-1 0 -1 -2t0.5 -3t0 -4.5t-1.5 -6.5q-21 -51 -75 -81q-53 -30 -117 -30h-4h-19q-66 0 -112.5 33t-47.5 82q-7 271 -14 403q-46 -112 -70 -188q-70 -165 -92 -232q-17 -48 -72 -74q-51 -24 -116 -24h-10h-17 q-61 0 -105 34q-44 33 -44 79l4 168q0 65 -2 92l-25 391q-12 178 -22 229z" />
<glyph unicode="x" horiz-adv-x="1067" d="M-43 76q-20 -20 4.5 -44t58.5 -24h21h10q58 0 110 22q57 24 89 64h-2l18 21q14 18 23 28q10 12 39 41q52 66 88 107q11 13 34.5 39.5t34.5 40.5l86 -193q23 -53 25 -59q22 -53 76 -83q48 -27 107 -26h16h34h7q38 0 68 20q32 22 20 48q-15 27 -19 35l-12 18h2 q-27 54 -35 72q-65 128 -188 377q78 94 168 194q10 11 28.5 32.5t24.5 27.5l10 10q3 3 11 11.5t12 12.5q21 22 71.5 76.5t59.5 63.5l37 39q21 20 4.5 46.5t-51.5 26.5h-39h-7q-126 0 -204 -102q-20 -28 -97 -123h2l-118 -137l-52 116q-39 83 -59 140h2q-12 46 -62 75 t-114 29h-47q-50 0 -81 -32q-19 -19 -19 -39q0 -13 8 -25q11 -17 37 -68q13 -16 18 -34q17 -31 47.5 -94t44.5 -89q14 -28 45 -92.5t45 -93.5q-77 -89 -164 -182q-23 -25 -82.5 -90.5t-91.5 -98.5z" />
<glyph unicode="y" horiz-adv-x="980" d="M-113 -426q-2 -6 -2 -12q0 -28 35 -52q41 -28 96 -28q74 11 138.5 36t116.5 63.5t92.5 78t80 97t65 101.5t60.5 109l332 729q81 190 137 295q8 16 17 31q8 12 8 25q0 19 -17 37q-29 32 -75 32h-15h-15q-60 0 -105 -28q-51 -33 -66 -87q-58 -193 -246 -639 q-18 -50 -39 -96q-10 68 -25 173t-27 192t-23 170q-18 128 -21 196q-5 49 -49 83q-43 34 -103 34h-4h-43h-6q-48 0 -81 -28q-26 -23 -26 -52q0 -10 3 -20v2q36 -146 63 -303q37 -209 53.5 -324t30.5 -285q3 -39 39 -66t90 -40l-53 -98q-19 -36 -40.5 -68t-53.5 -69 t-72 -60.5t-82 -26.5q-59 -3 -105.5 -29t-62.5 -73z" />
<glyph unicode="z" horiz-adv-x="894" d="M-49 90q-10 -12 -10 -25q0 -17 17 -35q29 -32 74 -32h3q153 8 336 8q150 0 276 -8h4q63 0 115 31q54 32 76 82l8 16q3 7 3 14q0 25 -35 37q-21 8 -42 7q-23 0 -47 -9q-52 -22 -92 -24q-93 -11 -221 -11q-72 0 -115 2h-8q104 149 153 217q56 81 156 220q38 53 148.5 202.5 t154.5 210.5l17 23h2q2 3 6 8t6 8h-2l6 8l8 9q19 23 -13 51q-30 26 -69 26h-6q-100 -10 -303 -10q-191 0 -305 8h-12q-58 0 -102 -26q-49 -30 -58 -80v-7q0 -31 35 -49q27 -14 60 -15q14 0 30 3q50 12 131 15q66 4 170 4h86q-119 -180 -217 -312l-293 -399q-6 -9 -21 -27 q-19 -25 -45 -55q-12 -16 -28 -38l-17 -21q-1 -2 -8 -11.5t-12 -15.5z" />
<glyph unicode="{" horiz-adv-x="763" d="M164 578q7 28 67 47q19 4 52 34q18 16 30 45t18 55.5t23 114.5q1 6 6 25.5t7 30.5q4 23 12.5 69.5t11.5 63.5q21 116 23 133q9 53 22.5 95.5t44 91t73.5 81.5t114 57t163 27q31 0 49 -12.5t15 -28.5q-1 -13 -24 -25.5t-52 -17.5q-70 -16 -110 -116.5t-76 -305.5 q-12 -66 -20 -105t-20.5 -88t-25.5 -78t-32.5 -62t-44 -54.5t-57.5 -41.5t-75 -35q79 -33 113.5 -74t34.5 -107q0 -79 -37 -280q-33 -187 -33 -264q0 -148 74 -158q28 -6 44.5 -18.5t14.5 -24.5q-3 -16 -25.5 -29t-49.5 -12q-308 10 -308 242q0 48 11 108l24 135 q22 123 23 131q1 5 2 15.5t2 15.5q4 16 4 23q1 5 2 13.5t2 12.5q10 78 10 115q0 59 -16 78q-18 27 -33 32q-24 8 -40 21t-13 25z" />
<glyph unicode="|" horiz-adv-x="468" d="M37 -420q79 447 164 940q35 195 96.5 543t69.5 393q6 36 45 60t92 24q46 0 79 -26t27 -58l-329 -1876q-8 -36 -46.5 -60t-91.5 -24q-43 0 -74.5 26.5t-31.5 57.5z" />
<glyph unicode="}" horiz-adv-x="784" d="M-133 -348q3 12 21.5 24.5t43.5 18.5q26 3 48 17t38 32.5t31 51t25 62t21 77.5t18 85t18 97q13 73 22 116t21.5 92t25.5 76.5t32 57.5t43.5 49t57 36.5t75.5 33.5q-80 33 -116 75t-36 107q0 51 33 254q1 3 4 15t4 15l-2 -2q35 201 35 275q0 71 -17 107t-57 40 q-28 4 -46 17.5t-15 25.5q3 17 23 29t54 12q89 -5 150.5 -26t93.5 -56t45.5 -73.5t13.5 -87.5q0 -51 -10 -109q-6 -43 -22 -133q-5 -26 -14 -73.5t-11 -59.5q-1 -6 -2 -18t-2 -17q-4 -16 -4 -25q0 -4 -1 -11.5t-1 -10.5q-12 -102 -12 -115q0 -47 16 -76h-2q24 -30 43 -34 q23 -7 36.5 -20.5t10.5 -24.5q-3 -12 -24.5 -26t-47.5 -20q-8 -2 -49 -34q-37 -43 -69 -205q-4 -8 -4 -25q-4 -16 -13 -43l2 2q-5 -34 -22 -131q-3 -14 -25 -135q-10 -48 -26 -90.5t-48.5 -89.5t-76.5 -81t-113 -59t-154 -30q-29 3 -47 14.5t-16 26.5z" />
<glyph unicode="~" horiz-adv-x="1165" d="M90 590q0 -32 23 -70q22 -37 82 -37q56 0 86 33q45 47 51 49q34 15 51 15q39 0 145 -48l62 -30q51 -24 76.5 -35t63.5 -20t77 -9q143 0 254 103q43 43 43 77q0 29 -19 60q-24 41 -84 41q-46 0 -73 -27q-69 -65 -115 -65q-34 0 -125 43l-67 30q-53 24 -80 35t-73 22 t-89 11q-148 0 -264 -125q-25 -31 -25 -53z" />
<glyph unicode="&#xa1;" horiz-adv-x="555" d="M-8 96q-12 -39 29 -69t96 -25h10q68 6 118 41t56 86q15 130 74 455q1 6 6 41q17 96 31 172t23.5 125.5t13.5 70.5q7 36 -29 63t-88 25q-56 -2 -98.5 -27t-49.5 -63l-153 -841l-21 4q0 -1 -1 -3.5t-1 -3.5l6 3l-8 -9q-4 -24 -6 -28q-1 -3 -4 -8.5t-4 -8.5zM213 1294 q0 -47 39 -77.5t102 -30.5q68 0 130.5 46.5t62.5 113.5q0 39 -25 65t-56.5 35.5t-64.5 9.5q-74 0 -131 -50.5t-57 -111.5z" />
<glyph unicode="&#xa2;" horiz-adv-x="980" d="M29 426q0 164 74 316t210 259.5t303 135.5q6 35 11 80v18q3 23 33 41t71 24q42 4 71 -16t23 -45q-9 -32 -20 -90q67 -6 153 -27q41 -12 59.5 -49.5t4.5 -71.5q-24 -47 -98 -47q-42 0 -76 17q-45 22 -80 28q-9 -21 -26 -65t-19 -49q-1 -2 -3 -7.5t-3 -7.5q-12 -30 -44 -43 t-59.5 -0.5t-27.5 45.5q0 4 1 45.5t-1 47.5q-79 -34 -137.5 -116.5t-86.5 -186.5t-28 -216q0 -142 27 -202.5t73 -83.5q10 21 43 100q14 33 46.5 45.5t59 -2.5t23.5 -51q0 -90 2 -135q78 3 183 51q44 18 79.5 -5t20.5 -57q-19 -44 -66.5 -76.5t-107.5 -41.5 q-70 -11 -133 -15q-1 -6 -4.5 -21.5t-4.5 -21.5q0 -2 -1 -6t-1 -6q-5 -25 -6 -29q-6 -26 -38 -43.5t-74 -19.5q-38 0 -63.5 19.5t-20.5 43.5q0 11 14 62q1 2 2 6.5t3 11t5 13.5l-2 -2q0 2 1 6t1 6q-174 38 -270 152t-96 282z" />
<glyph unicode="&#xa3;" horiz-adv-x="1024" d="M-59 106q-3 -38 30 -70.5t82 -33.5q276 8 406 8q111 0 280 -6q63 2 118.5 37t70.5 84q6 28 -33.5 50t-85.5 24q-16 -2 -59 -2h-25q-5 0 -18 -1t-19 -1h-391q72 21 127.5 65t91.5 135q46 124 57 330h158q49 -1 86 19.5t43 52.5q6 26 -28.5 45.5t-77.5 21.5q-18 -2 -66 -2 h-113q5 149 33 245.5t92 147.5q83 60 168 60q61 0 121 -29h-2q26 -16 80 -16q77 0 98 37q18 37 0.5 78.5t-59.5 58.5q-80 26 -207 26q-135 0 -260.5 -46t-208.5 -126q-47 -47 -77 -95.5t-43 -100t-17 -84.5t-6 -86v-66h-43q-52 2 -88.5 -18t-40.5 -53q-4 -28 26.5 -49 t73.5 -21h74q0 -221 -41 -336q-55 -168 -156 -182q-60 -11 -102.5 -38t-48.5 -63z" />
<glyph unicode="&#xa4;" horiz-adv-x="1366" d="M116 220.5q8 35.5 38 62.5l112 94h-6q-1 1 -8.5 16t-10 21t-9.5 22t-10 26.5t-8.5 28t-8 32.5t-4.5 34.5t-2 38.5q0 36 10 98q33 172 164 320q-13 16 -38.5 46t-37.5 46q-20 26 -12.5 60.5t39.5 62.5h-2q29 26 79 26q54 0 74 -26l68 -80q152 92 329 92q179 0 295 -92 q16 14 49.5 41t47.5 39q29 26 82 26t73 -26q19 -25 12 -61t-36 -62l-109 -92h4q0 -1 7 -15t8.5 -18t8 -19t9 -23t7.5 -23.5t7.5 -27.5t5.5 -28t4 -32t1 -33q0 -43 -9 -99q-13 -75 -47 -145t-59 -102t-62 -74h3q13 -16 39 -46.5t38 -45.5q20 -25 12.5 -61t-38.5 -64h2 q-30 -27 -82 -27q-53 0 -74 27q-13 16 -32 41t-31 41q-144 -90 -328 -90q-182 0 -301 94q-17 -14 -49.5 -42.5t-48.5 -41.5q-31 -25 -80 -25q-50 0 -72 25q-21 25 -13 60.5zM408 623q0 -139 85 -226.5t218 -87.5q144 0 267 113.5t157 275.5q6 35 6 74q0 138 -86 223.5 t-213 85.5q-145 0 -270 -109t-158 -278q-6 -34 -6 -71z" />
<glyph unicode="&#xa5;" d="M168 1348q-15 33 13 64t73 30h86q63 1 109.5 -32.5t54.5 -82.5q8 -39 41 -153q9 -33 59 -203l53 -176l263 411h-2q48 84 71 133q22 47 72 75t115 28h69q39 0 64.5 -28t5.5 -52q-24 -30 -113 -156q-20 -30 -70 -103t-75 -112q-16 -23 -45 -65.5t-52 -77t-42 -64.5q2 0 6 1 t6 1q45 6 78 -15.5t28 -51.5q-6 -33 -46 -54.5t-93 -19.5q-10 2 -25 2h-49q-17 -26 -43 -59h2q-9 -15 -39 -60l2 2q0 -6 -4 -14v-6h80q18 0 68 4q44 4 76.5 -17.5t27.5 -52.5q-6 -32 -42.5 -52.5t-86.5 -18.5h-35l-112 -4l-2 -2l-8 -48q-33 -189 -35 -204q-5 -46 -49 -78 t-105 -31h-22q-17 0 -29 -2q-55 0 -89.5 31.5t-25.5 70.5q25 82 47 220q1 4 2 13t2 13q5 15 5 21h-62q-42 0 -73 21t-27 48q6 33 47 54.5t96 19.5q12 -2 27 -2h18q0 2 2 6.5t2 5.5q4 8 4 13q-4 9 -10.5 30t-7.5 25q-3 9 -8 26.5t-8 26.5h-117q-42 -2 -72 19t-26 51 q6 32 41.5 52t84.5 19h35q-35 116 -45 148q-28 78 -53 156q-68 209 -88 256zM631 754q1 0 2 2h-2q-1 -2 0 -2z" />
<glyph unicode="&#xa7;" horiz-adv-x="894" d="M-37 -113q17 41 62.5 48.5t85.5 -23.5q85 -72 170 -72t142.5 59.5t57.5 151.5q0 58 -20 94t-62 68q-54 46 -88 68q-30 20 -35 24l-59 43q-184 128 -184 254q0 103 89 181.5t232 93.5q-74 53 -116.5 122t-42.5 131q0 61 31 121t88 110.5t150.5 82t207.5 31.5 q102 0 172 -17q41 -10 63.5 -34t22.5 -52t-17 -61q-14 -37 -57.5 -39t-75.5 26q-65 54 -133 54q-79 0 -132.5 -58.5t-53.5 -136.5q0 -57 19.5 -91t54.5 -65q64 -60 133 -104q5 -2 13.5 -7t14 -8t6.5 -3q3 -2 9.5 -6.5t12 -8.5t9.5 -8q160 -112 160 -223q0 -67 -62 -162 q-72 -96 -247 -141q74 -56 112.5 -122t38.5 -126q0 -149 -124 -255t-337 -106q-125 0 -256 43q-33 18 -50 54.5t-5 68.5zM293 635q0 -64 56 -121t153 -121q63 10 102 59t39 113q0 49 -24.5 91t-62.5 74t-112 83q-78 -18 -114.5 -73t-36.5 -105z" />
<glyph unicode="&#xa8;" horiz-adv-x="468" d="M-125 1333q0 66 58 114t130 48q73 0 110.5 -33t37.5 -78q0 -61 -56 -109t-135 -48q-60 0 -102.5 26.5t-42.5 79.5zM260 1333q0 66 58.5 114t130.5 48t109.5 -33t37.5 -78q0 -61 -55.5 -109t-134.5 -48q-60 0 -103 26.5t-43 79.5z" />
<glyph unicode="&#xa9;" horiz-adv-x="1705" d="M121 719q0 154 61.5 290.5t165.5 232t244 151t293 55.5q163 0 306.5 -58t244.5 -156.5t159 -232t58 -280.5q0 -149 -59 -283.5t-161 -232.5t-245 -155.5t-303 -57.5q-149 0 -287.5 54t-244 147.5t-169 231t-63.5 294.5zM268 719q0 -180 83 -330.5t224.5 -236.5t309.5 -86 q173 0 315.5 88t223.5 238t81 329q0 177 -80 327t-222 238t-314 88q-128 0 -243.5 -52t-198 -139.5t-131 -208.5t-48.5 -255zM455 592q0 78 16.5 155.5t60.5 159t110.5 143t176 101t248.5 39.5q69 0 131 -14q37 -7 57 -33t11 -51q-12 -31 -57 -37.5t-95 16.5q-26 16 -84 16 q-90 0 -159.5 -45t-108.5 -118.5t-58.5 -156t-19.5 -167.5q0 -129 55.5 -203.5t173.5 -74.5q56 0 115 22h2l21 10q30 13 62.5 1t23.5 -36q-14 -33 -51.5 -59.5t-84.5 -30.5q-66 -8 -127 -8q-119 0 -212 36t-144 110q-63 104 -63 225z" />
<glyph unicode="&#xaa;" horiz-adv-x="681" d="M82 944q0 -57 21 -100.5t55 -68t73 -36.5t80 -12q90 0 187 100q-2 -6 -2 -14q-1 -30 32 -51t78 -21q38 0 68.5 18t30.5 42q0 71 18 174q3 16 8 46t8 44q9 47 15 90q1 8 4 22t4 19q22 130 31 152q9 39 -28 67.5t-83 20.5q-70 24 -139 24q-172 0 -303 -135 q-48 -53 -82 -115t-49 -115.5t-21 -90t-6 -60.5zM307 995q0 34 5.5 76.5t21 93.5t38.5 93t61.5 70t86.5 28q24 0 64 -10h-4l-33 -170q-27 -170 -72 -242q-26 -32 -55 -54t-49 -22q-64 0 -64 137z" />
<glyph unicode="&#xab;" horiz-adv-x="681" d="M35 713q-4 -33 17 -71.5t59 -68.5q50 -37 94 -106q18 -26 48.5 -32t56 9.5t30.5 44.5q8 39 -6 82t-49 80h2q-6 8 -16 17t-17 15t-24 19t-25 19q70 34 108 57q42 26 71 60.5t36 66.5q7 38 -35 51.5t-82 -14.5q-50 -37 -156 -98q-46 -25 -76 -60.5t-36 -70.5zM344 692 q-6 -33 14.5 -73.5t59.5 -73.5q29 -17 100 -111q34 -39 79 -30t56 51q16 72 -39 149q-24 34 -96 96q23 13 49.5 28t40.5 23.5t25 14.5q40 24 68 58.5t34 66.5q5 22 -12 36.5t-43.5 14.5t-54.5 -14q-95 -62 -154 -94q-52 -28 -86 -65.5t-41 -76.5z" />
<glyph unicode="&#xac;" horiz-adv-x="1366" d="M2 598q-6 -35 25.5 -59.5t83.5 -24.5h1073l-76 -428q-3 -35 26.5 -60.5t79.5 -25.5q51 0 91.5 25.5t46.5 60.5l84 471q8 53 -33.5 89t-108.5 36h-1155q-51 0 -91 -25t-46 -59z" />
<glyph unicode="&#xad;" horiz-adv-x="641" d="M90 602q-6 -38 31 -67t88 -27h22q2 0 6.5 1t6.5 1h12q49 0 201 -8q60 -1 104 24.5t55 67.5v2q7 33 -31 62.5t-85 31.5q-57 -4 -146 -4q-79 0 -108 2q-55 -2 -102 -26.5t-54 -59.5z" />
<glyph unicode="&#xae;" horiz-adv-x="1705" d="M121 719q0 154 61.5 290.5t165.5 232t244 151t293 55.5q163 0 307 -58.5t244.5 -157t158.5 -231.5t58 -280q0 -149 -59 -283.5t-161 -232.5t-245 -155.5t-303 -57.5q-148 0 -286.5 54t-244.5 147.5t-169.5 231t-63.5 294.5zM268 719q0 -180 83.5 -330.5t225.5 -236.5 t310 -86q128 0 243 52t197 139.5t130 208.5t48 255q0 132 -47 252t-128.5 208.5t-196.5 140.5t-244 52q-128 0 -243.5 -52t-198 -140t-131 -209t-48.5 -254zM500 346q25 88 43 174q1 3 4 16.5t4 16.5l-2 -2q16 90 43 229q33 171 43 224q2 4 2 16q0 2 1 5t1 5q8 55 12 96 q3 30 32.5 52t72.5 22h80q35 2 100 2q5 0 15 1t14 1h18q141 0 207 -37q57 -36 82.5 -85t25.5 -95q0 -109 -104 -213q-58 -58 -164 -90q14 -183 164 -350h-2q14 -15 -1 -36.5t-42 -21.5h-35q-48 0 -92.5 17.5t-67.5 50.5v2h2q-13 19 -69 115q-52 109 -66 194h-45 q-10 -75 -22 -137q-3 -16 -11.5 -67.5t-13.5 -81.5q0 -1 -1 -3.5t-1 -3.5q0 -6 -2 -10q-5 -32 -36 -54t-77 -22h-22q-42 0 -69 22.5t-21 47.5zM797 760q4 0 12.5 -1t13.5 -1q87 0 140 26q38 16 63 53.5t33 72t8 65.5q0 137 -131 137q-20 0 -64 -6h5q-4 -2 -11 -2 q-2 -9 -10.5 -42.5t-15 -63.5t-13.5 -74z" />
<glyph unicode="&#xaf;" horiz-adv-x="468" d="M-86 1362q6 31 35.5 50t70.5 18q195 -5 232 -5q28 0 203 5h16q36 2 61 -18.5t21 -47.5q-6 -31 -35 -50.5t-69 -19.5q-152 4 -228 4q-73 0 -225 -4q-36 0 -61 20.5t-21 47.5z" />
<glyph unicode="&#xb0;" horiz-adv-x="724" d="M152 1214q-22 -126 61.5 -215.5t224.5 -89.5q142 0 256.5 89.5t136.5 215.5q23 125 -60.5 214.5t-225.5 89.5q-140 0 -255 -89.5t-138 -214.5zM354 1214q14 70 63 121t107 51q57 0 88 -51.5t17 -120.5q-12 -72 -61.5 -123t-106.5 -51t-88 51t-19 123z" />
<glyph unicode="&#xb1;" horiz-adv-x="1335" d="M186 86q-6 -35 25 -60.5t82 -25.5h670q51 0 90 25t45 61t-24.5 60t-82.5 24h-669q-52 0 -91 -24.5t-45 -59.5zM215 854q-6 -36 23 -61t81 -25h324q-1 -4 -29 -166q-25 -142 -30 -170q-2 -35 27.5 -60.5t80.5 -25.5t91 25.5t46 60.5l60 336h317q51 0 90 25t45 61 q6 34 -24.5 58t-81.5 24h-315l57 336q5 36 -25 61t-84 25q-49 0 -88 -25t-47 -61q-22 -115 -31 -168q-5 -26 -14 -83t-14 -85h-326q-52 0 -89.5 -24t-43.5 -58z" />
<glyph unicode="&#xb4;" horiz-adv-x="468" d="M81 1247q-2 20 23 39q80 58 95 123q12 49 43 74.5t100 25.5q52 0 81 -27.5t19 -68.5q-7 -27 -28.5 -49t-96.5 -78q-103 -59 -202 -59q-32 0 -34 20z" />
<glyph unicode="&#xb5;" horiz-adv-x="1110" d="M-113 -416q-9 -38 26 -70t87 -32q62 2 109.5 30.5t54.5 71.5q1 6 4 21t4 24q6 25 12 62q11 57 13 67q16 86 24 131q3 19 9.5 56t9.5 57q45 -18 112 -18q166 0 301 135q7 7 9 8v-12q-3 -44 39.5 -76.5t101.5 -32.5q56 0 97 29.5t40 70.5v17q0 111 70 495q39 246 88 408 q12 41 -32.5 71.5t-100.5 22.5q-6 0 -9 -1l-2 -1q-14 0 -18 -2q-2 -1 -6 -2t-6 -2h4q-58 -10 -92 -46.5t-37 -82.5q-2 -23 -13 -100q-58 -452 -155 -598q-46 -65 -103 -97t-106 -32q-50 0 -79.5 30.5t-29.5 112.5q0 44 11 98q20 108 34 181q7 35 22 107.5t21 107.5l7 24 l6 31q17 73 43 178v-2q12 44 -34.5 73.5t-107.5 18.5q-3 -1 -10 -3t-10 -3q-2 0 -4.5 -1t-3.5 -1q-55 -9 -89 -44.5t-36 -78.5q0 -42 -19 -135l-51 -258l-151 -772q-31 -157 -54 -236z" />
<glyph unicode="&#xb6;" horiz-adv-x="1366" d="M240 954q0 -61 28 -121.5t78 -107.5q56 -51 158 -70l-166 -929q-3 -27 22.5 -45.5t67.5 -18.5q41 0 72.5 19t36.5 45q19 107 66.5 381t74.5 423q76 416 141 797h211l-282 -1601q-3 -27 22.5 -45.5t67.5 -18.5q41 0 73 19t37 45q25 149 74.5 425t67.5 379 q21 116 68.5 386.5t72.5 412.5q32 5 54 20t26 37q3 25 -21 42.5t-65 17.5h-412q-63 -1 -110 -6t-123 -30t-134 -69q-78 -62 -130.5 -144t-67.5 -163q-8 -54 -8 -80z" />
<glyph unicode="&#xb7;" horiz-adv-x="468" d="M86 565q0 68 63 115t132 47q63 0 102 -30.5t39 -80.5q0 -60 -57.5 -109.5t-131.5 -49.5q-34 0 -65.5 9t-56.5 35t-25 64z" />
<glyph unicode="&#xb8;" horiz-adv-x="468" d="M55 -385q6 22 35.5 28t59.5 -3q20 -5 26 -5q47 0 75 35t28 74q0 40 -21 55l-2 4q-25 25 -38 41t-21.5 39.5t-1.5 44.5q19 46 38 129q0 1 1.5 5.5t1.5 5.5h135l-70 -205q21 -1 41 -6t42.5 -16t36 -33.5t13.5 -53.5q0 -32 -17.5 -66t-50.5 -66t-90.5 -52.5t-128.5 -20.5 q-4 0 -10.5 1t-9.5 1h-21q-27 4 -42 23.5t-7 40.5h-2z" />
<glyph unicode="&#xba;" horiz-adv-x="724" d="M94 991q0 -64 20.5 -114t51.5 -78t72.5 -46t77.5 -24t73 -6q87 0 161 31t125 81.5t87 115.5t52.5 132t16.5 131q0 104 -75 179q-64 67 -217 67q-86 0 -160 -28.5t-125.5 -76t-88 -108.5t-54 -126t-17.5 -130zM309 977q0 44 9 100.5t29.5 123t63 111t99.5 44.5 q44 0 66 -37.5t22 -101.5q0 -23 -3.5 -61t-16.5 -98t-33.5 -109t-59.5 -85.5t-90 -36.5q-24 0 -41.5 14t-26 31.5t-13 42.5t-5 37t-0.5 25z" />
<glyph unicode="&#xbb;" horiz-adv-x="681" d="M14 514q-5 -22 13.5 -37t46 -15.5t55.5 13.5q65 47 150 92q111 59 127 142q6 35 -13.5 74.5t-58.5 72.5q-39 27 -103 111q-34 40 -80.5 32.5t-54.5 -53.5q-16 -73 39 -147q4 -5 13 -14.5t23.5 -24.5t25.5 -27l18 -18l21 -15q-33 -18 -69.5 -37t-49.5 -26 q-42 -26 -69.5 -59t-33.5 -64zM330 496q-7 -35 37 -47.5t79 12.5q112 76 164 100q43 23 71 57.5t34 71.5q4 32 -17 69.5t-59 67.5q-45 33 -94 107q-20 28 -50.5 34t-55 -10t-29.5 -45q-17 -85 55 -163q29 -34 78 -68q-54 -28 -107 -59q-41 -26 -70 -60.5t-36 -66.5z" />
<glyph unicode="&#xbf;" horiz-adv-x="894" d="M-12 326q0 -73 23 -133t73 -110t140 -78t214 -28q89 0 162 13q50 9 83.5 44t33.5 75q0 37 -43 54t-90 3q-67 -23 -123 -23q-83 0 -139 47q-43 37 -43 148q0 72 14.5 140.5t42.5 107.5q58 91 199 137q106 32 151.5 54.5t73.5 64.5q40 60 53 129q4 38 -34 66t-91 30 q-57 1 -97.5 -27t-51.5 -71v2q-16 -52 -45.5 -78.5t-79.5 -42.5l-101 -35q-46 -18 -82.5 -38t-76 -51t-71 -76.5t-52.5 -102.5q-43 -123 -43 -221zM563 1296q0 -47 39 -77.5t100 -30.5q68 0 131.5 46.5t63.5 113.5q0 57 -45.5 83.5t-101.5 26.5q-74 0 -130.5 -50.5 t-56.5 -111.5z" />
<glyph unicode="&#xc0;" horiz-adv-x="1236" d="M-76 102q92 156 191 349l49 90q204 380 409 800q24 45 83 72t126 25q14 -2 43 -2q66 0 116 -29.5t54 -77.5q6 -85 15 -174q0 -5 1 -15.5t1 -15.5q1 -5 2 -17t2 -17q0 -4 1 -11.5t1 -11.5l80 -719q6 -60 12 -100q1 -4 2 -15t2 -14q8 -62 14 -100q6 -44 -35 -78t-102 -33 l-6 2h-22q-60 -2 -102.5 25.5t-43.5 70.5q0 14 -4 60q-1 7 -6 84q-1 12 -3 42.5t-3 43.5q-1 26 -6 96h-430l-46 -94q-4 -9 -21 -44.5t-26 -53.5q-37 -76 -57 -127q-19 -47 -68.5 -76.5t-113.5 -28.5q-8 2 -19 2q-45 0 -76 30t-14 62zM436 588q123 -2 217 -2q78 0 125 2 q-3 34 -8 102.5t-8 102.5q-3 36 -10.5 103.5t-10.5 100.5q-10 81 -14 142v2q-1 -1 -2 -3t-2 -3q-12 -21 -35 -64q-9 -17 -24.5 -44.5t-20.5 -37.5q-14 -26 -22 -45zM604 1749q-7 30 19.5 52t68.5 22q59 0 84 -24.5t39 -74.5q15 -66 100 -125h-2q31 -19 28 -39 q-1 -14 -21 -14q-90 0 -175 49h-2q-74 56 -98 82.5t-41 71.5z" />
<glyph unicode="&#xc1;" horiz-adv-x="1236" d="M-61 96q111 191 192 350l49 93q234 437 412 804q25 44 77.5 70.5t112.5 24.5q14 -2 45 -2q58 0 102 -28.5t48 -74.5q3 -51 16 -207q1 -9 3 -29.5t3 -27.5l82 -723q2 -22 13 -100q13 -106 18 -131q6 -42 -27.5 -75t-85.5 -32q-6 2 -12 2h-22q-51 -2 -87.5 24.5t-37.5 67.5 q0 14 -4 60q0 1 -3 33.5t-4 52.5q-2 27 -6 91t-6 95h-471q-15 -30 -46.5 -97t-47.5 -97q-34 -69 -57 -129q-20 -46 -62.5 -75t-97.5 -28q-8 2 -23 2q-39 0 -63.5 28t-9.5 58zM399 586q152 -4 254 -4q94 0 168 4h-18q-6 68 -19.5 206.5t-19.5 206.5q-19 181 -23 205 q-1 -2 -71 -129q-14 -27 -38.5 -72t-29.5 -55l-184 -362h-19zM679 1570q2 19 26 36q87 62 102 125q12 48 38.5 73t84.5 25q42 0 67 -26.5t15 -63.5q-10 -32 -32 -54t-95 -77q-92 -56 -183 -56q-24 0 -23 18z" />
<glyph unicode="&#xc2;" horiz-adv-x="1236" d="M-76 102q92 156 191 349l49 90q204 380 409 800q24 45 83 72t126 25q14 -2 43 -2q66 0 116 -29.5t54 -77.5q6 -85 15 -174q0 -5 1 -15.5t1 -15.5q1 -5 2 -17t2 -17q0 -4 1 -11.5t1 -11.5l80 -719q6 -60 12 -100q1 -4 2 -15t2 -14q8 -62 14 -100q6 -44 -35 -78t-102 -33 l-6 2h-22q-60 -2 -102.5 25.5t-43.5 70.5q0 14 -4 60q-1 7 -6 84q-1 12 -3 42.5t-3 43.5q-1 26 -6 96h-430l-46 -94q-4 -9 -21 -44.5t-26 -53.5q-37 -76 -57 -127q-19 -47 -68.5 -76.5t-113.5 -28.5q-8 2 -19 2q-45 0 -76 30t-14 62zM436 588q123 -2 217 -2q78 0 125 2 q-3 34 -8 102.5t-8 102.5q-3 36 -10.5 103.5t-10.5 100.5q-10 81 -14 142v2q-1 -1 -2 -3t-2 -3q-12 -21 -35 -64q-9 -17 -24.5 -44.5t-20.5 -37.5q-14 -26 -22 -45zM521 1567.5q-15 23.5 3 38.5q27 23 54 47t42.5 38.5t16.5 16.5l25 25l10 8q73 86 180 86q59 0 105 -25 t67 -65q30 -65 72 -117q19 -20 -2 -46t-58 -26q-55 0 -102.5 17t-73.5 47q-28 28 -47 59l-8 -8q-45 -45 -82 -74q-51 -45 -156 -45q-31 0 -46 23.5z" />
<glyph unicode="&#xc3;" horiz-adv-x="1236" d="M-76 102q92 156 191 349l49 90q204 380 409 800q24 45 83 72t126 25q14 -2 43 -2q66 0 116 -29.5t54 -77.5q6 -85 15 -174q0 -5 1 -15.5t1 -15.5q1 -5 2 -17t2 -17q0 -4 1 -11.5t1 -11.5l80 -719q6 -60 12 -100q1 -4 2 -15t2 -14q8 -62 14 -100q6 -44 -35 -78t-102 -33 l-6 2h-22q-60 -2 -102.5 25.5t-43.5 70.5q0 14 -4 60q-1 7 -6 84q-1 12 -3 42.5t-3 43.5q-1 26 -6 96h-430l-46 -94q-4 -9 -21 -44.5t-26 -53.5q-37 -76 -57 -127q-19 -47 -68.5 -76.5t-113.5 -28.5q-8 2 -19 2q-45 0 -76 30t-14 62zM436 588q123 -2 217 -2q78 0 125 2 q-3 34 -8 102.5t-8 102.5q-3 36 -10.5 103.5t-10.5 100.5q-10 81 -14 142v2q-1 -1 -2 -3t-2 -3q-12 -21 -35 -64q-9 -17 -24.5 -44.5t-20.5 -37.5q-14 -26 -22 -45zM512 1624l2 10q3 9 8 23q-1 0 -0.5 2t1.5 8t2 11.5t3 13.5q17 59 50.5 82.5t91.5 23.5q32 0 96 -22l117 -41 h-4q12 -4 18 -4q62 -23 76 -23q11 0 47 70q8 17 29 20t43 -10h-7q19 -4 31 -11.5t10 -13.5l2 2q-4 -30 -8 -45q-4 -17 -8 -47q-11 -45 -37.5 -61.5t-97.5 -16.5q-33 0 -135 29q-9 3 -28.5 8t-27.5 8q-35 14 -53 17q-1 0 -4 1t-4 1q-37 12 -49 12q-13 0 -51 -59 q-8 -16 -30.5 -20t-47.5 7q-35 19 -35 25z" />
<glyph unicode="&#xc4;" horiz-adv-x="1236" d="M-76 102q-17 -32 14 -62t78 -30q9 0 17 -2q64 -1 113.5 28.5t68.5 76.5q20 51 57 127q9 18 26 53.5t21 44.5l48 94h428q5 -70 6 -96q1 -13 3 -43.5t3 -42.5q5 -77 6 -84q4 -46 4 -60q1 -43 43.5 -70.5t102.5 -25.5h22l6 -2q62 -1 102.5 33t34.5 78q-6 38 -14 100 q-1 3 -2 14t-2 15q-6 40 -12 100l-80 719q0 4 -1 11.5t-1 11.5q-1 5 -2 17t-2 17q0 5 -1 15.5t-1 15.5q-9 89 -15 174q-4 48 -54 77.5t-116 29.5q-29 0 -43 2q-67 2 -126 -25t-83 -72q-205 -420 -409 -800l-49 -90q-99 -193 -191 -349zM436 588l185 356q8 19 22 45 q5 10 20.5 37.5t24.5 44.5q9 18 37 64q1 1 2 3t2 3v-2q3 -41 12 -142q3 -33 10.5 -100.5t10.5 -103.5q3 -34 8 -102.5t8 -102.5q-45 -2 -125 -2q-94 0 -217 2zM477 1653q0 -52 43 -79.5t103 -27.5q80 0 135 48.5t55 109.5q0 45 -37 78t-108 33q-74 0 -132.5 -48t-58.5 -114z M862 1653q0 -52 43 -79.5t103 -27.5q79 0 134.5 48.5t55.5 109.5q0 45 -37 78t-108 33q-74 0 -132.5 -48t-58.5 -114z" />
<glyph unicode="&#xc5;" horiz-adv-x="1236" d="M-76 102q-17 -32 14 -62t76 -30q2 0 5 -1t4 -1h18q61 -1 108 28.5t66 76.5q16 41 57 125q9 18 26 53.5t21 44.5l46 94h430q5 -70 6 -96q1 -12 3 -42.5t3 -43.5q0 -2 1 -7.5t1 -7.5q1 -10 2 -32.5t2 -30.5q0 -5 1 -16.5t1 -16.5q0 -23 2 -31q5 -42 46.5 -70t99.5 -28h10 q1 0 3 1t3 1h16q1 0 4.5 -1t4.5 -1q54 3 92 36.5t32 74.5q-2 13 -7 43t-7 45q-1 6 -2 18t-2 19q-1 5 -2 20t-2 21q-7 56 -8 61l-80 721q0 4 -1 11.5t-1 11.5q-1 5 -2 17t-2 17q0 5 -1 15.5t-1 15.5q-9 89 -15 174q-4 48 -54 77.5t-116 29.5q-29 0 -43 2q-67 2 -126 -25 t-83 -72q-205 -420 -409 -800q-194 -359 -240 -439zM440 588l181 356q10 22 49 92q4 9 18 36t21 42q5 13 16 31q3 -19 16 -146q3 -35 10.5 -103t10.5 -103l16 -207h-125q-100 0 -213 2zM643 1642q0 -54 41.5 -98.5t128.5 -44.5q101 0 172.5 67.5t71.5 145.5q0 60 -51.5 99.5 t-126.5 39.5q-100 0 -168 -65t-68 -144zM797 1647q0 50 22.5 89.5t52.5 39.5q11 0 20 -16.5t9 -51.5q0 -57 -25 -93t-55 -36q-24 0 -24 68z" />
<glyph unicode="&#xc6;" horiz-adv-x="1748" d="M-73 35q-19 32 3 55q55 62 197 260q2 2 6 9.5t6 9.5q1 2 15 16h-2q32 44 97.5 133t98.5 135q46 64 197 269q229 318 307 448q29 45 85.5 67.5t123.5 16.5q58 -6 158 -6q360 0 510 6q48 1 80.5 -29t27.5 -67q-11 -35 -53.5 -54t-93.5 -10h2q-75 11 -193 11q-42 0 -203 -5 q-8 -41 -22 -120.5t-19 -106.5q-7 -41 -22.5 -116t-22.5 -111h37q89 3 144 12q46 8 87 -19.5t35 -62.5q-11 -42 -65.5 -65.5t-114.5 -18.5q-23 2 -84 2h-22q-5 0 -17 -1t-18 -1h-12q-11 -67 -39 -203q-7 -37 -20 -107.5t-19 -102.5q-6 -37 -6 -62q0 -41 26.5 -52t104.5 -11 q228 0 323 26q50 13 85.5 -6.5t27.5 -52.5q-19 -54 -70 -86.5t-116 -30.5h-47q-98 4 -140 4h-192q-5 0 -14.5 -1t-14.5 -1h-25q-47 -2 -157 -2q-54 -1 -84.5 34t-18.5 75h-2q22 78 41 168q1 2 3 10t3 10v10q3 15 11.5 58t13.5 67q3 16 11.5 57t11.5 62h-342q-10 -11 -48 -66 q-9 -14 -26.5 -38t-22.5 -31q0 -3 -10 -21q-8 -12 -22 -26h2q-57 -88 -148 -254l-6 -6q-1 -1 -2 -4.5t-2 -4.5h4q-24 -47 -80.5 -73.5t-126.5 -26.5h-8l-3 1q-4 1 -9 1h-29q-2 0 -6 -1t-6 -1q-40 -1 -59 31zM645 713h129h131l84 487l-12 -18q-15 -21 -34.5 -47.5 t-46.5 -63.5t-46 -63q-46 -63 -62 -84q-24 -31 -43 -58q-4 -7 -22.5 -35.5t-26.5 -42.5q-8 -12 -25.5 -37t-25.5 -38z" />
<glyph unicode="&#xc7;" d="M76 545q0 -84 15.5 -155.5t38 -120t56 -91t62 -67t63.5 -48.5q106 -66 254 -81q-10 -18 -10 -23q0 -3 -2 -9t-2 -9l2 2q-1 -3 -4 -8.5t-4 -8.5q-7 -21 3 -45.5t24 -39.5t40 -40l11 -10h-2q6 -6 6 -47q0 -37 -22.5 -70.5t-57.5 -33.5q-5 0 -25 4q-37 9 -71 -2t-50 -48 q-4 -13 17.5 -26.5t54.5 -18.5q20 -4 45 -4q76 0 137.5 21t97 53t54 67.5t18.5 67.5q0 53 -40.5 79t-92.5 32l37 106q88 0 180 15h2q66 10 115 48t70 89q12 33 -32.5 48.5t-88.5 -5.5q-5 -2 -9 -3.5t-5 -2.5h2l-9 -2q-99 -37 -188 -37q-169 0 -283 112q-40 46 -63.5 118 t-28 118t-4.5 90q0 87 14 174t41.5 173.5t74 160.5t107 131.5t144.5 90t182 32.5q100 0 172 -35h-2q25 -14 68 -14q36 0 65 15t41 42q15 35 -7 74t-68 51q-104 25 -224 25q-102 0 -223.5 -24t-212.5 -66q-122 -61 -217.5 -159.5t-152 -213t-85 -234.5t-28.5 -237z" />
<glyph unicode="&#xc8;" horiz-adv-x="1024" d="M25 113q-13 -42 18.5 -79t87.5 -36q221 0 307 2q16 0 47 -1t45 -1h215q66 -1 117 31t66 82q9 35 -27 55.5t-84 9.5q-6 0 -14 -4q-3 -1 -14 -2l-7 -2h2q-2 0 -6.5 -1t-5.5 -1q-107 -19 -268 -19q-102 0 -133 10t-31 58q0 35 12 96l70 377q8 0 36 1t46 1q40 0 94 -4 q61 0 116 23t62 63q7 37 -34 59t-97 19q-46 -4 -90 -4h-23q-4 0 -12 -1t-12 -1h-55q6 32 21.5 106.5t23.5 116.5q5 26 13 71.5t15 82.5t13 69q2 0 6 1t6 1q110 4 219 4t182 -10q54 -7 97 13.5t51 56.5q4 32 -30 59t-77 29q-180 -4 -317 -4q-201 0 -285 2 q-59 -3 -104.5 -38.5t-48.5 -82.5q-6 -139 -82 -557l-58 -313q-39 -219 -73 -338zM514 1753q-7 30 19.5 52t68.5 22q59 0 84 -24t39 -74q15 -66 100 -125h-2q30 -18 28 -39q-2 -15 -22 -15q-89 0 -174 49h-2q-74 56 -98 82.5t-41 71.5z" />
<glyph unicode="&#xc9;" horiz-adv-x="1024" d="M25 113q34 119 73 338l58 313q76 418 82 557q3 47 48.5 82.5t104.5 38.5q84 -2 285 -2q137 0 317 4q43 -2 77 -29t30 -59q-8 -36 -51 -56.5t-97 -13.5q-72 10 -182 10q-109 0 -219 -4q-2 0 -6 -1t-6 -1q-6 -32 -13 -69t-15 -82.5t-13 -71.5q-8 -42 -23.5 -116.5 t-21.5 -106.5h55q4 0 12 1t12 1h23q44 0 90 4q56 3 97 -19t34 -59q-7 -40 -62 -63t-116 -23q-54 4 -94 4q-18 0 -46 -1t-36 -1l-70 -377q-12 -61 -12 -96q0 -48 31 -58t133 -10q161 0 268 19q1 0 5.5 1t6.5 1h2q3 1 13.5 3t13.5 3h-4q51 13 89.5 -7.5t29.5 -55.5 q-15 -50 -66 -82t-117 -31h-215q-14 0 -45 1t-47 1q-86 -2 -307 -2q-56 -1 -87.5 36t-18.5 79zM605.5 1557.5q-4.5 9.5 2.5 22t21 22.5q87 63 102 124q12 48 38.5 73.5t84.5 25.5q42 0 67 -26.5t15 -63.5q-10 -32 -32 -54t-95 -77q-92 -56 -182 -56q-17 0 -21.5 9.5z" />
<glyph unicode="&#xca;" horiz-adv-x="1024" d="M25 113q-13 -42 18.5 -79t87.5 -36q221 0 307 2q16 0 47 -1t45 -1h215q66 -1 117 31t66 82q9 35 -27 55.5t-84 9.5q-6 0 -14 -4q-3 -1 -14 -2l-7 -2h2q-2 0 -6.5 -1t-5.5 -1q-107 -19 -268 -19q-102 0 -133 10t-31 58q0 35 12 96l70 377q8 0 36 1t46 1q40 0 94 -4 q61 0 116 23t62 63q7 37 -34 59t-97 19q-46 -4 -90 -4h-23q-4 0 -12 -1t-12 -1h-55q6 32 21.5 106.5t23.5 116.5q5 26 13 71.5t15 82.5t13 69q2 0 6 1t6 1q110 4 219 4t182 -10q54 -7 97 13.5t51 56.5q4 32 -30 59t-77 29q-180 -4 -317 -4q-201 0 -285 2 q-59 -3 -104.5 -38.5t-48.5 -82.5q-6 -139 -82 -557l-58 -313q-39 -219 -73 -338zM417 1573.5q-15 23.5 3 38.5q104 87 112 102l25 25l10 8q73 86 181 86q59 0 105 -25t67 -65q31 -67 71 -117q19 -20 -2 -46t-57 -26q-55 0 -102.5 17t-73.5 47q-28 28 -47 59l-9 -8 q-45 -45 -82 -74q-51 -45 -155 -45q-31 0 -46 23.5z" />
<glyph unicode="&#xcb;" horiz-adv-x="1024" d="M25 113q-13 -42 18.5 -79t87.5 -36q221 0 307 2q16 0 47 -1t45 -1h215q66 -1 117 31t66 82q9 35 -27 55.5t-84 9.5q-6 0 -14 -4q-3 -1 -14 -2l-7 -2h2q-2 0 -6.5 -1t-5.5 -1q-107 -19 -268 -19q-102 0 -133 10t-31 58q0 35 12 96l70 377q8 0 36 1t46 1q40 0 94 -4 q61 0 116 23t62 63q7 37 -34 59t-97 19q-46 -4 -90 -4h-23q-4 0 -12 -1t-12 -1h-55q6 32 21.5 106.5t23.5 116.5q5 26 13 71.5t15 82.5t13 69q2 0 6 1t6 1q110 4 219 4t182 -10q54 -7 97 13.5t51 56.5q4 32 -30 59t-77 29q-180 -4 -317 -4q-201 0 -285 2 q-59 -3 -104.5 -38.5t-48.5 -82.5q-6 -139 -82 -557l-58 -313q-39 -219 -73 -338zM373 1659q0 65 52 111.5t118 46.5q63 0 95 -32t32 -75q0 -59 -50.5 -107.5t-121.5 -48.5q-51 0 -88 26.5t-37 78.5zM760 1659q0 65 52 111.5t118 46.5q63 0 95 -32t32 -75 q0 -59 -50.5 -107.5t-121.5 -48.5q-51 0 -88 26.5t-37 78.5z" />
<glyph unicode="&#xcc;" horiz-adv-x="512" d="M39 106q14 46 47 193q2 7 5 23.5t5 23.5l142 744q23 112 38 241q5 47 39 80.5t84 32.5h45q47 1 76.5 -31.5t18.5 -71.5q-23 -75 -62 -278q-80 -432 -131 -717q-26 -138 -37 -231q-5 -46 -43.5 -77.5t-93.5 -31.5h-37q-47 -1 -77 30t-19 70zM248 1753q-7 30 19.5 52 t68.5 22q59 0 84 -24t39 -74q15 -66 100 -125h-2q30 -18 28 -39q-2 -15 -22 -15q-89 0 -174 49h-2q-74 56 -98 82.5t-41 71.5z" />
<glyph unicode="&#xcd;" horiz-adv-x="512" d="M39 106q14 46 47 193q2 7 5 23.5t5 23.5l142 744q23 112 38 241q5 47 39 80.5t84 32.5h45q47 1 76.5 -31.5t18.5 -71.5q-23 -75 -62 -278q-80 -432 -131 -717q-26 -138 -37 -231q-5 -46 -43.5 -77.5t-93.5 -31.5h-37q-47 -1 -77 30t-19 70zM310.5 1561.5q-4.5 9.5 2.5 22 t21 22.5q87 62 102 125q12 48 38.5 73t84.5 25q42 0 67 -26.5t15 -63.5q-10 -32 -32 -54t-95 -77q-92 -56 -182 -56q-17 0 -21.5 9.5z" />
<glyph unicode="&#xce;" horiz-adv-x="512" d="M39 106q14 46 47 193q2 7 5 23.5t5 23.5l142 744q23 112 38 241q5 47 39 80.5t84 32.5h45q47 1 76.5 -31.5t18.5 -71.5q-23 -75 -62 -278q-80 -432 -131 -717q-26 -138 -37 -231q-5 -46 -43.5 -77.5t-93.5 -31.5h-37q-47 -1 -77 30t-19 70zM168 1572q-10 20 6 34 q105 92 119 112l41 41q63 70 155 70q51 0 92 -24.5t62 -63.5q25 -58 76 -117q18 -20 2.5 -44t-47.5 -24q-107 0 -160 62q-28 33 -59 80l-13 -12q-66 -66 -94 -89q-54 -45 -145 -45q-25 0 -35 20z" />
<glyph unicode="&#xcf;" horiz-adv-x="512" d="M39 106q14 46 47 193q2 7 5 23.5t5 23.5l142 744q23 112 38 241q5 47 39 80.5t84 32.5h45q47 1 76.5 -31.5t18.5 -71.5q-23 -75 -62 -278q-80 -432 -131 -717q-26 -138 -37 -231q-5 -46 -43.5 -77.5t-93.5 -31.5h-37q-47 -1 -77 30t-19 70zM117 1659q0 65 52 111.5 t118 46.5q63 0 95 -32t32 -75q0 -59 -50.5 -107.5t-121.5 -48.5q-51 0 -88 26.5t-37 78.5zM504 1659q0 65 52 111.5t118 46.5q63 0 95 -32t32 -75q0 -59 -50.5 -107.5t-121.5 -48.5q-51 0 -88 26.5t-37 78.5z" />
<glyph unicode="&#xd1;" horiz-adv-x="1366" d="M-2 113q58 165 180 825q47 254 47 387q0 47 38 82t99 35h89q68 1 118 -32t64 -85h-2q14 -41 74 -174l233 -537q14 -34 39.5 -92.5t34.5 -81.5v4q22 130 39 242l6 37l76 416q21 115 28 188q5 48 49 81.5t105 33.5h10q53 0 86.5 -33.5t20.5 -73.5q-36 -103 -89 -338 q-2 -10 -6 -29.5t-6 -29.5q-34 -173 -45 -227q-19 -93 -45 -230q-4 -34 -8 -49q-1 -4 -3 -13t-3 -13q-33 -171 -43 -273q0 -1 -1 -3t-1 -3q-2 -10 -2 -25q-5 -42 -45 -70.5t-97 -27.5q-56 2 -102 25.5t-59 58.5q-19 56 -129 307q-82 185 -99 223q-15 34 -31.5 71.5t-37 82.5 t-31.5 70l-21 49q-9 18 -23.5 46.5t-20 41t-18 44t-28.5 79.5q-10 -63 -65 -412q-1 -8 -31 -192q-44 -265 -51 -381q-3 -46 -50 -78t-110 -29h-18q-55 0 -90.5 32t-24.5 71zM575 1624q0 1 1.5 5.5t3.5 11t6 16.5q-1 0 -0.5 2t1.5 8t2 11.5t3 13.5q17 59 50 82.5t91 23.5 q34 0 98 -22l115 -41h-4q12 -4 19 -4q62 -23 75 -23q11 0 47 70q8 17 30 20t44 -10h-6q19 -4 31 -11.5t10 -13.5l2 2q-4 -30 -8 -45q-4 -17 -8 -47q-11 -45 -38.5 -61.5t-99.5 -16.5q-34 0 -135 29q-8 3 -27 8.5t-26 7.5q-35 14 -53 17q-1 0 -4 1t-4 1q-40 12 -52 12 q-13 0 -51 -59q-8 -16 -30.5 -20t-47.5 7q-35 19 -35 25z" />
<glyph unicode="&#xd2;" horiz-adv-x="1492" d="M82 522q0 56 7.5 120.5t33 159.5t65.5 182t114 181t171 164q199 141 459 141q268 0 408.5 -132t140.5 -375q0 -66 -11 -141t-33.5 -158t-59.5 -164.5t-85 -159t-114.5 -143.5t-143.5 -116t-176.5 -78t-210.5 -28q-120 0 -238 40.5t-198 127.5q-64 74 -96.5 175t-32.5 204 zM348 518q0 -63 12 -140t41 -126q42 -73 113 -108.5t145 -37.5q85 0 160 31t130 83.5t100.5 123t75 147.5t49.5 159.5t29 156.5t9 141q0 231 -98 318h2q-79 67 -207 67q-84 0 -158.5 -28.5t-130.5 -77.5t-102 -115t-77 -140t-52.5 -154t-31 -155t-9.5 -145zM748 1753 q-7 30 19.5 52t68.5 22q59 0 83.5 -24t38.5 -74q14 -65 101 -125h-2q30 -18 28 -39q-2 -15 -22 -15q-89 0 -174 49h-2q-74 56 -98 82.5t-41 71.5z" />
<glyph unicode="&#xd3;" horiz-adv-x="1492" d="M82 522q0 56 7.5 120.5t33 159.5t65.5 182t114 181t171 164q199 141 459 141q268 0 408.5 -132t140.5 -375q0 -66 -11 -141t-33.5 -158t-59.5 -164.5t-85 -159t-114.5 -143.5t-143.5 -116t-176.5 -78t-210.5 -28q-120 0 -238 40.5t-198 127.5q-64 74 -96.5 175t-32.5 204 zM348 518q0 -63 12 -140t41 -126q42 -73 113 -108.5t145 -37.5q85 0 160 31t130 83.5t100.5 123t75 147.5t49.5 159.5t29 156.5t9 141q0 231 -98 318h2q-79 67 -207 67q-84 0 -158.5 -28.5t-130.5 -77.5t-102 -115t-77 -140t-52.5 -154t-31 -155t-9.5 -145zM818.5 1561.5 q-4.5 9.5 2.5 22t21 22.5q87 62 102 125q12 48 38.5 73t84.5 25q42 0 67 -26.5t15 -63.5q-10 -32 -32 -54t-95 -77q-92 -56 -182 -56q-17 0 -21.5 9.5z" />
<glyph unicode="&#xd4;" horiz-adv-x="1492" d="M82 522q0 56 7.5 120.5t33 159.5t65.5 182t114 181t171 164q199 141 459 141q268 0 408.5 -132t140.5 -375q0 -66 -11 -141t-33.5 -158t-59.5 -164.5t-85 -159t-114.5 -143.5t-143.5 -116t-176.5 -78t-210.5 -28q-120 0 -238 40.5t-198 127.5q-64 74 -96.5 175t-32.5 204 zM348 518q0 -63 12 -140t41 -126q42 -73 113 -108.5t145 -37.5q85 0 160 31t130 83.5t100.5 123t75 147.5t49.5 159.5t29 156.5t9 141q0 231 -98 318h2q-79 67 -207 67q-84 0 -158.5 -28.5t-130.5 -77.5t-102 -115t-77 -140t-52.5 -154t-31 -155t-9.5 -145zM661.5 1572 q-9.5 20 6.5 34q28 24 56 50.5t44 42.5t18 19l41 41q63 70 156 70q51 0 92 -24.5t62 -63.5q26 -60 75 -117q18 -20 2.5 -44t-47.5 -24q-106 0 -159 62q-32 37 -60 80l-12 -12q-66 -66 -94 -89q-54 -45 -146 -45q-25 0 -34.5 20z" />
<glyph unicode="&#xd5;" horiz-adv-x="1492" d="M66 524q0 55 7.5 119t33 158.5t66.5 181t116.5 181t173.5 165.5q199 141 469 141q277 0 421 -132.5t144 -376.5q0 -77 -14 -163.5t-46 -182.5t-78.5 -186.5t-116.5 -173.5t-154.5 -145t-198 -98.5t-242.5 -36.5q-124 0 -245 41t-201 129q-67 78 -101 179t-34 200z M371 520q0 -63 12 -140.5t39 -123.5q41 -71 106.5 -105t130.5 -36q95 0 176 40.5t137.5 109.5t100 154.5t68 180.5t37 181.5t12.5 164.5q0 231 -103 320l-178 59q-94 0 -174.5 -37.5t-138 -102t-102 -145.5t-71 -172.5t-39.5 -179t-13 -168.5zM639 1624l3 10q2 9 7 23 q-1 0 -0.5 2t1.5 8t2 11.5t3 13.5q17 59 50.5 82.5t91.5 23.5q34 0 98 -22l115 -41h-4q12 -4 18 -4q62 -23 76 -23q11 0 47 70q8 17 30 20t44 -10h-7q19 -4 31 -11.5t10 -13.5l2 2q-4 -30 -8 -45q-4 -17 -8 -47q-11 -45 -38 -61.5t-99 -16.5q-34 0 -135 29q-8 3 -27.5 8.5 t-26.5 7.5q-35 14 -53 17q-1 0 -4 1t-4 1q-41 12 -51 12q-13 0 -51 -59q-8 -16 -30.5 -20t-47.5 7q-35 19 -35 25z" />
<glyph unicode="&#xd6;" horiz-adv-x="1492" d="M66 524q0 55 7.5 119t33 158.5t66.5 181t116.5 181t173.5 165.5q199 141 469 141q277 0 421 -132.5t144 -376.5q0 -77 -14 -163.5t-46 -182.5t-78.5 -186.5t-116.5 -173.5t-154.5 -145t-198 -98.5t-242.5 -36.5q-124 0 -245 41t-201 129q-67 78 -101 179t-34 200z M371 520q0 -63 12 -140.5t39 -123.5q41 -71 106.5 -105t130.5 -36q95 0 176 40.5t137.5 109.5t100 154.5t68 180.5t37 181.5t12.5 164.5q0 231 -103 320l-178 59q-94 0 -174.5 -37.5t-138 -102t-102 -145.5t-71 -172.5t-39.5 -179t-13 -168.5zM627 1653q0 66 58 114t132 48 q72 0 109 -33t37 -78q0 -61 -55.5 -109.5t-135.5 -48.5q-59 0 -102 27.5t-43 79.5zM1012 1653q0 66 58 114t132 48q72 0 109 -33t37 -78q0 -61 -55.5 -109.5t-135.5 -48.5q-59 0 -102 27.5t-43 79.5z" />
<glyph unicode="&#xd8;" horiz-adv-x="1492" d="M54 4q1 -26 20 -41q25 -22 71 -22q54 0 76 28q32 42 76 94q135 -86 360 -86q115 0 221.5 33t189 88.5t145 121t106.5 138.5q89 157 133.5 332t44.5 287q0 170 -98 307q63 75 106 115q14 19 12 43.5t-18 40.5q-29 26 -76 26q-50 0 -77 -34q-3 -3 -5 -7q-16 -18 -16 -20 q-9 -14 -45 -59q-122 81 -356 81q-186 0 -362 -85.5t-296 -243.5q-95 -135 -150 -299.5t-55 -317.5q0 -72 11.5 -132t32 -104t37 -69.5t38.5 -52.5q-71 -83 -108 -117q-19 -19 -18 -45zM354 532q0 117 34.5 258.5t103.5 260.5q84 138 186 206t237 68q126 0 215 -102 l-763 -854q-13 66 -13 163zM436 221l762 848q6 -46 6 -129q0 -112 -22 -227.5t-67 -222.5t-107 -190.5t-150 -134t-188 -50.5q-55 0 -118 29t-116 77z" />
<glyph unicode="&#xd9;" horiz-adv-x="1366" d="M102 291q0 34 13 123q23 140 76.5 442t76.5 442q4 8 4 19q0 2 1 6t1 6q5 46 40 79.5t87 33.5h43q43 0 70.5 -30.5t15.5 -65.5q-1 -2 -2 -7.5t-2 -7.5h2q-9 -32 -20 -90q-21 -111 -64 -343.5t-63 -342.5l-6 -37q-15 -84 -15 -143q0 -80 27 -125q31 -53 104.5 -82 t137.5 -29q161 0 256 80q49 38 76 117t67 287l102 557q20 117 25 163q3 44 42.5 73.5t92.5 29.5q46 0 75 -31.5t17 -68.5q-15 -45 -36 -154q-17 -96 -54 -292t-55 -292q-46 -243 -78 -327q-55 -153 -217 -234h2q-141 -72 -377 -72t-354 95q-111 87 -111 221zM686 1753 q-7 30 19.5 52t68.5 22q59 0 84 -24t39 -74q15 -66 100 -125h-2q30 -18 28 -39q-2 -15 -22 -15q-89 0 -174 49h-2q-74 56 -98 82.5t-41 71.5z" />
<glyph unicode="&#xda;" horiz-adv-x="1366" d="M102 291q0 34 13 123q23 140 76.5 442t76.5 442q4 8 4 19q0 2 1 6t1 6q5 46 40 79.5t87 33.5h43q43 0 70.5 -30.5t15.5 -65.5q-1 -2 -2 -7.5t-2 -7.5h2q-9 -32 -20 -90q-21 -111 -64 -343.5t-63 -342.5l-6 -37q-15 -84 -15 -143q0 -80 27 -125q31 -53 104.5 -82 t137.5 -29q161 0 256 80q49 38 76 117t67 287l102 557q20 117 25 163q3 44 42.5 73.5t92.5 29.5q46 0 75 -31.5t17 -68.5q-15 -45 -36 -154q-17 -96 -54 -292t-55 -292q-46 -243 -78 -327q-55 -153 -217 -234h2q-141 -72 -377 -72t-354 95q-111 87 -111 221zM732.5 1561.5 q-4.5 9.5 2.5 22t21 22.5q87 62 102 125q12 48 38.5 73t84.5 25q42 0 67 -26.5t15 -63.5q-10 -32 -32 -54t-95 -77q-92 -56 -182 -56q-17 0 -21.5 9.5z" />
<glyph unicode="&#xdb;" horiz-adv-x="1366" d="M102 291q0 34 13 123q23 140 76.5 442t76.5 442q4 8 4 19q0 2 1 6t1 6q5 46 40 79.5t87 33.5h43q43 0 70.5 -30.5t15.5 -65.5q-1 -2 -2 -7.5t-2 -7.5h2q-9 -32 -20 -90q-21 -111 -64 -343.5t-63 -342.5l-6 -37q-15 -84 -15 -143q0 -80 27 -125q31 -53 104.5 -82 t137.5 -29q161 0 256 80q49 38 76 117t67 287l102 557q20 117 25 163q3 44 42.5 73.5t92.5 29.5q46 0 75 -31.5t17 -68.5q-15 -45 -36 -154q-17 -96 -54 -292t-55 -292q-46 -243 -78 -327q-55 -153 -217 -234h2q-141 -72 -377 -72t-354 95q-111 87 -111 221zM596 1572 q-10 20 6 34q105 92 119 112l41 41q63 70 156 70q51 0 91.5 -24t61.5 -64q25 -58 76 -117q18 -20 2.5 -44t-47.5 -24q-107 0 -160 62q-28 33 -59 80l-13 -12q-66 -66 -94 -89q-54 -45 -145 -45q-25 0 -35 20z" />
<glyph unicode="&#xdc;" horiz-adv-x="1366" d="M86 293q0 41 12 123q15 81 44 246.5t34 193.5q12 66 74 436q4 8 4 21l1 3q1 4 1 9q5 48 45.5 82.5t101.5 34.5h43q51 0 83.5 -32t21.5 -71l2 2q0 -1 -1 -3t-1 -3v-10q-13 -47 -21 -86q-60 -327 -63 -342q-24 -120 -64 -342l-6 -35q-14 -79 -14 -143q0 -80 25 -123 q31 -51 98 -79t123 -28q148 0 243 78q41 34 67.5 115t66.5 283l102 555q19 106 25 161q3 45 48.5 76t104.5 31q54 0 88.5 -33.5t22.5 -73.5t-35 -149q-15 -90 -53 -291q-9 -48 -27 -145.5t-27 -145.5q-46 -238 -79 -327q-57 -149 -224 -234q-138 -72 -385 -72 q-108 0 -205.5 25t-156.5 70q-119 96 -119 223zM545 1653q0 66 57.5 114t130.5 48t110.5 -33t37.5 -78q0 -61 -56 -109.5t-137 -48.5q-59 0 -101 27.5t-42 79.5zM928 1653q0 66 58 114t132 48q73 0 110.5 -33t37.5 -78q0 -61 -56 -109.5t-137 -48.5q-59 0 -102 27.5 t-43 79.5z" />
<glyph unicode="&#xdd;" d="M96 51q0 13 31 55h-2q0 4 74 82q2 2 13 12.5t13 12.5q9 6 54 70q79 103 149 256q-36 115 -90 278q-15 46 -44 139.5t-44 139.5q-1 2 -5.5 20t-8.5 25q-28 77 -31 86q-32 79 -43 112q-16 36 15 71t83 34q14 -2 37 -2t37 2q60 1 105.5 -32t54.5 -79q10 -47 30 -121 l125 -413q8 14 24.5 37.5t22.5 33.5q7 9 19 28.5t16 25.5q180 285 246 417q23 45 76.5 73t115.5 28h60q40 0 68 -27t8 -51q-24 -30 -113 -156l-465 -680q-12 -18 -64 -93t-79 -116q-15 -22 -65 -95t-77 -113q-36 -44 -102.5 -75t-122.5 -28h-47q-36 0 -55 12t-19 31z M623 758q1 0 2 2h-2q-1 -2 0 -2zM634.5 1565.5q-1.5 21.5 24.5 40.5q80 55 95 120q12 49 42.5 75t98.5 26q52 0 82 -27.5t20 -68.5q-9 -27 -30.5 -48.5t-94.5 -76.5q-103 -62 -202 -62q-34 0 -35.5 21.5z" />
<glyph unicode="&#xdf;" horiz-adv-x="1110" d="M-100 -395q-12 -38 28 -69t95 -34q66 -1 115.5 30t58.5 79q20 104 58.5 309t57.5 309q31 176 115 621q42 212 69.5 300.5t69.5 141.5h-2l8 6q83 95 168 95q55 0 88 -40.5t33 -111.5q0 -33 -10.5 -75.5t-31 -88t-58 -83.5t-84.5 -54q-58 -10 -76 -10q-59 -2 -104 -28.5 t-54 -65.5q-6 -35 31 -65t86 -30q42 0 97 -25t92 -61q26 -45 26 -120q0 -104 -34.5 -198.5t-95 -153t-130.5 -58.5q-20 0 -41 6q-50 14 -99 2.5t-63 -49.5q-14 -39 15 -77t80 -44q16 -2 67 -2q161 0 294 75t204 191q42 68 66 153t24 148q0 53 -22.5 109t-61.5 98 q-68 72 -205 90q-39 9 -69 11q16 2 26 4t22 5t23 5q86 18 154.5 58.5t107 86.5t63.5 99t33.5 91.5t8.5 67.5q0 57 -21.5 104t-57 78.5t-83.5 53.5t-100 31.5t-107 9.5q-104 0 -215.5 -36t-189.5 -108q-49 -47 -84.5 -103.5t-59.5 -130t-37 -130.5t-30 -152l-86 -497 q-98 -536 -172 -768z" />
<glyph unicode="&#xe0;" horiz-adv-x="1110" d="M6 326q0 -84 28.5 -151.5t77 -108.5t108 -62.5t124.5 -21.5q57 0 109 20t96.5 57.5t77 74t69.5 87.5q-13 -69 -16 -125q-3 -38 36 -66t93 -26t95.5 27.5t41.5 62.5q0 108 45 369l37 201q20 107 72 360q8 43 -33.5 75t-95.5 15l-33 -12q-110 43 -219 43q-207 0 -359 -115 q-85 -67 -151.5 -155.5t-103 -168t-60.5 -161t-31.5 -133t-7.5 -86.5zM291 401q0 46 8 103.5t24.5 128t47.5 135.5t72.5 119.5t104 87.5t136.5 33q48 0 131 -27l-53 -285q-27 -156 -55.5 -249.5t-69.5 -149.5q-93 -135 -205 -135q-141 0 -141 239zM471 1442q-6 28 26.5 47.5 t82.5 19.5q72 0 100.5 -24.5t42.5 -75.5q18 -71 90 -123h-2q27 -17 26.5 -38t-30.5 -21q-98 0 -184 47h10z" />
<glyph unicode="&#xe1;" horiz-adv-x="1110" d="M6 326q0 -84 28.5 -151.5t77 -108.5t108 -62.5t124.5 -21.5q57 0 109 20t96.5 57.5t77 74t69.5 87.5q-13 -69 -16 -125q-3 -38 36 -66t93 -26t95.5 27.5t41.5 62.5q0 108 45 369l37 201q20 107 72 360q8 43 -33.5 75t-95.5 15l-33 -12q-110 43 -219 43q-207 0 -359 -115 q-85 -67 -151.5 -155.5t-103 -168t-60.5 -161t-31.5 -133t-7.5 -86.5zM291 401q0 46 8 103.5t24.5 128t47.5 135.5t72.5 119.5t104 87.5t136.5 33q48 0 131 -27l-53 -285q-27 -156 -55.5 -249.5t-69.5 -149.5q-93 -135 -205 -135q-141 0 -141 239zM550 1247q-2 20 23 39 q80 58 95 123q12 49 43 74.5t100 25.5q52 0 81 -27.5t19 -68.5q-7 -27 -28.5 -49t-96.5 -78q-103 -59 -202 -59q-32 0 -34 20z" />
<glyph unicode="&#xe2;" horiz-adv-x="1110" d="M6 326q0 -84 28.5 -151.5t77 -108.5t108 -62.5t124.5 -21.5q57 0 109 20t96.5 57.5t77 74t69.5 87.5q-13 -69 -16 -125q-3 -38 36 -66t93 -26t95.5 27.5t41.5 62.5q0 108 45 369l37 201q20 107 72 360q8 43 -33.5 75t-95.5 15l-33 -12q-110 43 -219 43q-207 0 -359 -115 q-85 -67 -151.5 -155.5t-103 -168t-60.5 -161t-31.5 -133t-7.5 -86.5zM291 401q0 46 8 103.5t24.5 128t47.5 135.5t72.5 119.5t104 87.5t136.5 33q48 0 131 -27l-53 -285q-27 -156 -55.5 -249.5t-69.5 -149.5q-93 -135 -205 -135q-141 0 -141 239zM424 1250.5 q-10 19.5 6 33.5q28 24 56.5 50.5t44.5 43t18 19.5l41 41q62 69 156 69q51 0 91.5 -24t61.5 -64q24 -56 76 -116q18 -20 2.5 -44t-47.5 -24q-108 0 -160 61q-28 33 -59 80l-13 -12q-60 -60 -94 -88q-54 -45 -145 -45q-25 0 -35 19.5z" />
<glyph unicode="&#xe3;" horiz-adv-x="1110" d="M6 326q0 -84 28.5 -151.5t77 -108.5t108 -62.5t124.5 -21.5q57 0 109 20t96.5 57.5t77 74t69.5 87.5q-13 -69 -16 -125q-3 -38 36 -66t93 -26t95.5 27.5t41.5 62.5q0 108 45 369l37 201q20 107 72 360q8 43 -33.5 75t-95.5 15l-33 -12q-110 43 -219 43q-207 0 -359 -115 q-85 -67 -151.5 -155.5t-103 -168t-60.5 -161t-31.5 -133t-7.5 -86.5zM291 401q0 46 8 103.5t24.5 128t47.5 135.5t72.5 119.5t104 87.5t136.5 33q48 0 131 -27l-53 -285q-27 -156 -55.5 -249.5t-69.5 -149.5q-93 -135 -205 -135q-141 0 -141 239zM414 1319q2 10 8 32.5 t8 32.5q17 58 45.5 81.5t75.5 23.5q25 0 92 -23l117 -41l12 -4q59 -22 84 -22q29 0 66 71q5 11 19.5 13.5t29.5 -4.5h-4q12 -3 20 -8.5t6 -10.5q-2 -16 -8 -46t-8 -46q-9 -43 -32.5 -59.5t-84.5 -16.5q-39 0 -129 31q-18 5 -55 16.5t-55 16.5q-51 14 -64 14q-34 0 -70 -63 q-5 -12 -19.5 -15t-31.5 4q-9 5 -15 12t-5 11h-2z" />
<glyph unicode="&#xe4;" horiz-adv-x="1110" d="M6 326q0 -84 28.5 -151.5t77 -108.5t108 -62.5t124.5 -21.5q57 0 109 20t96.5 57.5t77 74t69.5 87.5q-13 -69 -16 -125q-3 -38 36 -66t93 -26t95.5 27.5t41.5 62.5q0 108 45 369l37 201q20 107 72 360q8 43 -33.5 75t-95.5 15l-33 -12q-110 43 -219 43q-207 0 -359 -115 q-85 -67 -151.5 -155.5t-103 -168t-60.5 -161t-31.5 -133t-7.5 -86.5zM291 401q0 46 8 103.5t24.5 128t47.5 135.5t72.5 119.5t104 87.5t136.5 33q48 0 131 -27l-53 -285q-27 -156 -55.5 -249.5t-69.5 -149.5q-93 -135 -205 -135q-141 0 -141 239zM422 1333q0 66 58 114 t130 48q73 0 110.5 -33t37.5 -78q0 -61 -56 -109t-135 -48q-60 0 -102.5 26.5t-42.5 79.5zM807 1333q0 66 58.5 114t130.5 48t109.5 -33t37.5 -78q0 -61 -55.5 -109t-134.5 -48q-60 0 -103 26.5t-43 79.5z" />
<glyph unicode="&#xe5;" horiz-adv-x="1110" d="M6 326q0 -84 28.5 -151.5t77 -108.5t108 -62.5t124.5 -21.5q57 0 109 20t96.5 57.5t77 74t69.5 87.5q-13 -69 -16 -125q-3 -38 36 -66t93 -26t95.5 27.5t41.5 62.5q0 108 45 369l37 201q20 107 72 360q8 43 -33.5 75t-95.5 15l-33 -12q-110 43 -219 43q-207 0 -359 -115 q-85 -67 -151.5 -155.5t-103 -168t-60.5 -161t-31.5 -133t-7.5 -86.5zM291 401q0 46 8 103.5t24.5 128t47.5 135.5t72.5 119.5t104 87.5t136.5 33q48 0 131 -27l-53 -285q-27 -156 -55.5 -249.5t-69.5 -149.5q-93 -135 -205 -135q-141 0 -141 239zM606 1333q0 76 62.5 139.5 t154.5 63.5q67 0 112.5 -38.5t45.5 -96.5q0 -75 -66 -142t-159 -67q-76 0 -113 44t-37 97zM717 1333q0 -35 12.5 -54t32.5 -19q37 0 69.5 38t32.5 95q0 36 -15.5 53.5t-35.5 17.5q-39 0 -67.5 -39.5t-28.5 -91.5z" />
<glyph unicode="&#xe6;" horiz-adv-x="1607" d="M-6 322q0 34 8 86.5t32 133.5t60.5 160.5t103 168t150.5 155.5q159 115 359 115q109 0 219 -43q4 2 9 3.5t13 4t15 4.5h-2q39 10 70 1.5t46 -32.5q121 74 262 74q159 0 244.5 -70t85.5 -180q0 -92 -74 -207q-64 -96 -211 -168q-89 -43 -184.5 -58.5t-236.5 -20.5 q1 -12 -0.5 -34.5t4 -53.5t12.5 -64t25.5 -65t42.5 -57.5t63.5 -40.5t89.5 -15q86 0 182 41q40 17 76 -1.5t27 -52.5q-11 -36 -44.5 -66t-86.5 -44q-107 -21 -201 -21q-136 4 -227.5 41.5t-137.5 98t-65 149.5q-33 -47 -58.5 -79.5t-66 -75.5t-78 -69t-87.5 -44.5 t-101 -18.5q-65 0 -124 21.5t-107.5 63t-77.5 109t-29 151.5zM281 397q0 -239 141 -239q112 0 205 135q70 100 125 399q24 135 26 144q15 70 27 141q-83 27 -133 27q-74 0 -136 -33t-103 -87.5t-72 -119.5t-47.5 -135.5t-24.5 -128t-8 -103.5zM969 506q163 23 336 186 q84 81 84 203q0 63 -27 96t-68 33q-87 0 -186 -115q-56 -60 -90.5 -176t-48.5 -227z" />
<glyph unicode="&#xe7;" horiz-adv-x="854" d="M23 430q0 -223 190 -369q63 -46 164 -67q-5 -16 -10 -35t-7.5 -27t-3.5 -10q-13 -39 60 -108l22 -23h-2q6 -6 6 -47q0 -37 -23 -70.5t-61 -33.5q-6 0 -22 4q-37 7 -71 -2.5t-48 -40.5q-5 -15 16.5 -31.5t53.5 -20.5q20 -4 43 -4q76 0 138 21t98 53t54.5 67.5t18.5 67.5 q0 54 -38.5 79.5t-90.5 31.5l37 112q53 0 108 9q48 6 88.5 31t53.5 57q11 32 -17.5 55t-68.5 10q-71 -22 -125 -22q-63 0 -119 32t-94 78q-49 81 -49 217q0 142 46.5 266.5t139.5 205.5t213 81q38 0 82 -14q45 -19 94.5 -11t63.5 46q13 31 -7.5 68t-62.5 47q-53 12 -141 12 q-143 0 -265.5 -44t-206 -116t-143 -165.5t-87 -192.5t-27.5 -197z" />
<glyph unicode="&#xe8;" horiz-adv-x="980" d="M27 430q1 -81 13.5 -145t43.5 -123t80.5 -98t128 -63.5t182.5 -27.5q94 0 201 21q53 14 86.5 44t44.5 66q9 34 -26.5 52.5t-73.5 1.5q-100 -41 -185 -41q-51 -1 -89.5 16.5t-60.5 44t-35.5 63t-17.5 67.5t-4 65q0 57 4 73q96 4 153.5 9t132.5 22.5t136 48.5 q147 72 211 168q74 115 74 207q0 110 -85.5 180t-244.5 70q-80 0 -161 -20.5t-171 -75t-157 -137.5q-68 -82 -124 -211.5t-56 -276.5zM328 504q12 125 49.5 234t85.5 167q101 117 188 117q41 0 67.5 -33t26.5 -96q0 -120 -83 -203q-173 -163 -334 -186zM426 1442 q-6 27 27.5 47t83.5 20q72 0 100.5 -24.5t42.5 -75.5q19 -73 88 -123h-2q28 -17 28 -38t-32 -21q-96 0 -182 47h10z" />
<glyph unicode="&#xe9;" horiz-adv-x="980" d="M27 430q1 -81 13.5 -145t43.5 -123t80.5 -98t128 -63.5t182.5 -27.5q94 0 201 21q53 14 86.5 44t44.5 66q9 34 -26.5 52.5t-73.5 1.5q-100 -41 -185 -41q-51 -1 -89.5 16.5t-60.5 44t-35.5 63t-17.5 67.5t-4 65q0 57 4 73q96 4 153.5 9t132.5 22.5t136 48.5 q147 72 211 168q74 115 74 207q0 110 -85.5 180t-244.5 70q-80 0 -161 -20.5t-171 -75t-157 -137.5q-68 -82 -124 -211.5t-56 -276.5zM328 504q12 125 49.5 234t85.5 167q101 117 188 117q41 0 67.5 -33t26.5 -96q0 -120 -83 -203q-173 -163 -334 -186zM587.5 1247 q-1.5 20 24.5 39q80 58 95 123q10 48 41 74t100 26q52 0 82 -27.5t20 -68.5q-9 -27 -31 -49t-96 -78q-103 -59 -200 -59q-34 0 -35.5 20z" />
<glyph unicode="&#xea;" horiz-adv-x="980" d="M27 430q1 -81 13.5 -145t43.5 -123t80.5 -98t128 -63.5t182.5 -27.5q94 0 201 21q53 14 86.5 44t44.5 66q9 34 -26.5 52.5t-73.5 1.5q-100 -41 -185 -41q-51 -1 -89.5 16.5t-60.5 44t-35.5 63t-17.5 67.5t-4 65q0 57 4 73q96 4 153.5 9t132.5 22.5t136 48.5 q147 72 211 168q74 115 74 207q0 110 -85.5 180t-244.5 70q-80 0 -161 -20.5t-171 -75t-157 -137.5q-68 -82 -124 -211.5t-56 -276.5zM328 504q12 125 49.5 234t85.5 167q101 117 188 117q41 0 67.5 -33t26.5 -96q0 -120 -83 -203q-173 -163 -334 -186zM370 1247 q-15 22 3 37q105 91 112 105l25 24l10 8q76 86 182 86q58 0 103.5 -25t66.5 -65q30 -66 74 -117q19 -22 -2 -46.5t-59 -24.5q-55 0 -102.5 16t-73.5 45q-33 42 -45 62l-9 -9q-39 -39 -82 -75q-55 -43 -157 -43q-31 0 -46 22z" />
<glyph unicode="&#xeb;" horiz-adv-x="980" d="M27 430q1 -81 13.5 -145t43.5 -123t80.5 -98t128 -63.5t182.5 -27.5q94 0 201 21q53 14 86.5 44t44.5 66q9 34 -26.5 52.5t-73.5 1.5q-100 -41 -185 -41q-51 -1 -89.5 16.5t-60.5 44t-35.5 63t-17.5 67.5t-4 65q0 57 4 73q96 4 153.5 9t132.5 22.5t136 48.5 q147 72 211 168q74 115 74 207q0 110 -85.5 180t-244.5 70q-80 0 -161 -20.5t-171 -75t-157 -137.5q-68 -82 -124 -211.5t-56 -276.5zM307 1333q0 66 57.5 114t131.5 48q72 0 109.5 -33t37.5 -78q0 -61 -55.5 -109t-136.5 -48q-60 0 -102 26.5t-42 79.5zM328 504 q12 125 49.5 234t85.5 167q101 117 188 117q41 0 67.5 -33t26.5 -96q0 -120 -83 -203q-173 -163 -334 -186zM692 1333q0 66 57.5 114t131.5 48q72 0 109.5 -33t37.5 -78q0 -61 -55.5 -109t-136.5 -48q-60 0 -102 26.5t-42 79.5z" />
<glyph unicode="&#xec;" horiz-adv-x="468" d="M35 113q-8 -38 20.5 -71t71.5 -32h16q53 0 93 27t43 69q11 132 59 398l59 334q10 56 31 155q3 18 6 33q8 39 -24.5 67.5t-77.5 18.5q-50 -9 -74 -12q-43 -3 -62.5 -35.5t-17.5 -73.5q3 -105 -65 -481l-37 -201q-11 -65 -39 -186q0 -1 -1 -5t-1 -5zM119 1442 q-6 28 26.5 47.5t82.5 19.5q72 0 100.5 -24.5t42.5 -75.5q18 -71 90 -123h-2q27 -17 26.5 -38t-30.5 -21q-98 0 -184 47h10z" />
<glyph unicode="&#xed;" horiz-adv-x="468" d="M35 113q-8 -38 20.5 -71t71.5 -32h16q53 0 93 27t43 69q11 132 59 398l59 334q10 56 31 155q3 18 6 33q8 39 -24.5 67.5t-77.5 18.5q-50 -9 -74 -12q-43 -3 -62.5 -35.5t-17.5 -73.5q3 -105 -65 -481l-37 -201q-11 -65 -39 -186q0 -1 -1 -5t-1 -5zM218 1247q-2 20 23 39 q80 58 95 123q12 49 43 74.5t100 25.5q52 0 81 -27.5t19 -68.5q-7 -27 -28.5 -49t-96.5 -78q-103 -59 -202 -59q-32 0 -34 20z" />
<glyph unicode="&#xee;" horiz-adv-x="468" d="M35 113q-8 -38 20.5 -71t71.5 -32h16q53 0 93 27t43 69q11 132 59 398l59 334q10 56 31 155q3 18 6 33q8 39 -24.5 67.5t-77.5 18.5q-50 -9 -74 -12q-43 -3 -62.5 -35.5t-17.5 -73.5q3 -105 -65 -481l-37 -201q-11 -65 -39 -186q0 -1 -1 -5t-1 -5zM72 1250.5 q-10 19.5 6 33.5q28 24 56.5 50.5t44.5 43t18 19.5l41 41q62 69 156 69q51 0 91.5 -24t61.5 -64q24 -56 76 -116q18 -20 2.5 -44t-47.5 -24q-108 0 -160 61q-28 33 -59 80l-13 -12q-60 -60 -94 -88q-54 -45 -145 -45q-25 0 -35 19.5z" />
<glyph unicode="&#xef;" horiz-adv-x="468" d="M-2 1333q0 66 58 114t130 48q73 0 110.5 -33t37.5 -78q0 -61 -56 -109t-135 -48q-60 0 -102.5 26.5t-42.5 79.5zM35 113q-8 -38 20.5 -71t71.5 -32h16q53 0 93 27t43 69q11 132 59 398l59 334q10 56 31 155q3 18 6 33q8 39 -24.5 67.5t-77.5 18.5q-50 -9 -74 -12 q-43 -3 -62.5 -35.5t-17.5 -73.5q3 -105 -65 -481l-37 -201q-11 -65 -39 -186q0 -1 -1 -5t-1 -5zM383 1333q0 66 58.5 114t130.5 48t109.5 -33t37.5 -78q0 -61 -55.5 -109t-134.5 -48q-60 0 -103 26.5t-43 79.5z" />
<glyph unicode="&#xf1;" d="M16 106q-8 -36 29.5 -65.5t89.5 -28.5h17q60 0 106 29t49 72q3 59 17 147l36 240q12 75 22 124t33 115.5t52 104.5q46 58 110.5 97.5t120.5 39.5q67 0 94 -32t27 -107q0 -68 -31 -240l-24 -135q-38 -243 -74 -361q-10 -38 26.5 -68t88.5 -28h18q61 0 107 31t49 76 q7 112 51 356q4 22 13.5 68.5t13.5 72.5q2 14 10.5 66.5t13.5 77.5q23 135 23 176q0 61 -28.5 106t-75.5 67.5t-96.5 33t-102.5 10.5q-176 0 -309 -102q-23 -19 -39 -39l4 25q-1 -3 -1 1q0 2 1 6q4 36 -37.5 63t-91.5 21q-1 0 -5.5 -1t-5.5 -1q-23 -5 -57 -8 q-50 -6 -75 -37.5t-23 -70.5v-13q0 -78 -31 -264l-65 -383q-20 -130 -50 -242zM404 1319q2 10 8 32.5t8 32.5q17 58 45.5 81.5t75.5 23.5q25 0 92 -23l117 -41l12 -4q59 -22 84 -22q29 0 66 71q5 11 19.5 13.5t29.5 -4.5h-4q12 -3 20 -8.5t6 -10.5q-2 -16 -8 -46t-8 -46 q-9 -43 -32.5 -59.5t-84.5 -16.5q-39 0 -129 31q-18 5 -55 16.5t-55 16.5q-51 14 -64 14q-34 0 -70 -63q-5 -12 -19.5 -15t-31.5 4q-9 5 -15 12t-5 11h-2z" />
<glyph unicode="&#xf2;" d="M16 399q0 -195 127 -317q117 -105 316 -105q98 0 185 26.5t154 72.5t123.5 108t95.5 132.5t66 147t39.5 150.5t12.5 144q0 171 -111 282q-101 107 -328 107q-133 0 -247 -46t-192 -122t-133.5 -174t-81.5 -201.5t-26 -204.5zM301 375q0 55 9.5 127.5t35.5 164t64.5 165.5 t105.5 125t150 51q66 0 125 -54q55 -51 55 -188q0 -26 -3 -67t-13.5 -104.5t-26.5 -126t-45 -127.5t-66 -114t-93 -80.5t-122 -31.5q-78 0 -127 62t-49 198zM502 1442q-6 28 26.5 47.5t82.5 19.5q72 0 100.5 -24.5t42.5 -75.5q18 -71 90 -123h-2q27 -17 26.5 -38t-30.5 -21 q-98 0 -184 47h10z" />
<glyph unicode="&#xf3;" d="M16 399q0 -195 127 -317q117 -105 316 -105q98 0 185 26.5t154 72.5t123.5 108t95.5 132.5t66 147t39.5 150.5t12.5 144q0 171 -111 282q-101 107 -328 107q-133 0 -247 -46t-192 -122t-133.5 -174t-81.5 -201.5t-26 -204.5zM301 375q0 55 9.5 127.5t35.5 164t64.5 165.5 t105.5 125t150 51q66 0 125 -54q55 -51 55 -188q0 -26 -3 -67t-13.5 -104.5t-26.5 -126t-45 -127.5t-66 -114t-93 -80.5t-122 -31.5q-78 0 -127 62t-49 198zM601 1247q-2 20 23 39q80 58 95 123q12 49 43 74.5t100 25.5q52 0 81 -27.5t19 -68.5q-7 -27 -28.5 -49t-96.5 -78 q-103 -59 -202 -59q-32 0 -34 20z" />
<glyph unicode="&#xf4;" d="M16 399q0 -195 127 -317q117 -105 316 -105q98 0 185 26.5t154 72.5t123.5 108t95.5 132.5t66 147t39.5 150.5t12.5 144q0 171 -111 282q-101 107 -328 107q-133 0 -247 -46t-192 -122t-133.5 -174t-81.5 -201.5t-26 -204.5zM301 375q0 55 9.5 127.5t35.5 164t64.5 165.5 t105.5 125t150 51q66 0 125 -54q55 -51 55 -188q0 -26 -3 -67t-13.5 -104.5t-26.5 -126t-45 -127.5t-66 -114t-93 -80.5t-122 -31.5q-78 0 -127 62t-49 198zM414 1250.5q-10 19.5 6 33.5q28 24 56.5 50.5t44.5 43t18 19.5l41 41q62 69 156 69q51 0 91.5 -24t61.5 -64 q24 -56 76 -116q18 -20 2.5 -44t-47.5 -24q-108 0 -160 61q-28 33 -59 80l-13 -12q-60 -60 -94 -88q-54 -45 -145 -45q-25 0 -35 19.5z" />
<glyph unicode="&#xf5;" d="M16 399q0 -195 127 -317q117 -105 316 -105q98 0 185 26.5t154 72.5t123.5 108t95.5 132.5t66 147t39.5 150.5t12.5 144q0 171 -111 282q-101 107 -328 107q-133 0 -247 -46t-192 -122t-133.5 -174t-81.5 -201.5t-26 -204.5zM301 375q0 55 9.5 127.5t35.5 164t64.5 165.5 t105.5 125t150 51q66 0 125 -54q55 -51 55 -188q0 -26 -3 -67t-13.5 -104.5t-26.5 -126t-45 -127.5t-66 -114t-93 -80.5t-122 -31.5q-78 0 -127 62t-49 198zM404 1319q2 10 8 32.5t8 32.5q17 58 45.5 81.5t75.5 23.5q25 0 92 -23l117 -41l12 -4q59 -22 84 -22q29 0 66 71 q5 11 19.5 13.5t29.5 -4.5h-4q12 -3 20 -8.5t6 -10.5q-2 -16 -8 -46t-8 -46q-9 -43 -32.5 -59.5t-84.5 -16.5q-39 0 -129 31q-18 5 -55 16.5t-55 16.5q-51 14 -64 14q-34 0 -70 -63q-5 -12 -19.5 -15t-31.5 4q-9 5 -15 12t-5 11h-2z" />
<glyph unicode="&#xf6;" d="M16 399q0 -195 127 -317q117 -105 316 -105q98 0 185 26.5t154 72.5t123.5 108t95.5 132.5t66 147t39.5 150.5t12.5 144q0 171 -111 282q-101 107 -328 107q-133 0 -247 -46t-192 -122t-133.5 -174t-81.5 -201.5t-26 -204.5zM301 375q0 55 9.5 127.5t35.5 164t64.5 165.5 t105.5 125t150 51q66 0 125 -54q55 -51 55 -188q0 -26 -3 -67t-13.5 -104.5t-26.5 -126t-45 -127.5t-66 -114t-93 -80.5t-122 -31.5q-78 0 -127 62t-49 198zM395 1333q0 66 58 114t130 48q73 0 110.5 -33t37.5 -78q0 -61 -56 -109t-135 -48q-60 0 -102.5 26.5t-42.5 79.5z M780 1333q0 66 58.5 114t130.5 48t109.5 -33t37.5 -78q0 -61 -55.5 -109t-134.5 -48q-60 0 -103 26.5t-43 79.5z" />
<glyph unicode="&#xf7;" d="M16 596q-6 -35 25 -59.5t82 -24.5h979q50 0 89.5 24.5t45.5 59.5q5 36 -25.5 60t-81.5 24h-978q-51 0 -90.5 -24.5t-45.5 -59.5zM422 299q-8 -50 29 -83.5t104 -33.5q70 0 119 35.5t59 83.5q6 48 -32 83.5t-103 35.5q-67 0 -117 -36t-59 -85zM524 889q-8 -50 30 -83.5 t105 -33.5q69 0 118.5 35.5t58.5 83.5q6 46 -31.5 81.5t-102.5 35.5q-70 0 -120 -35.5t-58 -83.5z" />
<glyph unicode="&#xf8;" d="M21 -7q3 -23 20 -40q25 -20 68 -14t69 32q5 6 47 58q108 -54 244 -54q110 0 217.5 37.5t185.5 102.5q91 84 153.5 212t86 237t23.5 200q0 142 -74 240q27 32 35 40q6 8 17 22t15 19q14 13 11.5 36t-19.5 36q-31 25 -68.5 26t-64.5 -28l-47 -57q-79 49 -244 49 q-153 0 -288 -55.5t-224 -180.5q-83 -116 -122 -258t-39 -256q0 -166 86 -278q-6 -7 -19 -21t-20 -22q-40 -46 -41 -47q-11 -13 -8 -36zM299 344v18v19q0 38 5.5 90t19 126.5t41 143.5t66.5 130t101.5 98t139.5 37q75 0 143 -64zM346 178l516 600q-1 -170 -45.5 -323.5 t-105.5 -227.5q-98 -114 -226 -114q-70 0 -139 65z" />
<glyph unicode="&#xf9;" horiz-adv-x="1110" d="M27 203q0 -107 85 -165t210 -58q24 0 59.5 4.5t92.5 21.5t99 45q52 38 89 90v-28q-3 -44 39.5 -77.5t101.5 -33.5q56 0 97 29.5t40 70.5v17q0 107 70 495q46 262 92 424q6 34 -36 61t-89 21q-22 0 -39 -10l4 4q-4 -2 -14 -2q-56 -10 -90.5 -47t-36.5 -82q-3 -86 -35 -250 q-24 -128 -57.5 -249t-63.5 -175h2q-30 -48 -65.5 -81t-68 -47.5t-54.5 -19.5t-39 -5q-107 0 -107 139q0 57 31 197l57 299q1 7 4.5 19.5t4.5 16.5q7 36 45 191q7 39 -35.5 69.5t-95.5 24.5q-15 0 -27 -4h4q-1 0 -5 -1t-5 -1q-17 0 -21 -2h4q-55 -10 -83 -46.5t-31 -82.5 q-3 -37 -15 -96l-102 -543q-16 -101 -16 -133zM481 1442q-6 28 26.5 47.5t82.5 19.5q72 0 100.5 -24.5t42.5 -75.5q18 -71 90 -123h-2q27 -17 26.5 -38t-30.5 -21q-98 0 -184 47h10z" />
<glyph unicode="&#xfa;" horiz-adv-x="1110" d="M27 203q0 -107 85 -165t210 -58q24 0 59.5 4.5t92.5 21.5t99 45q52 38 89 90v-28q-3 -44 39.5 -77.5t101.5 -33.5q56 0 97 29.5t40 70.5v17q0 107 70 495q46 262 92 424q6 34 -36 61t-89 21q-22 0 -39 -10l4 4q-4 -2 -14 -2q-56 -10 -90.5 -47t-36.5 -82q-3 -86 -35 -250 q-24 -128 -57.5 -249t-63.5 -175h2q-30 -48 -65.5 -81t-68 -47.5t-54.5 -19.5t-39 -5q-107 0 -107 139q0 57 31 197l57 299q1 7 4.5 19.5t4.5 16.5q7 36 45 191q7 39 -35.5 69.5t-95.5 24.5q-15 0 -27 -4h4q-1 0 -5 -1t-5 -1q-17 0 -21 -2h4q-55 -10 -83 -46.5t-31 -82.5 q-3 -37 -15 -96l-102 -543q-16 -101 -16 -133zM560 1247q-2 20 23 39q80 58 95 123q12 49 43 74.5t100 25.5q52 0 81 -27.5t19 -68.5q-7 -27 -28.5 -49t-96.5 -78q-103 -59 -202 -59q-32 0 -34 20z" />
<glyph unicode="&#xfb;" horiz-adv-x="1110" d="M27 203q0 -107 85 -165t210 -58q24 0 59.5 4.5t92.5 21.5t99 45q52 38 89 90v-28q-3 -44 39.5 -77.5t101.5 -33.5q56 0 97 29.5t40 70.5v17q0 107 70 495q46 262 92 424q6 34 -36 61t-89 21q-22 0 -39 -10l4 4q-4 -2 -14 -2q-56 -10 -90.5 -47t-36.5 -82q-3 -86 -35 -250 q-24 -128 -57.5 -249t-63.5 -175h2q-30 -48 -65.5 -81t-68 -47.5t-54.5 -19.5t-39 -5q-107 0 -107 139q0 57 31 197l57 299q1 7 4.5 19.5t4.5 16.5q7 36 45 191q7 39 -35.5 69.5t-95.5 24.5q-15 0 -27 -4h4q-1 0 -5 -1t-5 -1q-17 0 -21 -2h4q-55 -10 -83 -46.5t-31 -82.5 q-3 -37 -15 -96l-102 -543q-16 -101 -16 -133zM393 1250.5q-10 19.5 6 33.5q28 24 56.5 50.5t44.5 43t18 19.5l41 41q62 69 156 69q51 0 91.5 -24t61.5 -64q24 -56 76 -116q18 -20 2.5 -44t-47.5 -24q-108 0 -160 61q-28 33 -59 80l-13 -12q-60 -60 -94 -88 q-54 -45 -145 -45q-25 0 -35 19.5z" />
<glyph unicode="&#xfc;" horiz-adv-x="1110" d="M27 203q0 -107 85 -165t210 -58q24 0 59.5 4.5t92.5 21.5t99 45q52 38 89 90v-28q-3 -44 39.5 -77.5t101.5 -33.5q56 0 97 29.5t40 70.5v17q0 107 70 495q46 262 92 424q6 34 -36 61t-89 21q-22 0 -39 -10l4 4q-4 -2 -14 -2q-56 -10 -90.5 -47t-36.5 -82q-3 -86 -35 -250 q-24 -128 -57.5 -249t-63.5 -175h2q-30 -48 -65.5 -81t-68 -47.5t-54.5 -19.5t-39 -5q-107 0 -107 139q0 57 31 197l57 299q1 7 4.5 19.5t4.5 16.5q7 36 45 191q7 39 -35.5 69.5t-95.5 24.5q-15 0 -27 -4h4q-1 0 -5 -1t-5 -1q-17 0 -21 -2h4q-55 -10 -83 -46.5t-31 -82.5 q-3 -37 -15 -96l-102 -543q-16 -101 -16 -133zM338 1333q0 66 58 114t130 48q73 0 110.5 -33t37.5 -78q0 -61 -56 -109t-135 -48q-60 0 -102.5 26.5t-42.5 79.5zM723 1333q0 66 58.5 114t130.5 48t109.5 -33t37.5 -78q0 -61 -55.5 -109t-134.5 -48q-60 0 -103 26.5t-43 79.5 z" />
<glyph unicode="&#xfd;" horiz-adv-x="980" d="M-113 -426q-9 -35 32.5 -63.5t96.5 -28.5q74 11 138.5 36t116.5 63.5t92.5 78t80 97t65 101.5t60.5 109l332 729q81 190 137 295q8 16 17 31q19 31 -9.5 62.5t-74.5 31.5h-15q-69 4 -120 -28.5t-66 -86.5q-58 -193 -246 -639q-18 -50 -39 -96q-10 68 -25 173t-27 192 t-23 170q-18 128 -21 196q-5 49 -49 83.5t-107 33.5h-43q-52 2 -87 -28.5t-23 -71.5v2q36 -146 63 -303q37 -209 53.5 -324t30.5 -285q3 -39 39 -66t90 -40l-53 -98q-19 -36 -40.5 -68t-53.5 -69t-72 -60.5t-82 -26.5q-59 -3 -105.5 -29t-62.5 -73zM493 1247q-2 20 23 39 q80 58 95 123q12 49 43 74.5t100 25.5q52 0 81 -27.5t19 -68.5q-7 -27 -28.5 -49t-96.5 -78q-103 -59 -202 -59q-32 0 -34 20z" />
<glyph unicode="&#xff;" horiz-adv-x="980" d="M-113 -426q-9 -35 32.5 -63.5t96.5 -28.5q74 11 138.5 36t116.5 63.5t92.5 78t80 97t65 101.5t60.5 109l332 729q81 190 137 295q8 16 17 31q19 31 -9.5 62.5t-74.5 31.5h-15q-69 4 -120 -28.5t-66 -86.5q-58 -193 -246 -639q-18 -50 -39 -96q-10 68 -25 173t-27 192 t-23 170q-18 128 -21 196q-5 49 -49 83.5t-107 33.5h-43q-52 2 -87 -28.5t-23 -71.5v2q36 -146 63 -303q37 -209 53.5 -324t30.5 -285q3 -39 39 -66t90 -40l-53 -98q-19 -36 -40.5 -68t-53.5 -69t-72 -60.5t-82 -26.5q-59 -3 -105.5 -29t-62.5 -73zM252 1333q0 66 58 114 t130 48q73 0 110.5 -33t37.5 -78q0 -61 -56 -109t-135 -48q-60 0 -102.5 26.5t-42.5 79.5zM637 1333q0 66 58.5 114t130.5 48t109.5 -33t37.5 -78q0 -61 -55.5 -109t-134.5 -48q-60 0 -103 26.5t-43 79.5z" />
<glyph unicode="&#x152;" horiz-adv-x="1835" d="M76 518q0 -114 32.5 -211t97 -173.5t171.5 -119.5t246 -43q72 0 133 6q3 0 9.5 1.5t10.5 1.5q21 0 27 2h-4q189 22 452 22q212 0 310 -4q64 0 112 31.5t66 79.5q10 35 -26.5 58t-80.5 9q-114 -31 -280 -31q-139 0 -166 15q-10 5 -10 53q0 44 8 88q6 33 19.5 98.5 t19.5 98.5q19 110 34 188q3 0 9.5 1t9.5 1q23 2 53 2q62 0 82 -2q65 -6 117.5 16.5t64.5 67.5q9 36 -32 63t-91 19q-60 -9 -143 -12h-37q42 224 43 227q6 27 43 225q13 0 34 1t38 1q27 1 67.5 2t66.5 2t38 1q70 0 143 -11q56 -8 102 12t52 60q6 36 -27.5 63.5t-83.5 26.5 q-185 -8 -397 -8q-144 0 -287 14q-136 13 -192 13q-125 0 -221.5 -28.5t-188.5 -88.5q-105 -70 -187.5 -166.5t-129 -188t-77 -189.5t-40.5 -168t-10 -126zM385 547q0 57 8 123t26.5 142.5t46 148.5t70.5 139t95 117t123 80t153 30q80 0 172 -41h-8v-14q-9 -102 -35 -252 q-77 -480 -153 -840h6q-49 -32 -91.5 -46.5t-107.5 -14.5q-72 0 -126 23t-87.5 61.5t-54.5 95t-29 116t-8 132.5z" />
<glyph unicode="&#x153;" horiz-adv-x="1640" d="M10 322q0 34 8 86.5t32 133.5t61 160.5t103.5 168t150.5 155.5q159 115 358 115q150 0 225 -47h-2q32 -16 64 -41q97 59 177.5 78.5t166.5 21.5q158 0 243.5 -69.5t85.5 -180.5q0 -93 -73 -207q-64 -96 -211 -168q-89 -43 -185 -58.5t-237 -20.5q1 -12 -0.5 -34.5 t4 -53.5t12.5 -64t25.5 -65t42.5 -57.5t63.5 -40.5t89.5 -15q87 0 183 41q40 17 75.5 -1.5t26.5 -52.5q-11 -36 -44.5 -66t-86.5 -44q-107 -21 -201 -21q-194 6 -295.5 81.5t-134.5 209.5q-32 -46 -59 -81t-66.5 -76.5t-77.5 -68t-87 -45t-99 -18.5q-65 0 -124 21.5 t-107.5 63t-77.5 109t-29 151.5zM297 397q0 -239 141 -239q79 0 145 58.5t106 142t68 179.5t39 165.5t11 105.5q0 41 -6 90.5t-13 56.5q-17 17 -25 24t-28.5 15.5t-46.5 8.5q-74 0 -136 -33t-103 -87.5t-72 -119.5t-47.5 -135.5t-24.5 -128t-8 -103.5zM766 309h2h-2z M985 506q161 23 334 186q84 81 84 203q0 63 -26.5 96t-67.5 33q-88 0 -187 -115q-56 -63 -90.5 -180.5t-46.5 -222.5z" />
<glyph unicode="&#x178;" d="M96 51q0 13 31 55h-2q0 4 74 82q2 2 13 12.5t13 12.5q9 6 54 70q79 103 149 256q-36 115 -90 278q-15 46 -44 139.5t-44 139.5q-1 2 -5.5 20t-8.5 25q-28 77 -31 86q-32 79 -43 112q-16 36 15 71t83 34q14 -2 37 -2t37 2q60 1 105.5 -32t54.5 -79q10 -47 30 -121 l125 -413q8 14 24.5 37.5t22.5 33.5q7 9 19 28.5t16 25.5q180 285 246 417q23 45 76.5 73t115.5 28h60q40 0 68 -27t8 -51q-24 -30 -113 -156l-465 -680q-12 -18 -64 -93t-79 -116q-15 -22 -65 -95t-77 -113q-38 -44 -103 -75t-120 -28h-49q-36 0 -55 12t-19 31zM418 1653 q0 66 58 114t130 48q73 0 110.5 -33t37.5 -78q0 -61 -56 -109.5t-137 -48.5q-58 0 -100.5 27.5t-42.5 79.5zM623 758q1 0 2 2h-2q-1 -2 0 -2zM803 1653q0 66 57.5 114t130.5 48t110.5 -33t37.5 -78q0 -61 -56 -109.5t-137 -48.5q-58 0 -100.5 27.5t-42.5 79.5z" />
<glyph unicode="&#x2c6;" horiz-adv-x="468" d="M-41 1250.5q-10 19.5 6 33.5q28 24 56.5 50.5t44.5 43t18 19.5l41 41q62 69 156 69q51 0 91.5 -24t61.5 -64q24 -56 76 -116q18 -20 2.5 -44t-47.5 -24q-108 0 -160 61q-28 33 -59 80l-13 -12q-60 -60 -94 -88q-54 -45 -145 -45q-25 0 -35 19.5z" />
<glyph unicode="&#x2dc;" horiz-adv-x="468" d="M-55 1319q2 10 8 32.5t8 32.5q17 58 45.5 81.5t75.5 23.5q25 0 92 -23l117 -41l12 -4q59 -22 84 -22q29 0 66 71q5 11 19.5 13.5t29.5 -4.5h-4q12 -3 20 -8.5t6 -10.5q-2 -16 -8 -46t-8 -46q-9 -43 -32.5 -59.5t-84.5 -16.5q-39 0 -129 31q-18 5 -55 16.5t-55 16.5 q-51 14 -64 14q-34 0 -70 -63q-5 -12 -19.5 -15t-31.5 4q-9 5 -15 12t-5 11h-2z" />
<glyph unicode="&#x2000;" horiz-adv-x="925" />
<glyph unicode="&#x2001;" horiz-adv-x="1851" />
<glyph unicode="&#x2002;" horiz-adv-x="925" />
<glyph unicode="&#x2003;" horiz-adv-x="1851" />
<glyph unicode="&#x2004;" horiz-adv-x="617" />
<glyph unicode="&#x2005;" horiz-adv-x="462" />
<glyph unicode="&#x2006;" horiz-adv-x="308" />
<glyph unicode="&#x2007;" horiz-adv-x="308" />
<glyph unicode="&#x2008;" horiz-adv-x="231" />
<glyph unicode="&#x2009;" horiz-adv-x="370" />
<glyph unicode="&#x200a;" horiz-adv-x="102" />
<glyph unicode="&#x2010;" horiz-adv-x="641" d="M90 602q-6 -38 31 -67t88 -27h22q2 0 6.5 1t6.5 1h12q49 0 201 -8q60 -1 104 24.5t55 67.5v2q7 33 -31 62.5t-85 31.5q-57 -4 -146 -4q-79 0 -108 2q-55 -2 -102 -26.5t-54 -59.5z" />
<glyph unicode="&#x2011;" horiz-adv-x="641" d="M90 602q-6 -38 31 -67t88 -27h22q2 0 6.5 1t6.5 1h12q49 0 201 -8q60 -1 104 24.5t55 67.5v2q7 33 -31 62.5t-85 31.5q-57 -4 -146 -4q-79 0 -108 2q-55 -2 -102 -26.5t-54 -59.5z" />
<glyph unicode="&#x2012;" horiz-adv-x="641" d="M90 602q-6 -38 31 -67t88 -27h22q2 0 6.5 1t6.5 1h12q49 0 201 -8q60 -1 104 24.5t55 67.5v2q7 33 -31 62.5t-85 31.5q-57 -4 -146 -4q-79 0 -108 2q-55 -2 -102 -26.5t-54 -59.5z" />
<glyph unicode="&#x2013;" horiz-adv-x="1236" d="M92 713q-7 -33 33 -55.5t90 -24.5q43 2 195 2q340 0 653 -6q56 2 98.5 28t52.5 66q8 38 -24 68.5t-84 29.5q-245 -10 -440 -10q-219 0 -422 6q-56 -1 -99.5 -31.5t-52.5 -72.5z" />
<glyph unicode="&#x2014;" horiz-adv-x="1323" d="M92 719q-8 -37 26 -66t85 -28h835q8 0 22 -1t19 -1h72q57 -1 97.5 25t51.5 67q9 37 -27 66.5t-87 31.5q-140 -4 -197 -4h-512q-120 0 -231 6q-60 1 -102.5 -26.5t-51.5 -69.5z" />
<glyph unicode="&#x2018;" horiz-adv-x="468" d="M190 1196q-12 -23 17 -46.5t67 -25.5q18 2 54 2h32l5 -2h-3q64 -10 76 29q25 118 125 254q12 17 -8.5 34t-50.5 17q-90 0 -131 -47q-61 -63 -82 -86t-52 -60.5t-49 -68.5z" />
<glyph unicode="&#x2019;" horiz-adv-x="468" d="M182 1174q-12 -17 9 -34.5t51 -17.5q90 0 131 47q143 146 184 215q12 23 -18 46.5t-68 25.5q-18 -2 -53 -2h-17q-5 0 -9 1t-5 1h-8q-62 9 -68 -14q-29 -135 -129 -268z" />
<glyph unicode="&#x201a;" horiz-adv-x="468" d="M-80 -162q-11 -14 10.5 -30.5t49.5 -16.5q85 0 133 45q113 119 172 209q15 29 -12.5 55.5t-67.5 24.5q-63 -3 -113 -31.5t-69 -70.5q-37 -87 -103 -185z" />
<glyph unicode="&#x201c;" horiz-adv-x="768" d="M217 1204q-17 -29 13 -55.5t75 -24.5q55 4 104 33.5t70 67.5q48 105 105 182q12 17 -9 34t-51 17q-90 0 -131 -47q-139 -148 -176 -207zM508 1204q-17 -29 14 -55.5t76 -24.5q55 3 103 32.5t69 68.5q50 106 107 182q12 17 -10 34t-52 17q-88 0 -129 -47 q-138 -144 -178 -207z" />
<glyph unicode="&#x201d;" horiz-adv-x="768" d="M182 1169q-10 -15 11 -32t49 -17q84 0 131 47q76 78 115.5 123.5t68.5 91.5q13 24 -18 47t-70 25q-18 -2 -53 -2h-17q-2 0 -22 4q-59 0 -66 -18q-36 -141 -129 -269zM473 1169q-10 -15 11.5 -32t50.5 -17q90 0 131 47q143 153 182 215q15 27 -17 50.5t-77 21.5 q-18 -2 -47 -2h-15q-2 0 -22 4q-25 0 -47 -5.5t-23 -12.5q-30 -136 -127 -269z" />
<glyph unicode="&#x201e;" horiz-adv-x="768" d="M-80 -162q-7 -9 1 -20t25.5 -19t35.5 -8q83 0 131 45q110 116 174 209q15 29 -13 55.5t-69 24.5q-63 -3 -112 -31.5t-68 -70.5q-40 -93 -105 -185zM213 -162q-6 -10 0 -20.5t23.5 -18.5t35.5 -8q86 0 134 45q136 145 176 209q17 28 -14 55t-74 25q-62 -3 -110 -30.5 t-67 -69.5q-48 -113 -104 -187z" />
<glyph unicode="&#x2022;" horiz-adv-x="681" d="M68 723q-19 -109 54.5 -188.5t207.5 -79.5q131 0 228 79t120 189q17 115 -56 191.5t-198 76.5q-133 0 -235 -80t-121 -188z" />
<glyph unicode="&#x2026;" horiz-adv-x="2048" d="M100 92q0 67 63.5 113.5t131.5 46.5q62 0 100.5 -30.5t38.5 -78.5q0 -61 -56 -111t-130 -50q-56 0 -102 26.5t-46 83.5zM778 92q0 67 63.5 113.5t131.5 46.5q63 0 102 -30.5t39 -78.5q0 -61 -57 -111t-131 -50q-56 0 -102 26.5t-46 83.5zM1458 92q0 67 62.5 113.5 t130.5 46.5q63 0 102 -30.5t39 -78.5q0 -61 -57 -111t-131 -50q-56 0 -101 26.5t-45 83.5z" />
<glyph unicode="&#x202f;" horiz-adv-x="370" />
<glyph unicode="&#x2039;" horiz-adv-x="382" d="M31 633l28 160q105 52 174.5 97t219.5 159l-35 -211q-130 -83 -203 -119q51 -36 81 -63.5t71 -82.5l-50 -272q-38 62 -52.5 84.5t-43 65t-44 60t-41 44t-50 44t-55.5 34.5z" />
<glyph unicode="&#x203a;" horiz-adv-x="382" d="M-8 377l35 205l39 20h-3q73 47 173 98q-52 42 -84.5 79t-69.5 95l47 238q101 -146 161 -209t132 -110l-31 -168q-109 -54 -179.5 -97.5t-219.5 -150.5z" />
<glyph unicode="&#x205f;" horiz-adv-x="462" />
<glyph unicode="&#x20ac;" d="M-106 864q4 32 41 52t88 18h51q5 0 15 -1t15 -1h37q37 91 87.5 169t126.5 149t168.5 120.5t217 79t269.5 29.5q99 0 196 -23q52 -9 79.5 -48t10.5 -79q-25 -57 -110 -57q-46 0 -66 14h2q-72 35 -174 35q-173 0 -300.5 -108.5t-198.5 -282.5h114q48 0 68 2q42 -2 77 -21.5 t29 -44.5q-6 -32 -43 -52t-88 -19h-192q-22 -85 -25 -170h100q37 0 62 4q47 5 83 -17t30 -53t-43.5 -51t-88.5 -19h-34l-111 3q22 -167 117 -269t264 -102q91 0 184 35q3 0 15 6q-2 0 0 2q33 13 65.5 13t53.5 -15t12 -37q-22 -54 -73.5 -92.5t-121.5 -48.5 q-115 -13 -196 -13q-392 0 -539 224q-80 129 -92 294h-60q-42 0 -73 21t-27 47q6 33 47 54.5t94 19.5q8 -2 19 -2q7 87 24 166h-106q-43 0 -73.5 21t-26.5 48z" />
<glyph unicode="&#x2122;" horiz-adv-x="1406" d="M98 1391q-3 -22 20.5 -38t61.5 -16h123q-3 -16 -18.5 -109t-24.5 -145q-27 -148 -43 -258q0 -25 24.5 -44t63.5 -19t73 18.5t38 44.5l90 512h121q36 0 67 17l-94 -531q-3 -26 21 -43.5t65 -17.5q43 -1 74.5 16.5t36.5 44.5q21 139 32 201q5 -42 17 -117t14 -92 q6 -24 32.5 -38.5t65.5 -14.5t70 14t43 37q92 185 111 223q-7 -35 -9 -46.5t-4.5 -26t-7.5 -45.5q-12 -62 -18 -95q0 -24 25 -42.5t63 -18.5q41 0 71 17.5t35 43.5l97 537q3 35 -28 60.5t-81 25.5q-49 0 -92 -22.5t-62 -57.5q-79 -164 -159 -330q-6 46 -13 85.5t-10 60.5 q-2 17 -11 80.5t-15 101.5q-6 36 -42 59t-90 23q-60 0 -106 -39q-14 39 -82 39h-446q-36 0 -65.5 -16t-33.5 -39z" />
<glyph unicode="&#x25fc;" horiz-adv-x="1116" d="M0 0v1116h1116v-1116h-1116z" />
<glyph unicode="&#xfb01;" horiz-adv-x="1024" d="M-342 -381q19 52 143 68q51 6 123 84q77 114 150 536q32 211 57 357q40 241 55 352q-32 6 -52 28.5t-15 47.5q6 25 31.5 40.5t64.5 16.5q25 146 76.5 241.5t140.5 174.5q72 61 225 61q119 0 239 -40t146 -73l39 -73q0 -60 -49 -117t-131 -57q-58 0 -99.5 28.5t-41.5 81.5 q0 23 8 54q7 26 -27 44t-65 13q-41 -6 -74 -37t-55.5 -82t-37.5 -102.5t-28 -118.5h27q8 0 19 1t16 1h51q41 0 67 -21t21 -47q-6 -30 -43 -49.5t-82 -17.5h-100q-9 -62 -28.5 -175t-25.5 -149q-10 -62 -29 -175.5t-26 -154.5q-1 -7 -4 -20.5t-4 -20.5l-6 -30 q-16 -84 -23 -127q-7 -39 -13.5 -71t-20.5 -82t-30 -91t-41 -91t-54.5 -89.5t-71 -79t-89.5 -67t-110 -46t-133 -22.5q-43 1 -72 33t-18 63zM565 109q2 12 11.5 52t15.5 70q3 17 16 80q10 56 25 138q12 71 24 135q61 320 52 415q-3 37 23.5 67t76.5 36q34 3 70 12l125 -92 l-5 -21q-1 -3 -4 -14t-4 -14l2 2q-10 -58 -26 -137q-1 -5 -29 -166q-4 -21 -13.5 -79t-15.5 -87q-44 -244 -57 -395q-3 -44 -49.5 -72.5t-108.5 -28.5h-14q-51 -1 -85.5 30.5t-29.5 68.5z" />
<glyph unicode="&#xfb02;" horiz-adv-x="1075" d="M-342 -381q20 52 143 68q38 4 70.5 30.5t52.5 53.5q42 50 76 181.5t74 354.5q11 65 31 188.5t28 168.5q39 233 53 352q-32 6 -52 28.5t-15 47.5q13 54 98 57q27 146 78 243t135 173q72 61 227 61q119 0 236 -37.5t137 -68.5l-4 2q22 -16 34 -36.5t14 -33.5l1 -12 q-3 -16 -10.5 -52.5t-15.5 -75.5t-15 -79q-6 -24 -16 -90q-7 -50 -14 -82q-53 -316 -93 -584q-3 -18 -6 -39q-1 -7 -4 -20.5t-4 -20.5q-28 -158 -16 -192q18 -68 41 -70q23 0 77 15q3 1 10.5 3t10.5 3q40 13 68.5 -10.5t17.5 -55.5q-15 -32 -56.5 -57t-91.5 -33 q-62 -8 -104 -8q-262 0 -248 248q2 39 17 133q0 1 1 5t1 5q7 57 10 66q0 2 1 5t1 5l6 30q0 1 1 5.5t1 5.5q19 123 74 444q30 179 43 287q11 87 16 196q3 25 -31 41.5t-69 18.5q-37 -11 -69.5 -44t-56 -81.5t-40.5 -101t-29 -113.5h27q4 0 11.5 1t10.5 1h48q45 0 75.5 -20.5 t26.5 -47.5q-6 -30 -42.5 -49.5t-80.5 -17.5h-100q-5 -32 -25.5 -145.5t-30.5 -178.5q-16 -99 -55 -330q-4 -34 -8 -49q-2 -8 -5 -25.5t-5 -25.5q-3 -15 -9.5 -49t-9.5 -49q-10 -53 -19.5 -96t-31.5 -110t-49 -119.5t-71 -111.5t-97 -99t-128.5 -69t-164.5 -34 q-46 1 -73.5 32.5t-18.5 63.5z" />
</font>
</defs>
</svg>
