<?xml version="1.0" encoding="utf-8"?>
<!-- Generator: Adobe Illustrator 16.0.0, SVG Export Plug-In . SVG Version: 6.00 Build 0)  -->
<!DOCTYPE svg PUBLIC "-//W3C//DTD SVG 1.0//EN" "http://www.w3.org/TR/2001/REC-SVG-20010904/DTD/svg10.dtd">
<svg version="1.0" id="Capa_1" xmlns="http://www.w3.org/2000/svg" xmlns:xlink="http://www.w3.org/1999/xlink" x="0px" y="0px"
	 width="296px" height="100.5px" viewBox="0 0 296 100.5" enable-background="new 0 0 296 100.5" xml:space="preserve">
<g>
	<g>
		<g>
			<path fill="#8CC3E7" d="M36.13,65.198c0,0.028,0.007,0.054,0.01,0.083c0.003,0.069,0.009,0.139,0.022,0.207l-0.004,0.002
				c0,0,0.02,0.131,0.103,0.347c0.213,0.539,0.855,1.639,2.75,2.757c1.88-1.244,2.446-2.399,2.614-2.933
				c0.063-0.197,0.074-0.313,0.074-0.313l-0.004-0.001c0.01-0.078,0.014-0.156,0.014-0.237c0-0.017,0.004-0.035,0.004-0.056
				c-0.004-0.181-0.044-0.356-0.099-0.518c-0.075-0.229-0.192-0.434-0.349-0.593c-0.253-0.266-0.591-0.427-0.959-0.415
				c-0.7,0.018-1.327,0.644-1.389,1.419c-0.099-0.771-0.759-1.366-1.459-1.348c-0.415,0.01-0.778,0.236-1.021,0.577
				c-0.128,0.186-0.226,0.406-0.274,0.647C36.141,64.947,36.126,65.069,36.13,65.198z"/>
		</g>
	</g>
	<g>
		<g>
			<path fill="#8CC3E7" d="M252.289,63.759c0,0.026,0.005,0.054,0.005,0.081c0.007,0.07,0.012,0.14,0.025,0.209l-0.005,0.001
				c0,0,0.018,0.131,0.102,0.345c0.216,0.541,0.857,1.641,2.752,2.76c1.878-1.245,2.447-2.4,2.615-2.934
				c0.062-0.197,0.071-0.313,0.071-0.313l-0.004-0.003c0.012-0.074,0.016-0.154,0.017-0.233c0-0.018,0.004-0.036,0.004-0.057
				c-0.005-0.182-0.045-0.356-0.098-0.519c-0.078-0.229-0.195-0.43-0.352-0.592c-0.253-0.266-0.59-0.428-0.959-0.415
				c-0.699,0.019-1.33,0.645-1.391,1.42c-0.098-0.771-0.755-1.366-1.458-1.349c-0.415,0.01-0.777,0.235-1.021,0.577
				c-0.128,0.186-0.227,0.405-0.273,0.649C252.298,63.507,252.283,63.632,252.289,63.759z"/>
		</g>
	</g>
	<g>
		<path fill="#8CC3E7" d="M160.119,81.942c-1.722-0.097-5.045-2.029-9.52-2.55c-3.427-0.399-6.478,1.617-9.421,5.519
			c-0.414,0.555-1.037,1.422,0.557,1.583c3.453,0.346,5.652,1.94,9.521,2.2c3.219,0.218,6.064-1.813,9.48-5.177
			C161.539,82.718,161.424,82.013,160.119,81.942z"/>
		<path fill="#8CC3E7" d="M139.649,76.383c0.538,0.244,1.016,0.517,1.631-0.739c1.546-3.17,2.626-6.015,2.27-8.793
			c-0.315-2.386-2.192-4.506-4.769-7.328c-0.647-0.705-1.178-0.462-1.595,0.607c-0.307,0.763-2.272,4.602-2.813,8.459
			C133.956,71.551,135.857,74.637,139.649,76.383z"/>
		<path fill="#8CC3E7" d="M167.871,60.651c-0.253-0.19-0.494-0.323-0.724-0.438c-2.007-0.942-4.915,1.533-7.438,3.161
			c-1.579,1.01-4.633,1.969-6.73,1.781c-1.325-0.107-1.276-1.396,0.059-1.384c1.331,0.015,3.318-0.65,6.102-2.403
			c1.452-0.916,3.108-2.594,5.219-3.171c-0.611-2.447-2.476-4.728-3.489-5.41c-0.594-0.398-1.206-0.206-1.39,0.272
			c-1.622,4.279-4.437,5.248-5.905,5.966c-1.477,0.717-3.915,1.229-6.118,3.959c-2.023,2.526-2.861,6.641-0.283,9.692
			c-1.73,1.395-9.059,7.409-11.953,15.738c-0.469,1.356-0.824,2.77-1.018,4.243c-0.092,0.647,0.302,1.141,0.78,1.295
			c0.266,0.09,0.562,0.09,0.829-0.012c0.481-0.189,0.874-0.586,1.098-1.247c0.098-0.28,0.172-0.608,0.226-1.007
			c0.089-0.727,0.334-2.088,0.938-3.832c1.271-3.665,4.14-9.016,10.507-13.858v-0.001c2.648,2.063,5.413,2.792,8.248,1.63
			c3.195-1.308,5.081-4.36,6.319-8.006c1.496-4.404,3.079-5.172,4.576-5.636C168.549,61.729,168.725,61.302,167.871,60.651z"/>
	</g>
	<path fill="#8CC3E7" d="M132.864,91.965c-0.094-0.436-0.481-0.871-1.149-1.294c-0.369-0.234-1.063-0.552-1.943-0.956
		c-1.227-0.563-2.754-1.265-3.873-1.956c-0.251-0.176-0.54-0.382-0.854-0.615c-2.409-1.904-5.226-4.435-7.456-7.753
		c-0.974-1.654-1.304-3.658-1.008-6.118c3.835-0.513,6.471-2.607,7.86-6.319c0.151-0.887-0.115-1.788-0.746-2.534
		c-0.706-0.836-1.791-1.354-2.831-1.354c-0.592,0-1.14,0.159-1.599,0.449c-2.184,1.175-3.137,3.413-3.667,5.006
		c-0.249,0.814-0.453,1.613-0.609,2.384c-1.603,0.047-3.129-0.147-4.21-0.286c-0.253-0.032-0.482-0.06-0.71-0.085
		c-2.762-0.146-7.374-1.289-12.712-2.614c-7.107-1.765-15.952-3.959-24.528-4.836c-10.241-0.384-19.314,2.03-24.92,4.007
		c-0.927,0.232-1.896,0.418-2.749,0.582c-0.965,0.183-1.728,0.33-2.148,0.487c-0.732,0.271-1.197,0.612-1.38,1.015
		c-0.108,0.236-0.119,0.483-0.032,0.716c0.071,0.189,0.316,0.629,1.059,0.629c0.319,0,0.704-0.083,1.144-0.245
		c0.402-0.151,1.083-0.483,1.945-0.904c0.981-0.478,2.201-1.074,3.251-1.518c4.679-1.433,11.971-3.14,20.141-3.14
		c1.197,0,2.395,0.038,3.528,0.107c8.004,1.019,16.496,3.308,23.32,5.15c5.729,1.545,10.676,2.88,13.765,3.057
		c0.331,0.012,0.773,0.064,1.298,0.123c0.988,0.115,2.239,0.255,3.582,0.252c-0.188,2.653,0.291,4.944,1.441,6.843
		c1.603,2.255,3.536,4.024,5.479,5.557c1.612,1.339,2.99,1.206,3.875,1.774l0.017-1.074c0.001,0,0.002,0,0.004,0
		c0.281,1,0.523,1.422,0.691,1.521c0.923,0.668,1.897,2.026,2.68,2.679c0.738,0.619,1.32,1.377,1.692,1.611
		c0.536,0.341,1.001,0.649,1.389,0.649c0.089,0,0.176,0.058,0.257,0.042c0.252-0.06,0.456-0.168,0.583-0.371
		C132.877,92.426,132.919,92.216,132.864,91.965z M121.143,65.357c0.647,0,0.994,0.433,1.03,1.294
		c-0.837,2.203-2.506,3.528-5.089,4.03c0.129-0.503,0.276-1.017,0.445-1.562C117.85,66.937,119.911,65.357,121.143,65.357z"/>
	<path fill="#8CC3E7" d="M255.772,69.18c-0.182-0.404-0.647-0.748-1.381-1.021c-0.422-0.158-1.184-0.304-2.148-0.488
		c-0.854-0.164-1.825-0.35-2.708-0.569c-5.799-2.039-14.835-4.386-24.994-4.017c-8.543,0.874-17.387,3.068-24.493,4.831
		c-5.342,1.327-9.956,2.471-12.746,2.619c-0.198,0.022-0.426,0.05-0.68,0.082c-1.052,0.135-2.606,0.33-4.21,0.286
		c-0.159-0.785-0.363-1.586-0.613-2.394c-0.524-1.583-1.475-3.82-3.633-4.977c-1.071-0.681-2.469-0.618-3.646,0.164
		c-1.171,0.777-1.768,2.025-1.537,3.348c1.369,3.623,4.006,5.717,7.839,6.228c0.295,2.457-0.037,4.46-0.997,6.093
		c-6.058,9.032-15.309,13.304-19.185,14.774c-5.17,1.704-10.547,1.538-14.466,0.998c-1.216-0.236-2.592-0.629-3.732-0.961
		c-0.926-0.267-1.658-0.48-2.09-0.548c-0.78-0.112-1.357-0.037-1.713,0.229c-0.206,0.153-0.332,0.364-0.365,0.6
		c-0.038,0.247,0.023,0.487,0.175,0.696c0.262,0.355,0.788,0.595,1.561,0.708c0.436,0.068,1.199,0.08,2.163,0.097
		c0.316,0.005,0.662,0.012,1.013,0.021c2.873,0.653,5.527,0.987,8.058,0.987c3.478,0,6.716-0.638,9.956-1.907
		c4.443-1.56,13.656-5.704,20.147-14.847c1.136-1.874,1.612-4.164,1.422-6.813c1.371,0.009,2.63-0.14,3.583-0.252
		c0.525-0.059,0.969-0.111,1.31-0.124c3.075-0.176,8.021-1.51,13.749-3.056c6.824-1.841,15.318-4.132,23.294-5.147
		c9.447-0.601,18.101,1.316,23.653,3.012c1.092,0.458,2.307,1.053,3.285,1.528c0.867,0.424,1.554,0.76,1.959,0.911
		c1.625,0.604,2.08-0.066,2.199-0.379C255.89,69.66,255.879,69.414,255.772,69.18z M179.893,69.2
		c0.157,0.485,0.301,0.981,0.428,1.481c-2.585-0.502-4.251-1.827-5.087-4.03c0.032-0.819,0.347-1.254,0.935-1.293
		C177.396,65.268,179.541,66.856,179.893,69.2z"/>
</g>
<g>
	<g>
		<path fill="#16377A" d="M23.962,37.195c0.158,0.631,0.313,1.225,0.451,1.713c0.055,0.137,0.089,0.387,0.139,0.488
			c0.218,0.803,0.356,1.292,0.486,1.708c0.277,0.977-0.704,2.085-2.138,2.246c-0.038-0.007-0.075-0.014-0.112-0.021
			c-0.131,0.018-0.263,0.036-0.394,0.054c-1.389,0.227-2.598-0.327-2.774-1.317c-0.03-0.213-0.125-0.634-0.216-1.021
			c-0.086-0.35-0.207-0.949-0.313-1.441c-0.096-0.421-0.223-1.056-0.318-1.478c-0.121-0.599-0.232-1.126-0.344-1.655
			c-2.523,0.356-5.045,0.723-7.565,1.1c-0.183,0.584-0.365,1.167-0.547,1.751c-0.202,0.61-0.363,1.252-0.569,1.827
			c-0.295,0.952-0.535,1.788-0.668,2.352c-0.268,1.129-1.361,2.095-2.901,2.299c-0.149-0.013-0.22-0.001-0.327,0.015
			c-1.035,0.162-2.098-0.541-1.822-1.348c0.76-1.9,1.63-4.324,2.393-6.548c0.208-0.564,0.417-1.129,0.625-1.693
			c1.289-3.576,3.883-11.075,5.197-14.963c0.431-1.15,1.919-2.019,3.504-2.206c0.262-0.001,0.519-0.037,0.776-0.074
			c1.507-0.211,3.038,0.304,3.304,1.426c0.209,0.985,0.419,1.97,0.67,2.986c0.024,0.178,0.085,0.351,0.11,0.529
			c0.06,0.172,0.094,0.422,0.156,0.594c0.02,0.143,0.07,0.244,0.09,0.386C21.896,29.002,22.932,33.098,23.962,37.195z
			 M11.724,34.688c2.172-0.285,3.076-0.414,3.834-0.524c0.867-0.125,1.373-0.197,2.2-0.35c-0.274-1.158-0.518-2.354-0.793-3.512
			c-0.28-1.192-0.592-2.344-0.868-3.501c-0.307-1.116-0.497-1.923-0.604-2.415c-0.001-0.012-0.003-0.023-0.005-0.036
			c-0.031,0.041-0.026,0.076-0.059,0.117c-0.167,0.386-0.3,0.768-0.463,1.19c-0.215,0.575-0.435,1.114-0.598,1.536
			c-0.136,0.346-0.24,0.651-0.288,0.84C13.289,30.251,12.503,32.469,11.724,34.688z"/>
		<path fill="#16377A" d="M33.36,21.91c0.183-0.022,0.362-0.081,0.545-0.103c0.475-0.058,0.915-0.111,1.277-0.191
			c1.085-0.24,2.049,0.369,1.987,1.099c-0.127,0.81-1.126,1.435-2.331,1.581c-0.698,0.049-1.281,0.121-1.792,0.184
			c-0.015,0.183-0.038,0.293-0.048,0.512c-0.077,0.877-0.163,1.973-0.249,3.068c-0.062,0.984-0.147,2.079-0.208,3.063
			c-0.043,0.837-0.13,1.608-0.171,2.156c-0.167,1.901-0.251,3.54-0.122,4.572c0.166,1.317,0.808,1.779,1.598,1.681
			c0.215-0.027,0.462-0.094,0.74-0.201c0.953-0.263,1.959,0.229,1.926,0.848c-0.107,0.917-0.942,1.813-2.209,2.152
			c-0.246,0.066-0.675,0.12-0.926,0.152c-2.397,0.301-4.022-0.172-4.658-0.85c-0.639-0.713-1.011-1.315-1.104-2.027
			c-0.089-0.676-0.048-1.478,0.001-2.497c0.24-4.037,0.49-8.073,0.75-12.11c-0.749-0.049-1.396-0.471-1.362-1.055
			c0.018-0.727,0.639-1.386,1.589-1.507c0.069-0.914,0.048-1.67,0.03-2.392c-0.036-1.153,0.94-2.29,2.478-2.844
			c1.257-0.41,2.701,0.102,2.556,1.059c-0.224,1.22-0.338,2.102-0.407,3.666C33.287,21.919,33.323,21.915,33.36,21.91z"/>
		<path fill="#16377A" d="M46.58,38.503c1.293-0.143,2.332-0.616,3.157-1.065c0.858-0.488,1.995-0.066,1.86,0.741
			c-0.17,0.812-0.84,1.676-2.093,2.171c-0.876,0.275-1.968,0.573-3.474,0.741c-6.248,0.522-8.187-2.588-8.797-7.037
			c-0.461-3.812,1.117-7.253,2.189-8.858c2.158-3.36,5.644-4.762,8.284-5.043c3.924-0.418,6.095,1.281,6.34,3.744
			c0.101,0.999-0.27,2.443-0.946,3.738c-0.741,1.374-2.229,2.574-3.433,3.315c-2.161,1.385-4.566,1.792-7.301,2.213
			c-0.02,0.146-0.003,0.614,0.075,1.291C42.638,36.168,43.46,38.886,46.58,38.503z M42.397,32.148
			c1.957-0.512,3.914-2.028,5.55-3.901c0.747-0.91,1.269-2.229,1.114-3.691c-0.162-1.534-1.005-2.167-1.92-2.068
			c-0.547,0.059-1.766,0.445-3.136,2.402C43.021,26.334,42.347,29.157,42.397,32.148z"/>
		<path fill="#16377A" d="M56.056,26.689c0.109-1.489,0.227-3.303,0.093-4.66c-0.007-0.071-0.014-0.143-0.021-0.214
			c-0.117-0.818,0.305-1.798,1.574-2.065c0.363-0.07,0.653-0.135,1.013-0.24c0.037-0.004,0.143-0.05,0.18-0.053
			c1.16-0.255,2.476,0.38,2.445,1.249c-0.033,0.436,0.081-0.332-0.02,0.579c0.163-0.232,0.396-0.505,0.633-0.743
			c1.363-1.242,3.248-2.096,5.378-2.279c2.313-0.2,5.498,0.336,5.736,3.343c0.052,0.643,0.004,1.439-0.155,3.107
			c-0.086,0.763-0.156,1.705-0.235,2.54c-0.075,0.87-0.194,1.671-0.272,2.505c-0.166,1.561-0.434,4.5-0.395,6.296
			c0.016,1.079-1.176,1.969-2.577,2.089c-0.108,0.009-0.216,0.018-0.324,0.027c-1.182,0.137-2.332-0.59-2.159-1.505
			c0.26-1.176,0.505-2.926,0.751-6.405c0.077-0.799,0.155-1.598,0.232-2.396c0.175-1.78,0.276-3.193,0.187-4.23
			c-0.146-1.716-0.755-2.385-2.366-2.244c-1.391,0.122-2.974,1.381-3.913,2.765c-1,1.534-1.187,4.219-1.331,6.179
			c-0.086,1.414-0.171,2.828-0.255,4.241c-0.075,1.124-0.072,1.917-0.043,2.599c0.027,1.042-1.198,1.88-2.562,2.015
			c-0.096,0.01-0.191,0.019-0.287,0.028c-1.215,0.156-2.344-0.595-2.247-1.435c0.23-1.321,0.35-2.668,0.442-4.3
			C55.722,31.217,55.887,28.953,56.056,26.689z"/>
		<path fill="#16377A" d="M89.651,16.978c1.155,0.18,1.584,1.198,1.334,1.932c-0.186,0.586-0.832,0.841-1.638,0.891
			c-0.476,0.03-0.883-0.017-1.186-0.142c0.012-0.001,0.024-0.002,0.037-0.002c-0.448-0.115-0.933-0.192-1.481-0.157
			c-4.479,0.292-6.766,5.287-6.406,10.152c0.128,1.754,0.574,3.879,2.268,4.767c0.98,0.542,1.895,0.694,2.759,0.636
			c0.793-0.054,1.468-0.242,2.137-0.538c1.028-0.354,1.83,0.314,1.623,1.047c-0.271,0.844-1.312,1.521-2.485,1.779
			c-0.535,0.107-1.215,0.189-1.861,0.233c-5.671,0.39-9.36-2.404-9.749-7.272c-0.451-5.571,3.185-12.836,12.098-13.417
			C88.201,16.816,89.019,16.874,89.651,16.978z"/>
		<path fill="#16377A" d="M95.99,27.57c-0.455,3.619-0.622,5.75-0.662,6.973c-0.013,1.043-1.269,1.833-2.635,1.915
			c-0.096,0.005-0.191,0.011-0.287,0.017c-1.149,0.104-2.11-0.842-2.059-1.744c-0.002-0.036,0.029-0.11,0.025-0.181
			c0.133-0.764,0.325-1.781,0.488-3.265c0.133-1.183,0.267-2.366,0.402-3.548c0.586-4.78,0.781-7.127,0.667-8.415
			c-0.088-0.857,0.254-1.921,1.646-2.073c0.51-0.101,0.873-0.194,1.272-0.288c1.236-0.321,2.351,0.519,2.327,1.454
			c-0.029,0.146-0.053,0.398-0.042,0.577c-0.112,0.653-0.249,1.522-0.404,2.717C96.48,23.662,96.234,25.616,95.99,27.57z
			 M98.074,11.683c0.061,1.183-0.949,3.066-3.083,3.185c-1.251,0.069-2.574-0.428-2.651-1.753c-0.066-1.11,0.863-3,3.159-3.126
			C96.794,9.917,98.011,10.464,98.074,11.683z"/>
		<path fill="#16377A" d="M115.806,17.314c1.971,1.802,2.106,3.881,2.139,4.885c0.163,5.603-3.229,13.756-11.444,14.114
			c-2.086,0.092-4.163-0.381-5.631-1.564c-0.906-0.781-2.36-2.286-2.529-5.438c-0.319-5.762,3.221-13.308,11.517-13.646
			C112.47,15.562,114.553,16.1,115.806,17.314z M111.678,18.97c-0.454-0.377-1.209-0.887-2.273-0.844
			c-5.258,0.217-6.141,8.57-6.004,11.361c0.161,3.369,1.66,4.483,3.318,4.41c5.686-0.244,6.133-9.94,6.071-11.666
			C112.757,21.336,112.664,19.795,111.678,18.97z M108.697,14.312c1.032-0.042,2.417-0.456,3.608-1.182
			c1.723-1.355,2.011-1.652,2.173-2.305c0.226-0.976-0.651-1.665-1.874-1.62c-1.815,0.067-2.303,0.842-2.522,1.855
			c-0.156,0.761-0.716,1.537-1.611,2.22C107.935,13.733,107.887,14.345,108.697,14.312z"/>
		<path fill="#16377A" d="M120.589,22.587c0.213-1.478,0.456-3.28,0.418-4.642c-0.002-0.072-0.004-0.144-0.006-0.215
			c-0.061-0.825,0.429-1.772,1.712-1.95c0.366-0.045,0.66-0.089,1.026-0.169c0.036-0.001,0.146-0.039,0.182-0.04
			c1.174-0.173,2.442,0.552,2.351,1.416c-0.064,0.433,0.103-0.325-0.061,0.576c0.178-0.22,0.43-0.476,0.683-0.697
			c1.444-1.144,3.383-1.864,5.518-1.897c2.32-0.038,5.458,0.72,5.485,3.735c0.007,0.646-0.096,1.436-0.372,3.089
			c-0.139,0.755-0.274,1.69-0.412,2.517c-0.137,0.862-0.31,1.654-0.445,2.48c-0.274,1.546-0.747,4.458-0.833,6.253
			c-0.06,1.078-1.312,1.882-2.715,1.904c-0.108,0.001-0.216,0.003-0.324,0.005c-1.188,0.054-2.283-0.751-2.047-1.653
			c0.34-1.154,0.707-2.883,1.195-6.336c0.133-0.792,0.266-1.583,0.399-2.375c0.299-1.764,0.498-3.166,0.482-4.206
			c-0.026-1.722-0.586-2.432-2.202-2.404c-1.395,0.024-3.061,1.17-4.093,2.485c-1.103,1.46-1.476,4.126-1.756,6.071
			c-0.184,1.404-0.368,2.809-0.55,4.213c-0.154,1.116-0.205,1.907-0.225,2.589c-0.046,1.042-1.325,1.792-2.693,1.831
			c-0.096,0.003-0.192,0.005-0.288,0.008c-1.223,0.07-2.294-0.758-2.14-1.588c0.321-1.302,0.534-2.637,0.739-4.259
			C119.94,27.081,120.263,24.834,120.589,22.587z"/>
		<path fill="#16377A" d="M164.573,15.666c1.332-0.37,2.487,0.661,2.282,1.625c-0.281,1.178-0.726,3-1.41,6.288
			c-0.242,1.167-0.483,2.335-0.725,3.503c-0.564,2.932-0.898,5.402-0.917,6.442c-0.017,0.896-1.219,1.52-2.442,1.538
			c-1.261,0.016-2.33-0.752-2.247-1.647c0.045-0.61,0.163-1.434,0.319-2.185c-1.513,1.989-3.444,4.154-6.249,4.134
			c-2.985-0.021-5.937-1.958-5.94-6.049c0.003-1.647,0.966-8.191,6.357-12.32c0.885-0.639,3.03-1.989,6.455-1.942
			c1.729,0.024,2.863,0.403,3.924,0.817C164.179,15.802,164.376,15.734,164.573,15.666z M161.739,17.95
			c-0.656-0.226-1.459-0.489-2.34-0.5c-5.591-0.069-7.098,7.614-7.11,10.553c-0.014,2.44,0.664,4.201,2.47,4.216
			c1.048,0.009,2.389-0.551,3.641-2.33c0.994-1.316,1.641-3.388,2.313-6.966C161.053,21.264,161.396,19.607,161.739,17.95z"/>
		<path fill="#16377A" d="M171.98,35.469c-4.029-0.143-4.373-2.583-4.223-4.413c0.051-0.68,0.178-1.502,0.302-2.11
			c0-0.036,0.037-0.071,0.038-0.106c0.081-0.393,0.125-0.751,0.129-0.894c0.042-0.215,0.082-0.393,0.122-0.536
			c0.039-0.143,0.079-0.321,0.082-0.429c0.041-0.215,0.12-0.428,0.162-0.714c0.166-0.785,0.454-2.323,1.374-6.93
			c0.753-3.715,1.187-6.251,1.181-7.4c-0.017-0.826,0.565-1.853,1.862-1.925c0.334-0.026,0.67-0.088,1.153-0.183
			c1.271-0.287,2.464,0.613,2.358,1.58c-0.212,0.891-0.468,1.959-0.771,3.458c-0.044,0.25-0.091,0.536-0.173,0.82
			c-0.127,0.535-0.292,1.141-0.421,1.782c-0.305,1.535-0.648,3.212-0.986,4.781c-0.341,1.605-0.643,3.212-0.978,4.783
			c-0.041,0.142-0.045,0.285-0.086,0.427c-0.046,0.358-0.132,0.858-0.212,1.143c-0.002,0.072-0.044,0.214-0.046,0.285
			c-0.25,1.178-0.464,2.393-0.232,3.153c0,0,0.227,0.939,0.658,0.988c0.541,0.016,0.834-0.048,1.344-0.212
			c0.037,0.001,0.255-0.064,0.365-0.096c0.948-0.295,1.792,0.451,1.479,1.195c-0.351,0.814-1.414,1.355-2.643,1.498
			C173.277,35.47,172.592,35.486,171.98,35.469z"/>
		<path fill="#16377A" d="M204.518,10.876c0.666,0.041,2.032,0.198,3.6,0.624c1.201,0.366,1.833,1.452,1.403,2.323
			c-0.341,0.659-1.137,0.967-2.021,0.91c-0.479-0.031-0.948-0.206-1.343-0.411c-0.642-0.399-1.549-0.672-2.877-0.752
			c-7.356-0.436-10.521,6.903-10.802,12.776c-0.218,4.482,1.574,7.758,6.328,8.025c1.082,0.062,1.991-0.029,3.357-0.451
			c0.184-0.061,0.442-0.153,0.591-0.216c0.994-0.263,2.197,0.208,1.859,0.978c-0.579,1.15-1.793,2.081-3.569,2.227
			c-0.905,0.053-2.063,0.094-3.428,0.018c-4.026-0.224-7.536-1.359-9.316-4.384c-0.903-1.621-1.466-3.764-1.36-6.202
			C187.21,19.765,191.13,10.084,204.518,10.876z"/>
		<path fill="#16377A" d="M210.727,37.355c-4.021-0.313-4.261-2.766-4.033-4.588c0.079-0.678,0.243-1.494,0.391-2.096
			c0.002-0.036,0.043-0.069,0.045-0.105c0.099-0.389,0.157-0.745,0.167-0.887c0.05-0.214,0.099-0.39,0.144-0.53
			c0.047-0.141,0.094-0.318,0.102-0.425c0.05-0.212,0.138-0.422,0.191-0.707c0.199-0.777,0.552-2.301,1.666-6.865
			c0.91-3.679,1.453-6.195,1.495-7.343c0.019-0.826,0.644-1.827,1.943-1.844c0.338-0.012,0.675-0.06,1.163-0.133
			c1.279-0.233,2.435,0.717,2.289,1.678c-0.251,0.881-0.551,1.938-0.919,3.422c-0.055,0.248-0.113,0.531-0.207,0.812
			c-0.149,0.529-0.341,1.127-0.498,1.763c-0.368,1.521-0.782,3.182-1.188,4.735c-0.408,1.589-0.776,3.182-1.18,4.736
			c-0.046,0.14-0.056,0.284-0.103,0.424c-0.062,0.355-0.171,0.852-0.263,1.132c-0.005,0.072-0.051,0.212-0.056,0.284
			c-0.302,1.166-0.568,2.37-0.368,3.14c0,0,0.187,0.948,0.617,1.016c0.539,0.039,0.833-0.013,1.351-0.155
			c0.037,0.003,0.258-0.053,0.368-0.081c0.962-0.254,1.772,0.527,1.428,1.257c-0.386,0.798-1.471,1.293-2.703,1.384
			C212.023,37.411,211.34,37.398,210.727,37.355z"/>
		<path fill="#16377A" d="M222.71,29.272c-0.946,3.522-1.404,5.609-1.612,6.816c-0.156,1.031-1.508,1.642-2.873,1.535
			c-0.096-0.007-0.191-0.015-0.288-0.022c-1.151-0.054-1.976-1.124-1.799-2.01c0.003-0.035,0.045-0.104,0.05-0.176
			c0.237-0.738,0.565-1.72,0.931-3.167c0.294-1.153,0.589-2.306,0.885-3.459c1.237-4.654,1.751-6.953,1.815-8.244
			c0.031-0.861,0.514-1.868,1.916-1.828c0.52-0.03,0.893-0.072,1.301-0.11c1.269-0.148,2.257,0.836,2.105,1.759
			c-0.05,0.14-0.106,0.388-0.121,0.566c-0.201,0.631-0.457,1.474-0.773,2.636C223.731,25.468,223.22,27.37,222.71,29.272z
			 M226.955,13.821c-0.102,1.181-1.359,2.907-3.493,2.731c-1.248-0.103-2.49-0.776-2.386-2.1c0.088-1.108,1.267-2.853,3.559-2.663
			C225.928,11.896,227.061,12.606,226.955,13.821z"/>
		<path fill="#16377A" d="M233.272,37.052c1.294,0.123,2.406-0.13,3.306-0.402c0.939-0.304,1.967,0.34,1.671,1.104
			c-0.331,0.761-1.162,1.47-2.491,1.7c-0.913,0.092-2.042,0.163-3.549,0.021c-6.221-0.757-7.485-4.196-7.18-8.676
			c0.323-3.826,2.563-6.875,3.94-8.229c2.793-2.852,6.487-3.517,9.127-3.256c3.928,0.387,5.709,2.492,5.45,4.953
			c-0.105,0.999-0.761,2.337-1.688,3.468c-1.004,1.195-2.704,2.068-4.033,2.55c-2.396,0.917-4.832,0.828-7.594,0.685
			c-0.049,0.14-0.129,0.601-0.19,1.279C229.887,33.965,230.141,36.793,233.272,37.052z M230.467,29.98
			c2.019-0.104,4.242-1.191,6.224-2.693c0.917-0.739,1.697-1.924,1.843-3.388c0.152-1.535-0.548-2.326-1.461-2.415
			c-0.548-0.053-1.818,0.077-3.557,1.715C232.257,24.415,231.027,27.042,230.467,29.98z"/>
		<path fill="#16377A" d="M244.947,27.408c0.41-1.436,0.894-3.188,1.039-4.544c0.007-0.071,0.015-0.143,0.022-0.214
			c0.05-0.825,0.661-1.699,1.959-1.702c0.37,0.004,0.667,0,1.04-0.03c0.039,0.004,0.149-0.019,0.19-0.015
			c1.187-0.015,2.347,0.875,2.141,1.719c-0.12,0.42,0.145-0.309-0.138,0.563c0.206-0.194,0.491-0.415,0.771-0.6
			c1.587-0.939,3.609-1.393,5.733-1.139c2.308,0.274,5.321,1.446,4.942,4.438c-0.08,0.641-0.287,1.411-0.782,3.011
			c-0.239,0.73-0.5,1.638-0.747,2.439c-0.251,0.836-0.53,1.597-0.775,2.398c-0.479,1.495-1.339,4.317-1.665,6.085
			c-0.203,1.06-1.555,1.689-2.951,1.521c-0.107-0.013-0.215-0.026-0.322-0.039c-1.186-0.106-2.165-1.051-1.81-1.913
			c0.492-1.098,1.089-2.762,2.036-6.119c0.238-0.767,0.477-1.533,0.715-2.299c0.534-1.708,0.92-3.07,1.043-4.104
			c0.206-1.71-0.257-2.489-1.863-2.678c-1.387-0.163-3.194,0.749-4.395,1.913c-1.291,1.299-2.02,3.89-2.558,5.78
			c-0.372,1.367-0.743,2.734-1.113,4.101c-0.303,1.085-0.46,1.862-0.57,2.536c-0.187,1.026-1.555,1.598-2.916,1.453
			c-0.096-0.01-0.191-0.021-0.287-0.031c-1.222-0.094-2.176-1.059-1.91-1.861c0.493-1.247,0.883-2.542,1.308-4.121
			C243.702,31.774,244.323,29.59,244.947,27.408z"/>
		<path fill="#16377A" d="M272.729,23.474c0.182,0.025,0.37,0.014,0.553,0.039c0.476,0.065,0.914,0.125,1.286,0.141
			c1.11,0.044,1.887,0.878,1.642,1.569c-0.328,0.751-1.454,1.101-2.657,0.936c-0.688-0.13-1.272-0.21-1.782-0.279
			c-0.06,0.173-0.111,0.274-0.176,0.483c-0.298,0.828-0.661,1.866-1.021,2.903c-0.312,0.936-0.672,1.973-0.982,2.909
			c-0.253,0.798-0.534,1.521-0.713,2.041c-0.645,1.796-1.146,3.359-1.283,4.39c-0.174,1.316,0.331,1.926,1.118,2.032
			c0.217,0.029,0.472,0.026,0.769-0.006c0.986-0.012,1.838,0.72,1.647,1.311c-0.338,0.858-1.374,1.513-2.685,1.519
			c-0.255,0.001-0.684-0.056-0.935-0.089c-2.396-0.319-3.847-1.19-4.288-2.008c-0.438-0.852-0.645-1.529-0.554-2.241
			c0.086-0.676,0.329-1.441,0.637-2.415c1.259-3.842,2.527-7.683,3.807-11.521c-0.709-0.237-1.23-0.811-1.047-1.366
			c0.201-0.698,0.97-1.178,1.921-1.053c0.298-0.866,0.47-1.603,0.636-2.306c0.26-1.124,1.492-1.976,3.121-2.12
			c1.319-0.076,2.588,0.786,2.203,1.674c-0.527,1.123-0.864,1.946-1.327,3.441C272.654,23.464,272.691,23.469,272.729,23.474z"/>
		<path fill="#16377A" d="M281.3,42.887c1.288,0.191,2.413-0.001,3.327-0.226c0.956-0.253,1.949,0.444,1.613,1.19
			c-0.371,0.742-1.24,1.407-2.579,1.566c-0.92,0.042-2.052,0.053-3.552-0.168c-6.184-1.086-7.266-4.587-6.724-9.045
			c0.524-3.803,2.927-6.729,4.375-8.009c2.942-2.7,6.674-3.167,9.3-2.767c3.907,0.595,5.579,2.792,5.189,5.236
			c-0.156,0.991-0.884,2.293-1.868,3.374c-1.068,1.14-2.815,1.921-4.169,2.332c-2.446,0.788-4.878,0.569-7.633,0.281
			c-0.057,0.137-0.16,0.593-0.257,1.268C278.077,39.625,278.182,42.462,281.3,42.887z M278.868,35.676
			c2.022,0.003,4.304-0.965,6.366-2.359c0.955-0.69,1.799-1.832,2.021-3.286c0.233-1.524-0.426-2.352-1.335-2.489
			c-0.545-0.082-1.823-0.02-3.646,1.524C280.951,30.213,279.582,32.771,278.868,35.676z"/>
	</g>
</g>
</svg>
