<?xml version="1.0" encoding="utf-8"?>
<!-- Generator: Adobe Illustrator 16.0.0, SVG Export Plug-In . SVG Version: 6.00 Build 0)  -->
<!DOCTYPE svg PUBLIC "-//W3C//DTD SVG 1.0//EN" "http://www.w3.org/TR/2001/REC-SVG-20010904/DTD/svg10.dtd">
<svg version="1.0" id="Capa_1" xmlns="http://www.w3.org/2000/svg" xmlns:xlink="http://www.w3.org/1999/xlink" x="0px" y="0px"
	 width="225.333px" height="102px" viewBox="0 0 225.333 102" enable-background="new 0 0 225.333 102" xml:space="preserve">
<g>
	<g>
		<path fill="#8CC3E7" d="M8.272,61.319c0,0.027,0.007,0.052,0.009,0.079c0.003,0.065,0.009,0.132,0.021,0.195l-0.004,0.002
			c0,0,0.018,0.123,0.096,0.326c0.202,0.51,0.808,1.548,2.598,2.605c1.776-1.175,2.311-2.267,2.47-2.771
			c0.059-0.185,0.069-0.293,0.069-0.293l-0.003-0.003c0.009-0.072,0.013-0.146,0.013-0.223c0-0.016,0.003-0.033,0.003-0.051
			c-0.003-0.174-0.041-0.337-0.093-0.491c-0.071-0.215-0.182-0.407-0.33-0.56c-0.239-0.252-0.558-0.403-0.906-0.393
			c-0.662,0.017-1.253,0.608-1.313,1.341c-0.093-0.728-0.717-1.29-1.378-1.272c-0.392,0.009-0.734,0.223-0.964,0.545
			c-0.121,0.176-0.214,0.384-0.258,0.612C8.283,61.083,8.269,61.199,8.272,61.319z"/>
	</g>
</g>
<g>
	<g>
		<path fill="#8CC3E7" d="M212.435,59.96c0,0.026,0.005,0.051,0.005,0.078c0.006,0.065,0.011,0.131,0.022,0.196l-0.003,0.002
			c0,0,0.017,0.122,0.096,0.326c0.203,0.51,0.809,1.547,2.599,2.604c1.774-1.175,2.311-2.266,2.471-2.771
			c0.058-0.186,0.068-0.295,0.068-0.295l-0.006-0.001c0.011-0.072,0.015-0.146,0.017-0.222c0-0.018,0.003-0.035,0.003-0.054
			c-0.005-0.172-0.043-0.337-0.093-0.489c-0.072-0.217-0.184-0.407-0.331-0.561c-0.239-0.25-0.559-0.402-0.906-0.392
			c-0.659,0.017-1.255,0.609-1.313,1.342c-0.092-0.729-0.714-1.291-1.378-1.274c-0.393,0.011-0.734,0.223-0.965,0.546
			c-0.121,0.176-0.213,0.383-0.259,0.613C212.443,59.722,212.429,59.84,212.435,59.96z"/>
	</g>
</g>
<g>
	<path fill="#8CC3E7" d="M125.379,77.135c-1.626-0.091-4.765-1.917-8.99-2.409c-3.238-0.376-6.119,1.528-8.899,5.214
		c-0.39,0.524-0.979,1.343,0.526,1.494c3.261,0.326,5.338,1.833,8.992,2.079c3.042,0.204,5.729-1.714,8.955-4.891
		C126.721,77.867,126.613,77.2,125.379,77.135z"/>
	<path fill="#8CC3E7" d="M106.045,71.884c0.508,0.23,0.959,0.488,1.541-0.698c1.46-2.994,2.48-5.681,2.143-8.304
		c-0.297-2.254-2.07-4.257-4.505-6.924c-0.61-0.663-1.111-0.435-1.505,0.575c-0.291,0.722-2.146,4.347-2.657,7.989
		C100.668,67.319,102.463,70.234,106.045,71.884z"/>
	<path fill="#8CC3E7" d="M132.703,57.026c-0.239-0.181-0.467-0.306-0.685-0.414c-1.896-0.891-4.643,1.448-7.027,2.984
		c-1.49,0.955-4.376,1.86-6.356,1.684c-1.252-0.102-1.206-1.317,0.055-1.307c1.257,0.014,3.135-0.613,5.763-2.271
		c1.371-0.863,2.937-2.449,4.929-2.995c-0.577-2.311-2.339-4.464-3.296-5.109c-0.56-0.375-1.139-0.194-1.312,0.257
		c-1.532,4.043-4.19,4.956-5.578,5.635c-1.395,0.678-3.698,1.161-5.779,3.739c-1.911,2.385-2.703,6.272-0.267,9.153
		c-1.633,1.317-8.556,6.998-11.29,14.864c-0.443,1.282-0.777,2.616-0.961,4.009c-0.087,0.611,0.285,1.077,0.737,1.224
		c0.251,0.085,0.531,0.085,0.783-0.011c0.455-0.179,0.826-0.556,1.036-1.18c0.092-0.264,0.162-0.573,0.214-0.95
		c0.083-0.687,0.315-1.972,0.886-3.619c1.2-3.462,3.91-8.516,9.924-13.089v-0.001c2.501,1.948,5.114,2.637,7.79,1.539
		c3.019-1.234,4.8-4.118,5.969-7.563c1.413-4.16,2.909-4.884,4.323-5.322C133.343,58.042,133.509,57.64,132.703,57.026z"/>
</g>
<path fill="#8CC3E7" d="M99.638,86.601c-0.089-0.41-0.455-0.822-1.085-1.221c-0.349-0.222-1.005-0.523-1.836-0.904
	c-1.159-0.531-2.601-1.195-3.657-1.848c-0.237-0.165-0.51-0.36-0.807-0.581c-2.276-1.8-4.937-4.188-7.042-7.323
	c-0.92-1.562-1.231-3.454-0.952-5.778c3.623-0.483,6.112-2.462,7.425-5.968c0.142-0.837-0.108-1.688-0.705-2.394
	c-0.667-0.789-1.691-1.278-2.674-1.278c-0.559,0-1.077,0.149-1.51,0.424c-2.063,1.109-2.962,3.224-3.463,4.729
	c-0.235,0.768-0.428,1.522-0.576,2.249c-1.514,0.046-2.955-0.139-3.976-0.269c-0.239-0.03-0.456-0.057-0.67-0.08
	c-2.608-0.138-6.964-1.218-12.007-2.47c-6.712-1.667-15.066-3.738-23.166-4.566c-9.672-0.363-18.242,1.918-23.537,3.784
	c-0.875,0.22-1.79,0.394-2.596,0.549c-0.912,0.173-1.631,0.312-2.029,0.46c-0.692,0.257-1.13,0.579-1.304,0.959
	c-0.102,0.224-0.112,0.457-0.03,0.676c0.067,0.179,0.298,0.594,1,0.594c0.301,0,0.665-0.078,1.081-0.231
	c0.379-0.143,1.022-0.456,1.837-0.854c0.926-0.45,2.078-1.014,3.072-1.433c4.419-1.354,11.306-2.965,19.022-2.965
	c1.131,0,2.261,0.035,3.332,0.101c7.561,0.961,15.581,3.125,22.026,4.864c5.41,1.459,10.083,2.721,13,2.889
	c0.313,0.009,0.73,0.059,1.226,0.116c0.934,0.108,2.114,0.24,3.383,0.236c-0.177,2.505,0.275,4.67,1.361,6.463
	c1.514,2.13,3.339,3.803,5.174,5.248c1.522,1.266,2.824,1.922,3.66,2.458L92.631,83c0.001,0,0.003,0,0.005,0
	c0.265,1,0.494,0.563,0.653,0.656c0.872,0.631,1.792,1.523,2.531,2.141c0.697,0.583,1.247,1.105,1.598,1.326
	c0.506,0.321,0.946,0.516,1.312,0.516c0.085,0,0.167,0.008,0.243-0.01c0.239-0.055,0.431-0.183,0.55-0.375
	C99.649,87.06,99.689,86.838,99.638,86.601z M88.567,61.47c0.611,0,0.938,0.41,0.973,1.223c-0.791,2.081-2.367,3.333-4.806,3.807
	c0.121-0.476,0.26-0.961,0.42-1.475C85.457,62.962,87.403,61.47,88.567,61.47z"/>
<path fill="#8CC3E7" d="M215.726,65.08c-0.173-0.381-0.611-0.706-1.306-0.963c-0.398-0.15-1.117-0.287-2.028-0.462
	c-0.809-0.155-1.725-0.329-2.559-0.537c-5.476-1.927-14.012-4.144-23.607-3.793c-8.067,0.825-16.421,2.896-23.132,4.563
	c-5.046,1.253-9.403,2.333-12.039,2.473c-0.187,0.021-0.403,0.048-0.642,0.078c-0.993,0.127-2.462,0.313-3.976,0.269
	c-0.151-0.738-0.345-1.497-0.58-2.26c-0.496-1.494-1.392-3.607-3.43-4.7c-1.014-0.642-2.333-0.583-3.445,0.155
	c-1.105,0.734-1.668,1.913-1.451,3.161c1.292,3.421,3.783,5.401,7.404,5.882c0.278,2.321-0.035,4.213-0.943,5.756
	c-5.72,8.529-14.459,12.564-18.12,13.953c-4.884,1.61-9.962,1.454-13.665,0.943c-1.149-0.223-2.448-0.594-3.525-0.907
	c-0.874-0.253-1.565-0.454-1.974-0.517c-0.736-0.107-1.282-0.036-1.618,0.215c-0.194,0.145-0.314,0.345-0.345,0.567
	c-0.036,0.233,0.021,0.46,0.166,0.658c0.248,0.335,0.744,0.562,1.475,0.668c0.412,0.064,1.132,0.075,2.042,0.092
	c0.299,0.005,0.625,0.011,0.957,0.019c2.712,0.617,5.22,0.934,7.61,0.934c3.284,0,6.344-0.604,9.403-1.804
	c4.198-1.473,12.899-5.386,19.031-14.021c1.071-1.771,1.523-3.934,1.343-6.436c1.294,0.009,2.483-0.132,3.384-0.236
	c0.495-0.058,0.915-0.107,1.237-0.118c2.904-0.166,7.576-1.427,12.985-2.887c6.445-1.738,14.468-3.903,22.001-4.86
	c8.923-0.568,17.097,1.243,22.341,2.844c1.03,0.434,2.179,0.995,3.102,1.444c0.82,0.399,1.468,0.717,1.852,0.859
	c1.534,0.57,1.965-0.063,2.076-0.358C215.834,65.535,215.825,65.302,215.726,65.08z M144.057,65.1
	c0.148,0.458,0.284,0.927,0.404,1.399c-2.44-0.474-4.015-1.726-4.805-3.807c0.03-0.773,0.328-1.184,0.883-1.222
	C141.699,61.386,143.726,62.887,144.057,65.1z"/>
<g>
	<g>
		<path fill="#16377A" d="M36.863,16.945c0.635-0.083,1.95-0.184,3.504-0.069c1.199,0.125,1.985,1.02,1.735,1.904
			c-0.204,0.673-0.899,1.099-1.742,1.204c-0.456,0.057-0.929-0.02-1.336-0.139c-0.675-0.255-1.579-0.345-2.843-0.178
			c-7.012,0.936-8.624,8.338-7.792,13.825c0.63,4.193,2.903,6.889,7.371,6.271c1.017-0.14,1.846-0.389,3.041-1.024
			c0.161-0.09,0.385-0.222,0.513-0.307c0.878-0.423,2.082-0.2,1.904,0.574c-0.334,1.17-1.295,2.249-2.918,2.705
			c-0.832,0.213-1.898,0.46-3.181,0.639c-3.78,0.525-7.245,0.128-9.471-2.338c-1.145-1.331-2.071-3.208-2.432-5.484
			C22.223,28.402,24.08,18.653,36.863,16.945z"/>
		<path fill="#16377A" d="M57.658,21.9c1.983,1.583,2.227,3.537,2.315,4.48c0.466,5.276-2.276,13.144-9.994,13.998
			c-1.963,0.22-3.952-0.09-5.418-1.106c-0.907-0.676-2.384-1.994-2.757-4.952c-0.697-5.402,2.17-12.772,10.081-13.613
			C54.372,20.446,56.393,20.83,57.658,21.9z M53.819,23.709c-0.456-0.328-1.206-0.762-2.218-0.655
			c-5.005,0.537-5.304,8.473-4.991,11.092c0.372,3.165,1.859,4.116,3.421,3.941c5.351-0.588,5.201-9.747,5.041-11.372
			C54.987,25.874,54.808,24.426,53.819,23.709z"/>
		<path fill="#16377A" d="M62.509,26.596c0.121-1.405,0.253-3.118,0.142-4.401c-0.006-0.067-0.012-0.135-0.017-0.202
			c-0.103-0.774,0.311-1.695,1.527-1.933c0.348-0.063,0.625-0.12,0.97-0.217c0.035-0.003,0.138-0.045,0.173-0.048
			c1.112-0.228,2.359,0.39,2.317,1.209c-0.039,0.411,0.082-0.312-0.028,0.546c0.159-0.216,0.385-0.472,0.615-0.693
			c1.319-1.155,3.133-1.935,5.171-2.073c2.214-0.152,5.246,0.415,5.409,3.258c0.036,0.609-0.025,1.36-0.212,2.932
			c-0.097,0.719-0.183,1.606-0.274,2.393c-0.09,0.82-0.217,1.575-0.308,2.361c-0.188,1.471-0.499,4.241-0.495,5.938
			c-0.005,1.019-1.148,1.837-2.473,1.926c-0.102,0.007-0.204,0.014-0.306,0.021c-1.118,0.109-2.193-0.595-2.015-1.457
			c0.264-1.106,0.524-2.755,0.817-6.037c0.086-0.753,0.173-1.506,0.261-2.26c0.199-1.678,0.319-3.011,0.253-3.991
			c-0.109-1.623-0.678-2.266-2.215-2.158c-1.329,0.094-2.858,1.261-3.772,2.556c-0.973,1.436-1.188,3.97-1.35,5.819
			c-0.1,1.334-0.199,2.668-0.297,4.002c-0.085,1.061-0.092,1.81-0.073,2.455c0.012,0.985-1.154,1.761-2.444,1.874
			c-0.091,0.008-0.181,0.016-0.271,0.023c-1.15,0.134-2.208-0.585-2.109-1.377c0.231-1.246,0.356-2.517,0.46-4.057
			C62.143,30.87,62.324,28.732,62.509,26.596z"/>
		<path fill="#16377A" d="M87.826,18.089c0.176-0.007,0.351-0.049,0.526-0.056c0.457-0.02,0.879-0.037,1.229-0.084
			c1.052-0.144,1.92,0.503,1.804,1.187c-0.184,0.752-1.181,1.264-2.336,1.311c-0.666-0.007-1.226,0.017-1.716,0.039
			c-0.028,0.171-0.058,0.274-0.084,0.479c-0.139,0.82-0.304,1.846-0.467,2.871c-0.133,0.922-0.294,1.947-0.426,2.869
			c-0.104,0.785-0.243,1.504-0.323,2.017c-0.297,1.778-0.499,3.314-0.452,4.296c0.06,1.252,0.631,1.734,1.381,1.7
			c0.205-0.009,0.442-0.054,0.713-0.134c0.917-0.176,1.828,0.364,1.749,0.943c-0.17,0.855-1.023,1.636-2.238,1.861
			c-0.236,0.044-0.644,0.063-0.882,0.074c-2.275,0.107-3.77-0.455-4.32-1.138c-0.551-0.717-0.858-1.31-0.896-1.987
			c-0.036-0.643,0.06-1.395,0.178-2.352c0.513-3.785,1.041-7.568,1.583-11.352c-0.707-0.1-1.292-0.542-1.217-1.09
			c0.068-0.683,0.708-1.26,1.621-1.306c0.134-0.855,0.168-1.569,0.205-2.25c0.051-1.088,1.064-2.09,2.574-2.498
			c1.229-0.294,2.567,0.296,2.356,1.186c-0.307,1.132-0.484,1.954-0.668,3.42C87.756,18.092,87.791,18.09,87.826,18.089z"/>
		<path fill="#16377A" d="M106.326,18.102c1.262-0.386,2.394,0.555,2.224,1.471c-0.237,1.121-0.611,2.852-1.172,5.975
			c-0.198,1.109-0.395,2.218-0.591,3.327c-0.454,2.784-0.699,5.125-0.688,6.108c0.009,0.847-1.107,1.47-2.262,1.522
			c-1.19,0.053-2.225-0.639-2.173-1.487c0.022-0.577,0.11-1.358,0.234-2.072c-1.371,1.925-3.124,4.029-5.773,4.106
			c-2.816,0.082-5.674-1.636-5.832-5.497c-0.057-1.552,0.602-7.771,5.604-11.856c0.821-0.633,2.826-1.981,6.099-2.042
			c1.653-0.03,2.748,0.294,3.771,0.655C105.953,18.242,106.139,18.172,106.326,18.102z M103.689,20.34
			c-0.633-0.194-1.408-0.418-2.249-0.402c-5.34,0.111-6.507,7.424-6.415,10.196c0.073,2.304,0.773,3.941,2.481,3.895
			c0.991-0.026,2.239-0.599,3.371-2.317c0.901-1.272,1.448-3.249,1.981-6.647C103.134,23.49,103.411,21.915,103.689,20.34z
			 M99.644,16.349c0.987-0.022,2.319-0.387,3.474-1.05c1.676-1.247,1.959-1.52,2.127-2.133c0.237-0.917-0.589-1.585-1.761-1.567
			c-1.741,0.028-2.226,0.751-2.455,1.704c-0.163,0.715-0.714,1.438-1.583,2.068C98.925,15.789,98.869,16.366,99.644,16.349z"/>
		<path fill="#16377A" d="M124.042,17.909c1.086,0.259,1.414,1.25,1.119,1.921c-0.223,0.538-0.857,0.728-1.627,0.713
			c-0.455-0.008-0.838-0.083-1.116-0.224c0.011,0,0.023,0,0.035,0.001c-0.417-0.143-0.871-0.251-1.396-0.259
			c-4.285-0.06-6.816,4.484-6.82,9.092c-0.004,1.661,0.266,3.693,1.8,4.651c0.885,0.581,1.735,0.792,2.555,0.8
			c0.752,0.008,1.401-0.119,2.055-0.348c0.994-0.257,1.701,0.434,1.45,1.107c-0.32,0.774-1.349,1.333-2.474,1.489
			c-0.511,0.061-1.157,0.088-1.769,0.083c-5.362-0.047-8.644-2.925-8.682-7.538c-0.052-5.275,3.908-11.889,12.449-11.769
			C122.674,17.646,123.447,17.762,124.042,17.909z"/>
		<path fill="#16377A" d="M131.819,17.876c0.176,0.006,0.353-0.022,0.529-0.016c0.457,0.015,0.88,0.03,1.232,0.009
			c1.059-0.063,1.876,0.647,1.709,1.319c-0.241,0.736-1.274,1.171-2.428,1.131c-0.665-0.057-1.226-0.076-1.716-0.091
			c-0.041,0.168-0.079,0.269-0.121,0.471c-0.201,0.808-0.442,1.817-0.683,2.827c-0.203,0.909-0.441,1.919-0.642,2.829
			c-0.162,0.774-0.355,1.481-0.474,1.986c-0.431,1.75-0.748,3.267-0.775,4.25c-0.035,1.253,0.498,1.777,1.248,1.8
			c0.206,0.006,0.445-0.021,0.722-0.08c0.928-0.106,1.796,0.5,1.674,1.073c-0.234,0.839-1.145,1.554-2.374,1.686
			c-0.238,0.026-0.646,0.014-0.884,0.007c-2.277-0.065-3.725-0.739-4.221-1.461c-0.495-0.756-0.757-1.372-0.743-2.049
			c0.013-0.644,0.165-1.386,0.355-2.332c0.798-3.735,1.61-7.468,2.436-11.2c-0.698-0.153-1.247-0.639-1.13-1.179
			c0.12-0.675,0.801-1.203,1.715-1.18c0.198-0.842,0.287-1.552,0.375-2.228c0.134-1.081,1.22-2.003,2.754-2.296
			c1.25-0.2,2.54,0.489,2.26,1.361c-0.392,1.105-0.63,1.912-0.925,3.36C131.749,17.874,131.784,17.875,131.819,17.876z"/>
		<path fill="#16377A" d="M141.732,35.323c1.229,0.063,2.271-0.218,3.108-0.51c0.875-0.324,1.869,0.245,1.619,0.977
			c-0.284,0.73-1.041,1.431-2.284,1.701c-0.858,0.122-1.92,0.233-3.347,0.161c-5.892-0.456-7.245-3.634-7.161-7.876
			c0.129-3.625,2.123-6.602,3.372-7.939c2.531-2.812,6.032-3.59,8.562-3.444c3.764,0.216,5.538,2.144,5.38,4.475
			c-0.063,0.946-0.638,2.232-1.474,3.333c-0.911,1.164-2.492,2.05-3.732,2.555c-2.237,0.957-4.549,0.97-7.171,0.952
			c-0.04,0.134-0.096,0.573-0.125,1.216C138.406,32.551,138.767,35.207,141.732,35.323z M138.786,28.767
			c1.909-0.184,3.972-1.3,5.794-2.793c0.841-0.734,1.535-1.881,1.616-3.269c0.085-1.455-0.609-2.175-1.484-2.223
			c-0.525-0.029-1.733,0.143-3.318,1.76C140.249,23.44,139.188,25.969,138.786,28.767z"/>
		<path fill="#16377A" d="M152.428,25.785c0.338-1.37,0.736-3.041,0.826-4.325c0.005-0.068,0.01-0.135,0.015-0.203
			c0.02-0.78,0.571-1.625,1.81-1.671c0.353-0.008,0.637-0.021,0.992-0.063c0.035,0.002,0.144-0.023,0.178-0.021
			c1.134-0.051,2.27,0.753,2.1,1.556c-0.102,0.4,0.129-0.296-0.112,0.535c0.191-0.189,0.454-0.406,0.715-0.589
			c1.485-0.935,3.399-1.422,5.433-1.241c2.212,0.195,5.121,1.229,4.839,4.063c-0.06,0.607-0.237,1.339-0.667,2.863
			c-0.209,0.695-0.432,1.558-0.646,2.321c-0.217,0.796-0.46,1.521-0.672,2.284c-0.416,1.424-1.155,4.111-1.416,5.789
			c-0.163,1.006-1.421,1.635-2.743,1.517c-0.102-0.009-0.204-0.019-0.307-0.028c-1.123-0.066-2.074-0.93-1.765-1.753
			c0.435-1.051,0.949-2.64,1.751-5.835c0.203-0.73,0.407-1.461,0.61-2.191c0.458-1.626,0.786-2.924,0.874-3.903
			c0.146-1.62-0.317-2.344-1.854-2.477c-1.327-0.115-3.021,0.8-4.125,1.937c-1.187,1.266-1.792,3.735-2.241,5.537
			c-0.308,1.302-0.613,2.604-0.918,3.907c-0.249,1.035-0.372,1.773-0.454,2.413c-0.142,0.975-1.418,1.559-2.706,1.469
			c-0.091-0.006-0.182-0.013-0.272-0.019c-1.156-0.047-2.088-0.922-1.868-1.689c0.422-1.195,0.745-2.43,1.087-3.936
			C151.398,29.949,151.911,27.867,152.428,25.785z"/>
		<path fill="#16377A" d="M187.644,24.161c1.584,1.985,1.386,3.944,1.261,4.884c-0.721,5.248-5.152,12.305-12.869,11.418
			c-1.961-0.223-3.832-0.969-5.033-2.286c-0.733-0.861-1.878-2.475-1.583-5.442c0.524-5.422,4.958-11.968,12.858-11.025
			C184.762,22.01,186.646,22.834,187.644,24.161z M183.496,25.069c-0.372-0.421-1.007-1.012-2.017-1.132
			c-5.002-0.592-7.059,7.078-7.339,9.701c-0.342,3.167,0.896,4.426,2.456,4.604c5.351,0.619,7.246-8.343,7.452-9.962
			C184.154,27.439,184.301,25.988,183.496,25.069z"/>
		<path fill="#16377A" d="M192.501,33.508c-0.977-0.755-2.838-2.241-2.549-4.391c0.245-1.813,1.755-3.319,3.646-4.388
			c1.955-1.026,4.714-0.861,6.146-0.643c1.046,0.159,1.768,0.339,2.367,0.604c-0.011-0.002-0.022-0.004-0.034-0.005
			c1.113,0.414,1.551,1.479,1.082,2.194c-0.329,0.497-1.064,0.655-1.827,0.537c-0.451-0.07-0.856-0.201-1.143-0.416
			c0.012,0.001,0.023,0.003,0.034,0.005c-0.484-0.314-1.049-0.571-1.641-0.66c-2.224-0.333-3.638,1.11-3.819,2.384
			c-0.227,1.577,0.79,2.339,1.83,3.144c0.521,0.432,1.043,0.864,1.563,1.296c1.003,0.802,2.524,2.067,2.214,4.043
			c-0.225,1.44-1.273,3.229-3.634,4.448c-2.213,1.139-4.719,0.88-6.273,0.664c-0.91-0.127-1.841-0.357-2.465-0.579
			c-1.142-0.462-1.84-1.441-1.539-2.154c0.586-1.051,2.002-1.272,2.986-0.624c-0.011-0.001-0.022-0.003-0.034-0.004
			c0.604,0.39,1.351,0.733,2.538,0.901c2.235,0.318,3.629-0.911,3.829-2.252c0.194-1.308-0.545-1.966-1.327-2.593
			C193.803,34.514,193.152,34.011,192.501,33.508z"/>
	</g>
</g>
</svg>
