<?xml version="1.0" encoding="utf-8"?>
<!-- Generator: Adobe Illustrator 16.0.0, SVG Export Plug-In . SVG Version: 6.00 Build 0)  -->
<!DOCTYPE svg PUBLIC "-//W3C//DTD SVG 1.0//EN" "http://www.w3.org/TR/2001/REC-SVG-20010904/DTD/svg10.dtd">
<svg version="1.0" id="logo" xmlns="http://www.w3.org/2000/svg" xmlns:xlink="http://www.w3.org/1999/xlink" x="0px" y="0px"
	 width="149px" height="101px" viewBox="0 0 149 101" enable-background="new 0 0 149 101" xml:space="preserve">
<g>
	
		<linearGradient id="SVGID_1_" gradientUnits="userSpaceOnUse" x1="78.105" y1="5.3613" x2="134.8706" y2="5.3613" gradientTransform="matrix(1 0 0 1 12.0498 12.0498)">
		<stop  offset="0.0378" style="stop-color:#DCD4C2"/>
		<stop  offset="0.6595" style="stop-color:#C3B594"/>
		<stop  offset="0.95" style="stop-color:#A39161"/>
	</linearGradient>
	<path fill="url(#SVGID_1_)" d="M146.654,15.847c1.107-3.147-1.336-5.481-5.422-6.216c-7.219-1.303-17.401,0.903-24.725,4.063
		c-10.222,4.411-22.009,2.212-26.353,1.938c0,4.561,0.468,7.605,0.468,7.605v1.521l51.623,0.815L146.654,15.847z"/>
	<g>
		<path fill="#B1B3B6" d="M133.963,69.599c-23.074,5.359-91.626,35.265-130.222,0.918c-0.239-0.214-0.695-1.709-0.837-2.068
			c-0.532,4.145,1.955,9.771,6.217,13.073c45.461,35.208,87.758-1.063,126.896-7.469c5.163-0.845,11.198-7.366,8.139-14.05
			C142.677,63.631,138.429,68.559,133.963,69.599z"/>
	</g>
	<g>
		
			<linearGradient id="SVGID_2_" gradientUnits="userSpaceOnUse" x1="-10.4868" y1="62.7656" x2="135.2212" y2="62.7656" gradientTransform="matrix(1 0 0 1 12.0498 12.0498)">
			<stop  offset="0.1892" style="stop-color:#A39161"/>
			<stop  offset="0.3" style="stop-color:#B2A279"/>
			<stop  offset="0.5" style="stop-color:#E6E0D3"/>
			<stop  offset="0.5568" style="stop-color:#E6E0D3"/>
			<stop  offset="0.7946" style="stop-color:#A39161"/>
		</linearGradient>
		<path fill="url(#SVGID_2_)" d="M135.977,66.068c-23.652,5.361-93.922,35.269-133.486,0.917c-0.242-0.209-0.711-1.704-0.855-2.068
			c-0.544,4.146,2.001,9.775,6.371,13.072c46.601,35.214,89.956-1.058,130.074-7.464c5.295-0.842,11.48-7.365,8.341-14.051
			C144.909,60.1,140.55,65.032,135.977,66.068z"/>
	</g>
	<g>
		
			<linearGradient id="SVGID_3_" gradientUnits="userSpaceOnUse" x1="-8.4106" y1="4.064" x2="134.8247" y2="4.064" gradientTransform="matrix(1 0 0 1 12.0498 12.0498)">
			<stop  offset="0.1892" style="stop-color:#A39161"/>
			<stop  offset="0.3" style="stop-color:#B2A279"/>
			<stop  offset="0.5" style="stop-color:#E6E0D3"/>
			<stop  offset="0.5568" style="stop-color:#E6E0D3"/>
			<stop  offset="0.7946" style="stop-color:#A39161"/>
		</linearGradient>
		<path fill="url(#SVGID_3_)" d="M8.316,20.367c22.319-15.268,59.209-8.724,78.742-3.545c19.528,5.18,40.687,8.482,48.354,8.058
			c4.594-0.255,8.175-2.389,9.792-4.124c1.229-4,0.769-2.519,1.67-5.577c0,0-1.714,4.944-10.684,5.568
			c-9.923,0.692-30.592-3.086-50.291-9.318C64.044,4.514,30.849-2.534,8.748,13.388C4.075,16.753,3.41,21.43,3.695,28.486
			C3.986,24.975,5.092,22.572,8.316,20.367z"/>
	</g>
	<path fill="#003E7E" d="M146.439,16.656c-4.184,12.676-2.89,32.283-0.331,38.668c1.888,4.698-0.208,11.194-8.598,11.771
		c-25.812,1.772-92.768,39.521-135.019,1.069c-2.788-2.541,1.486-15.834,1.486-26.741c0-13.905-2.244-17.73,4.339-22.235
		c22.319-15.264,59.209-8.723,78.742-3.542c19.528,5.179,40.687,8.482,48.354,8.057C144.398,23.203,146.439,16.656,146.439,16.656z"
		/>
</g>
<g>
	<g>
		<g>
			<g>
				<g>
					<path fill="#FFFFFF" d="M134.485,56.759c0.495,0,0.92,0.175,1.271,0.526c0.35,0.346,0.526,0.77,0.526,1.266
						c0,0.495-0.177,0.92-0.526,1.268c-0.351,0.355-0.775,0.528-1.271,0.528c-0.497,0-0.922-0.173-1.271-0.528
						c-0.349-0.348-0.522-0.772-0.522-1.268c0-0.496,0.174-0.92,0.525-1.266C133.564,56.934,133.991,56.759,134.485,56.759z
						 M136.562,58.545c0-0.571-0.201-1.06-0.606-1.466c-0.406-0.402-0.895-0.603-1.475-0.603c-0.573,0-1.061,0.2-1.462,0.603
						c-0.407,0.406-0.607,0.896-0.607,1.466c0,0.577,0.197,1.07,0.598,1.474c0.406,0.408,0.897,0.612,1.472,0.612
						c0.58,0,1.068-0.204,1.475-0.612C136.361,59.612,136.562,59.122,136.562,58.545z M135.03,58.101
						c0,0.172-0.081,0.288-0.239,0.347c-0.086,0.035-0.219,0.049-0.391,0.049h-0.369v-0.809h0.35c0.228,0,0.391,0.029,0.493,0.084
						C134.977,57.83,135.03,57.937,135.03,58.101z M133.64,57.406v2.276h0.391v-0.9h0.323c0.216,0,0.37,0.027,0.451,0.071
						c0.151,0.086,0.225,0.262,0.225,0.527v0.178l0.008,0.076c0.003,0.011,0.006,0.02,0.006,0.024
						c0.003,0.008,0.003,0.013,0.003,0.023h0.374l-0.016-0.028c-0.01-0.02-0.014-0.06-0.019-0.12
						c-0.006-0.061-0.006-0.113-0.006-0.167v-0.169c0-0.117-0.042-0.233-0.125-0.355c-0.081-0.12-0.209-0.194-0.389-0.228
						c0.144-0.018,0.248-0.057,0.332-0.106c0.147-0.094,0.222-0.244,0.222-0.447c0-0.288-0.119-0.479-0.354-0.576
						c-0.134-0.055-0.342-0.079-0.625-0.079H133.64z"/>
				</g>
			</g>
		</g>
	</g>
</g>
<path fill="#00275C" d="M46.388,46.79c-0.826,0.407-1.809,0.745-2.984,0.938c-2.937,0.492-5.705,0.581-7.394,0.583
	c-0.492,0-0.892-0.011-1.179-0.016l-0.31,1.118c1.697-0.009,4.355-0.11,7.169-0.58C43.832,48.479,45.344,47.648,46.388,46.79z
	 M94.977,30.376c0.258-0.981,0.487-1.916,0.508-2.061c0.064-0.417,0.154-0.78,0.292-1.103c-0.373,0.074-0.698,0.213-0.974,0.468
	c-0.427,0.407-0.596,0.966-0.716,1.705c-0.026,0.164-0.256,1.09-0.509,2.07c-0.104,0.387-0.208,0.785-0.309,1.166h1.111
	C94.548,31.999,94.772,31.154,94.977,30.376z M110.568,39.445c0.477,0,0.896-0.094,1.22-0.346c0.202-0.156,0.347-0.363,0.44-0.585
	c-0.048,0.001-0.09,0.003-0.137,0.003h-8.021c-0.062,0.229-0.146,0.545-0.25,0.925h0.795
	C107.132,39.442,110.568,39.445,110.568,39.445z M121.533,44.671c0.698,0,1.344,0.215,1.785,0.568
	c0.443,0.357,0.7,0.824,0.704,1.415c0,0.413-0.129,0.904-0.474,1.469c-0.097,0.163-0.209,0.313-0.329,0.458
	c0.764-0.412,1.36-0.935,1.747-1.572c0.331-0.55,0.45-1.022,0.45-1.405c-0.002-0.555-0.237-0.978-0.655-1.317
	c-0.416-0.334-1.031-0.545-1.71-0.541c-0.032,0-0.071,0-0.115,0.002c-1.634,0.059-3.161,0.585-4.482,1.605
	c0.928-0.414,1.923-0.637,2.956-0.679C121.458,44.674,121.498,44.671,121.533,44.671z M34.808,66.604
	c-1.963,0-3.932-0.094-6.162-0.211c-0.811-0.049-1.631-0.063-2.441-0.062c-1.98-0.002-3.885,0.094-5.409,0.128h-0.053
	c-0.771,0.006-1.424-0.31-1.816-0.793c-0.395-0.48-0.552-1.073-0.552-1.631c0-0.317,0.047-0.627,0.147-0.912
	c1.954-5.863,5.572-19.111,7.404-26.408c0.61-2.422,1.024-4.225,1.102-4.78c0.112-0.807,0.204-1.378,0.202-1.816
	c-0.001-0.388-0.055-0.672-0.227-1.041c-0.235-0.494-0.357-0.97-0.357-1.42c0-0.168,0.021-0.336,0.057-0.496
	c-0.448,0.009-0.867,0.172-1.166,0.481c-0.31,0.318-0.464,0.764-0.464,1.243c0,0.426,0.117,0.886,0.346,1.365
	c0.18,0.386,0.238,0.691,0.24,1.095c0.002,0.454-0.09,1.027-0.204,1.831c-0.163,1.175-1.646,7.078-3.405,13.583
	c-1.757,6.521-3.804,13.717-5.104,17.624c-0.094,0.276-0.141,0.573-0.141,0.877c0,0.536,0.15,1.098,0.523,1.552
	c0.371,0.454,0.98,0.752,1.72,0.746h0.055c1.515-0.031,3.425-0.127,5.407-0.127c0.813,0,1.635,0.016,2.45,0.063
	c2.231,0.117,4.197,0.208,6.156,0.21c2.126,0,4.244-0.11,6.666-0.414c3.36-0.428,6.263-1.532,8.371-3.13
	c-1.875,1.007-4.143,1.705-6.663,2.023C39.062,66.49,36.941,66.604,34.808,66.604z M125.142,54.285
	c1.359-0.474,2.48-1.054,3.405-1.706c-0.563,0.281-1.176,0.536-1.844,0.768c-2.556,0.891-5.802,1.384-9.725,1.384
	c-1,0-2.047-0.035-3.133-0.099c-0.063,0.254-0.12,0.603-0.143,0.991c0.599,0.021,1.185,0.035,1.756,0.035
	C119.372,55.656,122.605,55.168,125.142,54.285z M89.2,64.573c-1.036-1.13-1.807-2.64-1.799-4.794c0-1.048,0.174-2.247,0.553-3.649
	c0.214-0.775,1.438-5.377,2.616-9.777c0.87-3.271,1.709-6.424,2.085-7.836h-3.02c-0.247-0.003-0.534-0.041-0.845-0.198
	c-0.305-0.14-0.663-0.534-0.65-1.039c0-0.195,0.045-0.385,0.119-0.568c0.032-0.077,0.181-0.515,0.323-0.998
	c0.146-0.485,0.306-1.048,0.396-1.446c0.03-0.117,0.07-0.263,0.127-0.423c-0.441,0.077-0.785,0.249-1.024,0.491
	c-0.336,0.34-0.441,0.746-0.503,1.012c-0.181,0.801-0.641,2.261-0.724,2.46c-0.072,0.176-0.111,0.349-0.111,0.528
	c-0.01,0.45,0.305,0.794,0.584,0.925c0.283,0.143,0.56,0.18,0.785,0.184h3.184c-0.354,1.329-1.227,4.595-2.131,7.992
	c-1.17,4.401-2.397,9.001-2.61,9.775c-0.271,0.998-0.436,1.893-0.508,2.695c0.134,0.049,0.263,0.111,0.38,0.206
	c0.366,0.261,0.58,0.718,0.572,1.134c-0.024,0.625-0.318,1.14-0.73,1.631c0.304,1.087,0.85,1.952,1.502,2.667
	c1.26,1.382,3.23,1.921,5.282,1.923c2.044-0.002,4.2-0.538,5.944-1.446c0.435-0.226,0.871-0.5,1.283-0.803
	c-1.711,0.83-3.754,1.319-5.707,1.322C92.5,66.538,90.496,65.995,89.2,64.573z M109.714,64.978c-3.87-1.81-6.188-5.185-6.4-9.351
	c-0.009-0.188-0.018-0.377-0.018-0.569c0.009-3.863,1.989-8.341,5.15-11.746c0.431-0.461,0.916-0.937,1.458-1.415
	c-1.152,0.834-2.111,1.716-2.887,2.552c-3.143,3.382-5.108,7.844-5.114,11.661c0,0.186,0.002,0.376,0.013,0.561
	c0.058,1.12,0.271,2.172,0.622,3.161c0.047-0.003,0.085-0.008,0.13-0.008c0.279-0.008,0.62,0.083,0.879,0.289
	c0.362,0.261,0.583,0.714,0.569,1.134c-0.014,0.379-0.129,0.717-0.307,1.035c1.07,1.518,2.568,2.762,4.438,3.634
	c2.175,1.025,4.571,1.517,6.985,1.517c3.54,0,7.123-1.061,10.142-3.077c-2.67,1.412-5.658,2.152-8.622,2.152
	C114.321,66.508,111.91,66.01,109.714,64.978z M80.514,36.242c-2.227,0-4.268-0.917-5.075-2.742
	c-0.209-0.48-0.307-0.984-0.307-1.486c0.014-1.271,0.606-2.5,1.604-3.519c-1.828,1.136-2.988,2.828-3.002,4.572
	c0,0.486,0.097,0.974,0.299,1.437c0.774,1.763,2.766,2.669,4.965,2.669c0.998-0.003,2.055-0.185,3.091-0.581
	c0.815-0.307,1.552-0.716,2.183-1.198c-0.202,0.093-0.406,0.184-0.617,0.265C82.599,36.054,81.532,36.242,80.514,36.242z
	 M54.621,64.573c-1.034-1.13-1.807-2.64-1.797-4.794c0-1.048,0.172-2.247,0.553-3.649c0.575-2.098,2.033-7.17,3.413-12.183
	c1.379-5.007,2.684-10.007,2.92-11.8c0.043-0.344,0.064-0.641,0.064-0.896c-0.016-1.205-0.34-1.471-0.597-2.106
	c-0.174-0.443-0.285-0.895-0.285-1.348c-0.001-0.253,0.038-0.514,0.129-0.761c-0.448,0.084-0.825,0.273-1.089,0.569
	c-0.318,0.35-0.44,0.803-0.439,1.246c0,0.43,0.108,0.869,0.276,1.3c0.245,0.603,0.594,0.923,0.608,2.151
	c0,0.263-0.018,0.562-0.064,0.913c-0.238,1.813-1.544,6.804-2.922,11.814c-1.381,5.016-2.839,10.088-3.413,12.183
	c-0.11,0.406-0.204,0.793-0.277,1.164c0.187,0.094,0.336,0.216,0.438,0.329c0.246,0.264,0.376,0.62,0.376,0.991
	c0,0.314-0.1,0.65-0.299,0.948c-0.226,0.335-0.48,0.659-0.755,0.97c0.155,1.713,0.845,2.955,1.735,3.931
	c1.262,1.385,3.273,1.921,5.368,1.923c2.085-0.002,4.283-0.538,6.033-1.446c0.431-0.226,0.87-0.5,1.282-0.803
	c-1.717,0.83-3.8,1.319-5.794,1.322C57.968,66.534,55.925,65.999,54.621,64.573z M52.562,36.181
	c0.462,0.003,0.922-0.208,1.166-0.625c0.086-0.152,0.171-0.323,0.25-0.504c-0.222-0.03-0.445-0.104-0.665-0.219
	c-0.28-0.152-0.439-0.348-0.603-0.537c-0.157-0.189-0.31-0.392-0.48-0.579c-0.34-0.382-0.728-0.716-1.354-0.883
	c-0.929-0.249-2.303-0.3-3.728-0.302c-0.122,0.001-5.117,0.174-7.944,0.174h-0.225l-0.284,1.096
	c2.848-0.036,6.655-0.167,6.754-0.169c1.429,0.008,2.809,0.053,3.762,0.308c0.658,0.173,1.067,0.533,1.417,0.922
	c0.362,0.387,0.564,0.807,1.048,1.09C51.967,36.104,52.271,36.181,52.562,36.181z M72.08,64.573
	c-1.033-1.125-1.809-2.64-1.802-4.794c0-1.05,0.176-2.247,0.559-3.649c1.149-4.212,2.511-7.807,2.997-11.487
	c0.048-0.345,0.066-0.646,0.066-0.904c-0.019-1.201-0.33-1.469-0.596-2.089c-0.124-0.302-0.231-0.708-0.234-1.174
	c0-0.294,0.054-0.612,0.192-0.927c-0.14,0.055-0.287,0.111-0.433,0.169c-0.872,0.35-1.174,1.182-1.152,1.811
	c0,0.446,0.106,0.839,0.222,1.128c0.246,0.588,0.592,0.908,0.604,2.13c0,0.265-0.019,0.57-0.065,0.926
	c-0.496,3.694-1.854,7.295-3.003,11.498c-0.283,1.026-0.443,1.941-0.514,2.762c0.075,0.037,0.152,0.082,0.223,0.14
	c0.362,0.261,0.582,0.714,0.568,1.134c-0.018,0.558-0.258,1.035-0.606,1.483c0.298,1.156,0.864,2.066,1.545,2.814
	c1.257,1.382,3.229,1.921,5.283,1.923c2.042-0.002,4.199-0.538,5.945-1.446c0.431-0.226,0.87-0.498,1.282-0.801
	c-1.711,0.828-3.753,1.317-5.708,1.32C75.381,66.538,73.374,65.995,72.08,64.573z"/>
<g>
	<path fill="#FFFFFF" d="M132.626,42.833c1.155,2.934,0.444,7.634-6.129,9.931c-3.188,1.116-7.582,1.6-13.105,1.223
		c-0.174,0.479-1.356,4.243,2.37,6.46c2.753,1.631,6.364,0.55,8.54-0.172c0.64-0.217,2.347-1.004,2.874-1.241
		c1.235-0.553,1.828-0.086,1.994,0.246c0.429,0.857-0.56,2.158-1.796,3.082c-5.003,3.752-11.928,4.631-17.396,2.055
		c-3.689-1.732-5.836-4.872-6.05-8.825c-0.198-3.747,1.749-8.4,4.972-11.855c2.525-2.713,6.999-5.965,13.95-6.045
		C126.242,37.649,130.923,38.482,132.626,42.833z M116.617,50.451c3.747,0,7.439-0.749,8.876-3.124
		c1.504-2.485-0.363-4.277-2.578-4.198c-2.27,0.082-4.388,1.02-6.033,2.835c-1.108,1.219-2.259,2.731-2.801,4.494L116.617,50.451z
		 M71.612,25.045c-0.308-0.231-0.782-0.241-1.957,0.07c-0.916,0.244-3.501,0.825-8.798,1.321c-1.443,0.137-1.575,1.293-1.107,2.482
		c0.226,0.576,0.849,1.224,0.571,3.312c-0.502,3.772-5.208,19.882-6.347,24.062c-1.136,4.164-0.313,6.298,1.106,7.871
		c2.222,2.458,7.462,2.115,10.808,0.369c1.914-0.999,4.042-3.04,2.88-3.929c-0.369-0.281-0.759-0.144-1.505,0.012
		c-4.127,0.842-3.629-2.064-3.122-3.844c0.862-3.036,6.252-23.25,7.172-27.301C71.964,26.608,72.429,25.65,71.612,25.045z
		 M104.709,33.243c0.202-1.195,1.706-5.623,2.008-6.569c0.253-0.798-0.021-1.409-0.932-1.479c-0.445-0.032-1,0.147-1.796,0.33
		c-1.469,0.34-3.349,0.924-5.974,1.055c-1.279,0.062-1.695,0.416-1.92,1.833c-0.073,0.456-0.908,3.586-1.245,4.83h-3.656
		c-1.281,0-1.496,0.661-1.612,1.162c-0.197,0.847-0.644,2.277-0.748,2.54c-0.313,0.766,0.419,0.954,0.801,0.954h3.824
		c0,0-4.481,16.833-4.907,18.395c-1.137,4.164-0.317,6.298,1.106,7.871c2.221,2.458,7.287,2.115,10.631,0.369
		c1.916-0.999,4.044-3.04,2.88-3.929c-0.366-0.281-0.756-0.144-1.506,0.012c-4.128,0.842-3.626-2.064-3.122-3.844
		c0.285-0.997,5.056-18.874,5.056-18.874c0.757,0,8.494,0,8.494,0c0.827,0,1.183-0.327,1.292-0.954
		c0.129-0.701,0.574-2.029,0.661-2.344c0.235-0.863-0.098-1.357-0.837-1.357H104.709z M34.368,47.659c0,0,4.271,0.239,8.935-0.541
		c3.36-0.558,5.053-2.305,5.859-3.39c0.753-1.011,0.448-2.053-0.788-1.979c-1.543,0.096-10.149,0.321-12.388,0l2.516-9.664
		c2.592,0.038,8.624-0.171,8.624-0.171c1.447,0.005,2.86,0.045,3.906,0.322c1.56,0.413,2.013,1.76,2.569,2.053
		c0.59,0.311,1.172,0.177,1.394-0.207c0.782-1.36,1.444-4.423,1.598-5.3c0.294-1.679-0.41-2.324-2.747-2.283
		c0,0-13.739,0.289-17.319,0.246c-2.906-0.037-5.642-0.172-7.974-0.317c-1.109-0.063-1.68,0.95-0.997,2.385
		c0.454,0.952,0.29,1.708,0.081,3.206c-0.355,2.517-5.911,23.433-8.533,31.297c-0.343,1.036,0.057,2.557,1.69,2.525
		c2.107-0.045,5.046-0.222,7.885-0.068c4.654,0.249,8.12,0.38,12.735-0.2c4.724-0.597,8.486-2.571,10.289-5.273
		c0.29-0.435,0.23-0.91-0.018-1.179c-0.216-0.233-0.743-0.539-1.676-0.05c-1.041,0.546-6.526,3.613-17.253,0.935
		c-0.631-0.16-1.66-0.752-1.228-2.177L34.368,47.659z M84.671,45.124c-1.089,3.9-2.461,8.4-3.246,11.648
		c-0.435,1.797-1.008,4.686,3.121,3.844c0.746-0.155,1.138-0.293,1.501-0.012c1.165,0.889-0.961,2.93-2.874,3.929
		c-3.346,1.746-8.414,2.089-10.634-0.369c-1.423-1.573-2.245-3.707-1.108-7.871c1.137-4.18,2.511-7.795,3.017-11.567
		c0.276-2.085-0.335-2.735-0.574-3.309c-0.235-0.568-0.443-1.831,0.665-2.291c2.326-0.968,4.655-0.972,5.971-0.956
		C87.094,38.239,85.745,41.275,84.671,45.124z M87.421,28.953c-0.949-2.195-4.275-3.012-7.427-1.824
		c-3.153,1.186-4.938,3.931-3.986,6.126c0.947,2.194,4.276,3.013,7.425,1.826C86.59,33.893,88.372,31.149,87.421,28.953z"/>
</g>
<g>
	<g>
		<path fill="#C7C8CA" d="M113.659,53.319c1.365,0.133,5.342,0.226,8.678-0.231c3.142-0.436,6.64-1.504,8.708-4.072
			c0.739-0.918-1.687,1.818-8.496,2.809c-3.147,0.455-7.317,0.381-9.509,0.083C112.49,53.021,113.103,53.265,113.659,53.319z"/>
	</g>
	<g>
		<path fill="#C7C8CA" d="M114.858,40.185c-2.316,1.285-4.49,2.804-6.219,4.877c-2.563,3.068-4.569,7.432-3.91,11.509
			c0.722,4.469,4.171,7.231,8.473,8.17c4.759,1.038,9.698-0.079,13.536-2.787c0.346-0.243,1.833-1.519,1.771-2.124
			c-0.063-0.6-4.946,5.141-14.519,3.346c-4.009-0.751-7.203-3.455-7.522-7.683c-0.264-3.516,1.612-7.795,3.89-10.313
			C112.081,43.273,116.292,39.388,114.858,40.185z"/>
	</g>
	<g>
		<path fill="#C7C8CA" d="M80.288,27.816c-2.243,0.655-5.507,3.844-2.733,6.19c2.235,1.892,6.501,0.563,8.396-1.499
			c0.805-0.878-2.676,1.718-6.052,0.828c-1.18-0.311-1.58-1.099-1.422-1.767c0.293-1.229,1.567-1.798,2.313-2.139
			C81.945,28.899,81.147,27.567,80.288,27.816z"/>
	</g>
	<path fill="#C7C8CA" d="M50.337,60.822c0.303-0.378-0.225-0.133-0.933,0.281C46.833,62.607,43.05,63.797,34,63.572
		c-3.305-0.081-6.955-0.316-10.816-0.341c-0.954-0.034-1.451,0-1.118-1.096c0.356-1.165,1.297-4.162,1.696-5.391
		c1.065-3.289,2.025-6.608,2.934-9.945c0.927-3.391,2.513-9.658,3.188-13.105c0.946-4.819-1.604-6.576-1.677-6.403
		c-0.106,0.24-0.152,0.448,0.146,1.162c0.617,1.467,0.331,2.728-0.19,5.15c-0.125,0.575-1.402,6.002-2.812,11.335
		c-1.219,4.609-4.531,16.251-5.035,17.485c-0.525,1.279-1.033,2.748,1.079,2.61c2.617-0.17,4.207-0.135,5.494-0.094
		c2.662,0.092,5.191,0.3,7.921,0.308c4.623,0.018,9.644-0.294,13.647-2.841C48.805,62.188,50.039,61.202,50.337,60.822z"/>
	<g>
		<path fill="#C7C8CA" d="M60.33,27.364c-0.459-0.012,0.746,2.148,0.845,2.82c0.216,1.526-0.052,2.417-0.404,4.274
			c-0.481,2.512-4.22,15.717-5.611,20.351c-0.918,3.083-1.909,6.39,0.607,8.976c1.239,1.271,3.491,1.532,5.131,1.374
			c2.083-0.202,4.157-0.799,5.851-2.035c0.251-0.187,0.966-0.762,1.267-1.316c0.184-0.336-0.434,0.496-3.524,1.375
			c-1.942,0.554-7.427,1.252-8.309-1.979c-0.463-1.67,0.031-3.524,0.467-5.112c0.466-1.687,0.937-3.373,1.402-5.058
			c1.19-4.294,3.317-12.282,4.332-16.62C63.511,29.596,60.618,27.379,60.33,27.364z"/>
	</g>
	<path fill="#C7C8CA" d="M107.796,35.717c-1.076,0-3.702,0-4.78,0c-0.361,0.49-0.564,1.498,0.487,1.498
		c2.916,0,5.855-0.003,8.77-0.003C112.886,37.212,111.703,35.717,107.796,35.717z"/>
	<g>
		<path fill="#C7C8CA" d="M95.731,33.243c-0.276,1.247,1.186-0.743,1.667-1.831c0.833-1.882,1.415-3.566,1.566-4.154
			c-0.883,0-1.75-0.082-1.956,0.503C97.008,27.761,96.151,31.34,95.731,33.243z"/>
	</g>
	<path fill="#C7C8CA" d="M81.932,63.178c-1.943,0.556-7.428,1.248-8.313-1.979c-0.458-1.668,0.005-3.534,0.468-5.116
		c0.521-1.785,2.532-9.729,2.532-9.729c1.054-4.388-1.904-6.608-2.124-6.194c-0.162,0.308,0.489,1.366,0.654,1.988
		c0.348,1.343,0.041,2.606-0.25,4.073c-0.639,3.229-2.297,8.582-2.297,8.582c-0.925,3.084-1.912,6.388,0.604,8.974
		c1.238,1.277,3.492,1.535,5.129,1.378c2.084-0.202,4.157-0.801,5.854-2.041c0.249-0.183,0.963-0.757,1.264-1.309
		C85.636,61.461,85.022,62.295,81.932,63.178z"/>
	<path fill="#C7C8CA" d="M38.606,31.356c-1.515-0.062-1.161-1.12-0.772-1.85c0.668-0.083,8.067-0.158,9.843-0.087
		c2.975,0.115,4.79,0.909,6.104,3.387c0.217,0.408,0.235,0.911-0.104,0.497c-2.076-2.506-4.048-2.143-9.544-2.038
		C44.134,31.265,40.122,31.417,38.606,31.356z"/>
	<path fill="#C7C8CA" d="M127.558,43.953c-0.642-1.904-2.749-2.872-5.01-2.773c-5.786,0.251-7.009,5.215-6.189,4.34
		c1.734-1.85,3.947-2.948,6.491-3.084h0.003c2.132-0.046,4.03,1.273,3.854,3.522c-0.037,0.476-0.157,0.869-0.314,1.272
		C125.834,48.679,128.326,46.239,127.558,43.953z"/>
	<path fill="#C7C8CA" d="M98.986,63.182c-1.943,0.554-7.428,1.252-8.313-1.979c-0.456-1.67,0.033-3.524,0.471-5.112
		c0.466-1.687,3.834-14.309,5.143-19.164c0.158-0.582-0.285-1.172-0.893-1.172c-1.361,0-2.485,0-3.849,0
		c0.025-0.096,0.467-1.667,0.489-1.758c-0.563-0.009-0.887,0.009-1.555,0.016c-0.141,0.502-0.789,2.815-0.885,3.114
		c1.366,0,3.482,0.017,4.848,0.017c-1.371,5.086-4.492,16.724-4.752,17.667c-0.855,3.14-1.908,6.354,0.606,8.942
		c1.237,1.273,3.454,1.565,5.093,1.407c2.082-0.2,4.158-0.799,5.854-2.035c0.252-0.187,0.965-0.762,1.266-1.316
		C102.695,61.471,102.079,62.303,98.986,63.182z"/>
	<path fill="#C7C8CA" d="M33.578,45.144c-0.892,1.743,0.36,1.775,1.033,1.829c0.672,0.053,3.527,0.02,5.296-0.124
		c2.765-0.22,6.583-0.582,8.62-3.609c0.107-0.164-0.081-0.287-0.501,0.044c-2.575,2.003-6.821,1.647-9.344,1.804L33.578,45.144z"/>
</g>
</svg>
