<?xml version="1.0" encoding="utf-8"?>
<!-- Generator: Adobe Illustrator 16.0.0, SVG Export Plug-In . SVG Version: 6.00 Build 0)  -->
<!DOCTYPE svg PUBLIC "-//W3C//DTD SVG 1.0//EN" "http://www.w3.org/TR/2001/REC-SVG-20010904/DTD/svg10.dtd">
<svg version="1.0" id="Capa_1" xmlns="http://www.w3.org/2000/svg" xmlns:xlink="http://www.w3.org/1999/xlink" x="0px" y="0px"
	 width="310.957px" height="102.062px" viewBox="0 0 310.957 102.062" enable-background="new 0 0 310.957 102.062"
	 xml:space="preserve">
<g>
	<g>
		<g>
			<path fill="#8CC3E7" d="M30.878,58.288c0,0.03,0.008,0.06,0.009,0.09c0.004,0.078,0.011,0.153,0.026,0.228l-0.004,0.002
				c0,0,0.021,0.141,0.111,0.377c0.232,0.589,0.932,1.787,3,3.008c2.051-1.357,2.67-2.617,2.854-3.2
				c0.068-0.214,0.081-0.34,0.081-0.34l-0.005-0.002c0.012-0.084,0.015-0.17,0.016-0.258c0-0.018,0.004-0.039,0.004-0.059
				c-0.005-0.201-0.047-0.39-0.107-0.567c-0.083-0.249-0.211-0.472-0.381-0.646c-0.276-0.291-0.646-0.466-1.046-0.455
				c-0.764,0.02-1.448,0.704-1.517,1.55c-0.106-0.842-0.827-1.492-1.592-1.472c-0.453,0.011-0.848,0.258-1.114,0.63
				c-0.141,0.203-0.248,0.443-0.298,0.708C30.889,58.013,30.873,58.148,30.878,58.288z"/>
		</g>
	</g>
	<g>
		<g>
			<path fill="#8CC3E7" d="M266.73,56.717c0,0.031,0.008,0.059,0.008,0.09c0.006,0.077,0.012,0.152,0.026,0.227l-0.005,0.001
				c0,0,0.021,0.142,0.113,0.377c0.233,0.589,0.933,1.788,3,3.009c2.049-1.357,2.668-2.618,2.854-3.201
				c0.067-0.214,0.08-0.34,0.08-0.34l-0.007-0.002c0.013-0.083,0.017-0.17,0.018-0.256c0-0.02,0.005-0.04,0.005-0.061
				c-0.006-0.2-0.049-0.39-0.107-0.567c-0.083-0.249-0.212-0.47-0.383-0.646c-0.275-0.29-0.645-0.466-1.047-0.454
				c-0.761,0.02-1.449,0.704-1.516,1.55c-0.107-0.841-0.825-1.491-1.593-1.472c-0.452,0.012-0.847,0.258-1.112,0.631
				c-0.143,0.203-0.249,0.442-0.3,0.707C266.742,56.443,266.725,56.578,266.73,56.717z"/>
		</g>
	</g>
	<path fill="#8CC3E7" d="M143.831,70.492c0.586,0.265,1.107,0.565,1.779-0.807c1.687-3.458,2.864-6.562,2.475-9.592
		c-0.342-2.605-2.39-4.917-5.204-7.998c-0.705-0.768-1.284-0.503-1.739,0.664c-0.335,0.833-2.481,5.021-3.069,9.229
		C137.618,65.218,139.692,68.585,143.831,70.492z M166.163,76.558c-1.878-0.106-5.502-2.214-10.383-2.784
		c-3.742-0.435-7.069,1.765-10.281,6.023c-0.452,0.605-1.13,1.55,0.606,1.726c3.768,0.377,6.167,2.117,10.388,2.402
		c3.515,0.236,6.618-1.979,10.344-5.65C167.713,77.405,167.587,76.633,166.163,76.558z M174.623,53.327
		c-0.276-0.208-0.54-0.353-0.789-0.477c-2.189-1.031-5.363,1.671-8.118,3.447c-1.722,1.102-5.052,2.149-7.341,1.945
		c-1.447-0.119-1.392-1.522,0.064-1.509c1.452,0.017,3.621-0.709,6.656-2.623c1.583-1,3.392-2.831,5.694-3.461
		c-0.667-2.67-2.701-5.158-3.809-5.902c-0.646-0.434-1.316-0.225-1.516,0.297c-1.769,4.671-4.838,5.726-6.441,6.509
		c-1.611,0.784-4.271,1.341-6.675,4.32c-2.209,2.757-3.123,7.247-0.31,10.576c-1.887,1.521-9.884,8.084-13.043,17.172
		c-0.511,1.48-0.898,3.021-1.11,4.63c-0.101,0.707,0.329,1.245,0.852,1.413c0.29,0.099,0.612,0.099,0.903-0.013
		c0.525-0.206,0.954-0.64,1.197-1.36c0.107-0.306,0.188-0.663,0.247-1.099c0.097-0.793,0.365-2.278,1.024-4.18
		c1.386-4,4.518-9.837,11.466-15.122v-0.003c2.888,2.252,5.906,3.048,8.999,1.78c3.485-1.427,5.543-4.758,6.896-8.737
		c1.63-4.805,3.359-5.642,4.992-6.148C175.361,54.501,175.552,54.035,174.623,53.327z"/>
	<path fill="#8CC3E7" d="M136.082,87.493c-0.103-0.473-0.525-0.949-1.253-1.411c-0.404-0.255-1.161-0.603-2.122-1.043
		c-1.338-0.615-3.005-1.38-4.224-2.135c-0.274-0.19-0.589-0.415-0.932-0.67c-2.629-2.079-5.704-4.839-8.135-8.46
		c-1.063-1.804-1.424-3.991-1.101-6.675c4.185-0.558,7.061-2.846,8.578-6.895c0.163-0.968-0.126-1.95-0.815-2.765
		c-0.77-0.911-1.954-1.477-3.088-1.477c-0.646,0-1.244,0.171-1.744,0.49c-2.385,1.28-3.424,3.723-4.001,5.461
		c-0.271,0.888-0.495,1.76-0.666,2.6c-1.752,0.052-3.413-0.16-4.592-0.311c-0.277-0.036-0.527-0.066-0.776-0.094
		c-3.012-0.157-8.044-1.406-13.871-2.852c-7.754-1.925-17.404-4.32-26.762-5.274c-11.173-0.424-21.074,2.214-27.191,4.371
		c-1.011,0.253-2.067,0.455-2.999,0.633c-1.054,0.202-1.885,0.36-2.344,0.533c-0.8,0.296-1.307,0.669-1.507,1.108
		c-0.117,0.255-0.129,0.525-0.034,0.78c0.078,0.206,0.344,0.686,1.155,0.686c0.349,0,0.768-0.09,1.249-0.269
		c0.438-0.164,1.181-0.527,2.123-0.986c1.07-0.522,2.4-1.171,3.549-1.656c5.104-1.563,13.061-3.426,21.975-3.426
		c1.305,0,2.612,0.041,3.849,0.119c8.734,1.108,18,3.608,25.445,5.618c6.25,1.686,11.649,3.143,15.02,3.336
		c0.36,0.012,0.843,0.068,1.416,0.135c1.078,0.125,2.428,0.271,3.908,0.274c-0.205,2.894,0.317,5.395,1.572,7.466
		c1.749,2.46,3.858,4.392,5.978,6.064c1.76,1.462,3.264,2.505,4.228,3.126l0.018,0.013l0.001-0.001
		c0.309,0.198,0.574,0.364,0.758,0.473c1.009,0.729,2.071,1.617,2.924,2.33c0.806,0.673,1.442,1.205,1.847,1.459
		c0.585,0.373,1.093,0.561,1.516,0.561c0.098,0,0.191-0.011,0.281-0.031c0.275-0.063,0.498-0.219,0.635-0.441
		C136.095,88.031,136.141,87.767,136.082,87.493z M118.827,62.491c0.588-4.002,6.052-6.553,6.119-2.531
		c-1.228,3.352-3.983,4.592-6.78,4.958C118.352,64.093,118.575,63.278,118.827,62.491z"/>
	<path fill="#8CC3E7" d="M270.188,62.631c-0.198-0.44-0.707-0.814-1.507-1.112c-0.462-0.173-1.292-0.332-2.345-0.533
		c-0.934-0.178-1.991-0.38-2.956-0.62c-6.324-2.228-16.183-4.791-27.271-4.383c-9.32,0.953-18.971,3.347-26.725,5.271
		c-5.828,1.447-10.861,2.696-13.905,2.856c-0.218,0.024-0.466,0.056-0.741,0.091c-1.147,0.146-2.844,0.365-4.594,0.311
		c-0.176-0.856-0.398-1.73-0.671-2.612c-0.571-1.725-1.607-4.167-3.963-5.43c-1.17-0.742-2.692-0.673-3.979,0.18
		c-1.277,0.848-1.929,2.209-1.677,3.651c1.493,3.954,4.37,6.238,8.554,6.796c0.322,2.681-0.04,4.867-1.089,6.649
		c-6.609,9.854-16.705,14.516-20.934,16.12c-5.645,1.86-11.519,1.676-15.797,1.086c-1.325-0.259-2.818-0.685-4.057-1.045
		c-1.011-0.293-1.809-0.526-2.281-0.598c-0.851-0.124-1.48-0.042-1.869,0.249c-0.225,0.168-0.362,0.397-0.399,0.655
		c-0.042,0.27,0.025,0.532,0.191,0.759c0.287,0.388,0.86,0.648,1.704,0.773c0.476,0.073,1.308,0.087,2.359,0.104
		c0.346,0.006,0.721,0.013,1.104,0.022c3.134,0.713,6.032,1.077,8.792,1.077c3.794,0,7.328-0.695,10.861-2.082
		c4.849-1.701,14.902-6.224,21.983-16.199c1.238-2.046,1.76-4.543,1.552-7.434c1.5,0.009,2.87-0.153,3.91-0.274
		c0.573-0.066,1.057-0.123,1.43-0.135c3.356-0.193,8.752-1.649,15.001-3.335c7.446-2.009,16.712-4.509,25.416-5.615
		c10.308-0.655,19.75,1.436,25.809,3.287c1.191,0.5,2.519,1.147,3.584,1.667c0.947,0.462,1.695,0.827,2.139,0.992
		c1.773,0.659,2.271-0.072,2.398-0.415C270.314,63.157,270.303,62.887,270.188,62.631z M182.309,59.873
		c0.036-0.894,0.379-1.367,1.021-1.409c1.336-0.087,3.682,1.635,4.064,4.19c0.171,0.53,0.327,1.072,0.466,1.619
		C185.042,63.722,183.222,62.278,182.309,59.873z"/>
</g>
<g>
	<g>
		<path fill="#16377A" d="M32.646,32.721c1.147,1.694,2.356,3.583,2.356,3.583c0.007-0.001-0.004-0.244-0.007-0.409
			c-0.004-0.26,0.006-0.516-0.001-0.779c-0.042-1.523-0.041-3.118-0.069-4.641c0.019-2.776,0.032-4.165,0.06-6.941
			c0.022-1.464-0.017-2.475-0.064-3.146c-0.072-1.006,0.72-1.963,1.96-2.178c0.069-0.012,0.103-0.017,0.172-0.029
			c0.999-0.173,1.933,0.519,1.758,1.36c-0.368,1.756-0.491,4.308-0.599,6.752c-0.111,2.501-0.216,5.213-0.229,7.678
			c-0.002,0.429-0.017,0.886-0.021,1.259c-0.019,2.039-0.075,3.302,0.078,4.536c0.004,0.032-0.02,0.074-0.017,0.104
			c0.012,0.153,0.026,0.307,0.038,0.4c0.097,0.82-0.623,1.707-1.692,1.866c-1.036,0.153-2.175-0.199-2.603-0.884
			c-0.468-0.751-1.215-1.967-3.028-4.573c-1.505-2.163-3.093-4.444-4.637-6.573c-1.123-1.547-3.359-4.934-3.359-4.934
			c-0.082,0.023,0.106,4.254,0.258,8.095c0.036,0.909,0.077,1.966,0.114,3.216c0.097,3.248,0.234,5.143,0.39,6.298
			c0.129,0.958-0.719,1.918-1.925,2.096c-0.133,0.027-0.198,0.041-0.331,0.068c-0.994,0.203-1.928-0.437-1.843-1.226
			c0.192-1.765,0.343-5.788,0.258-13.943c-0.034-3.157-0.249-5.271-0.473-6.385c-0.185-0.918,0.394-1.957,1.596-2.195
			c0.59-0.117,0.886-0.175,1.477-0.291c1.367-0.302,2.591,0.315,3.135,1.3c-0.014,0.002-0.021,0.003-0.034,0.006
			c0.418,0.703,0.904,1.392,1.768,2.59C29.355,27.963,30.459,29.546,32.646,32.721z"/>
		<path fill="#16377A" d="M45.602,32.508c-0.095,1.744-0.104,2.524,0.016,3.25c0.206,1.254,0.92,2.254,2.492,2
			c0.636-0.103,2.56-0.697,3.586-3.174c0.583-1.406,0.889-4.613,0.999-7.225c0.085-1.998,0.054-3.325-0.039-4.154
			c-0.104-0.929,0.521-1.913,1.546-2.293c0.13-0.048,0.338-0.084,0.436-0.132c-0.014,0.002-0.02,0.003-0.033,0.005
			c0.098-0.049,0.209-0.087,0.366-0.122c0.857-0.189,1.98,0.303,1.896,1.006c-0.201,1.693-0.426,3.992-0.53,7.106
			c-0.157,4.709-0.139,6.984,0.048,8.24c0.016,0.106,0.024,0.158,0.04,0.264c0.161,0.855-0.639,1.684-1.673,1.841
			c-1.134,0.171-2.158-0.513-2.265-1.411c-0.045-0.385-0.109-1.812-0.109-1.812c-0.016-0.002-0.887,2.261-1.716,3.042
			c-1.305,1.23-3.249,1.707-3.748,1.789c-2.364,0.388-4.656-0.406-5.068-2.812c-0.079-0.461-0.091-0.935-0.098-2.188
			c0.073-3.622,0.113-5.433,0.204-9.056c0.025-0.683,0.006-1.225-0.027-1.625c-0.073-0.866,0.311-1.856,1.304-2.283
			c0.094-0.04,0.304-0.084,0.4-0.134s0.276-0.101,0.399-0.131c0.942-0.233,2.109,0.33,2.048,1.156
			c-0.115,1.542-0.196,2.267-0.289,3.84C45.712,29.502,45.675,30.504,45.602,32.508z"/>
		<path fill="#16377A" d="M68.024,35.495c1.3-0.176,2.332-0.629,3.067-1.07c0.594-0.355,1.401,0.004,1.301,0.613
			c-0.129,0.784-0.702,1.639-1.688,1.998c-0.785,0.286-1.846,0.592-3.165,0.746c-5.507,0.642-7.439-2.287-8.059-6.386
			c-0.54-3.574,0.866-6.816,1.807-8.324c1.957-3.139,5.084-4.496,7.457-4.796c3.473-0.438,5.431,1.085,5.698,3.343
			c0.118,0.996-0.168,2.356-0.759,3.492c-0.69,1.327-2.018,2.449-3.062,3.137c-2.102,1.386-6.23,1.475-7.003,2.232
			c-0.033,0.032-0.019,0.609,0.072,1.272C63.914,33.376,64.792,35.934,68.024,35.495z M65.06,22.663
			c-1.165,1.706-1.633,6.89-1.442,7.042c0.355,0.284,4.184-2.075,5.729-3.922c0.78-0.932,1.283-2.183,1.118-3.51
			c-0.186-1.493-1.199-2.075-2.227-1.944c-0.618,0.078-1.893,0.478-3.143,2.33C65.081,22.66,65.074,22.661,65.06,22.663z"/>
		<path fill="#16377A" d="M78.874,27.369c-1.084-0.483-3.117-1.392-3.37-3.551c-0.214-1.827,0.788-3.652,2.297-5.044
			c1.584-1.461,4.137-1.969,5.514-2.112c0.965-0.101,1.659-0.104,2.331-0.003c-0.013,0.001-0.021,0.003-0.034,0.004
			c1.019,0.098,1.592,0.983,1.321,1.748c-0.296,0.836-1.386,1.095-2.315,0.771c-0.529-0.185-1.173-0.282-1.895-0.206
			c-2.403,0.254-3.525,2.03-3.377,3.36c0.17,1.528,1.401,2.064,2.698,2.597c0.739,0.338,1.108,0.507,1.844,0.848
			c1.082,0.491,2.741,1.297,2.942,3.293c0.145,1.431-0.372,3.446-2.23,5.102c-1.844,1.644-4.191,2.001-5.663,2.169
			c-0.904,0.103-1.833,0.123-2.468,0.052c-1.048-0.117-1.856-1.109-1.664-1.991c0.169-0.774,1.264-1.171,2.144-0.86
			c0.656,0.232,1.542,0.36,2.817,0.217c2.418-0.272,3.572-1.872,3.426-3.235c-0.135-1.264-1.078-1.77-2.084-2.197
			C80.215,27.945,79.769,27.753,78.874,27.369z"/>
		<path fill="#16377A" d="M95.414,15.508c0.483-0.042,0.935-0.082,1.275-0.142c0.814-0.142,1.534,0.419,1.441,1.053
			c-0.104,0.706-0.961,1.244-1.902,1.301c-0.672,0.041-1.952,0.036-2.064,0.146c-0.231,0.227-0.233,2.177-0.385,3.425
			c-0.205,1.681-0.384,3.701-0.522,4.88c-0.205,1.757-0.349,3.29-0.26,4.255c0.119,1.299,0.843,1.77,1.785,1.686
			c0.303-0.028,0.578-0.103,0.832-0.175c0.653-0.188,1.381,0.282,1.292,0.827c-0.132,0.817-0.817,1.607-1.835,1.839
			c-0.23,0.052-0.567,0.085-0.835,0.109c-2.078,0.188-3.53-0.312-4.079-0.928c-0.536-0.601-0.828-1.196-0.9-1.928
			c-0.062-0.632,0.001-1.378,0.08-2.326c0.445-4.531,0.675-6.797,1.15-11.329c0.11-0.01,0.166-0.016,0.275-0.026
			c-0.103,0.01-0.175-0.016-0.244-0.01c-0.756,0.071-1.384-0.413-1.344-0.982c0.048-0.667,0.68-1.275,1.585-1.259
			c-0.014,0.001-0.021,0.002-0.034,0.004c0.088-0.915,0.126-1.624,0.128-2.362c0.003-1.074,0.87-2.086,2.15-2.48
			c0.972-0.299,2.092,0.235,1.943,1.038c-0.2,1.08-0.653,3.341-0.496,3.5C94.501,15.676,95.069,15.538,95.414,15.508z"/>
		<path fill="#16377A" d="M99.847,21.381c0.197-1.828,0.225-2.988,0.116-3.734c-0.114-0.781,0.296-1.688,1.306-1.882
			c0.335-0.064,0.648-0.116,0.921-0.17c-0.013,0.001-0.019,0.001-0.033,0.003c1.019-0.279,2.065,0.351,2.023,1.122
			c-0.01,0.194-0.093,0.611-0.161,1.085c-0.068,0.475-0.263,1.562-0.263,1.562c0.018,0.005,1.458-2.783,2.638-3.645
			c0.614-0.448,1.302-0.806,1.904-1.035c0.995-0.379,1.88,0.473,1.645,1.3c-0.258,0.908-1.43,1.561-2.533,1.912
			c-1.41,0.45-3.191,2.086-3.875,5.409c-0.371,1.801-0.79,6.297-0.817,8.479c-0.013,0.962-0.906,1.812-2.084,1.874
			c-0.067,0.005-0.1,0.009-0.167,0.014c-1.007,0.082-1.981-0.58-1.811-1.426c0.115-0.577,0.239-1.196,0.265-1.702
			C99.282,26.879,99.468,25.047,99.847,21.381z"/>
		<path fill="#16377A" d="M125.32,15.293c1.751,1.566,1.937,3.569,1.975,4.538c0.207,5.212-2.822,12.828-10.308,13.248
			c-1.846,0.104-3.762-0.314-5.073-1.372c-0.818-0.661-2.163-2.039-2.363-5.042c-0.359-5.371,2.812-12.45,10.376-12.829
			C122.276,13.719,124.135,14.233,125.32,15.293z M121.938,16.785c-0.427-0.348-1.25-0.845-2.42-0.786
			c-5.234,0.267-6.034,8.173-5.875,10.811c0.192,3.17,1.777,4.246,3.529,4.148c5.657-0.314,6.014-9.479,5.94-11.081
			C123.075,19.075,122.977,17.631,121.938,16.785z"/>
		<path fill="#16377A" d="M131.978,23.51c-1.042-0.568-2.993-1.637-3.074-3.809c-0.068-1.837,1.074-3.578,2.686-4.845
			c1.692-1.331,4.271-1.633,5.654-1.667c0.968-0.024,1.662,0.029,2.322,0.183c-0.014,0-0.021-0.001-0.035,0
			c1.006,0.178,1.508,1.106,1.177,1.847c-0.361,0.81-1.468,0.983-2.366,0.586c-0.512-0.226-1.146-0.375-1.87-0.356
			c-2.412,0.062-3.669,1.745-3.627,3.082c0.048,1.537,1.232,2.17,2.48,2.805c0.708,0.395,1.063,0.589,1.769,0.987
			c1.038,0.576,2.627,1.511,2.669,3.517c0.031,1.438-0.645,3.409-2.625,4.912c-1.965,1.491-4.329,1.664-5.807,1.714
			c-0.908,0.031-1.835-0.025-2.461-0.146c-1.033-0.199-1.758-1.253-1.497-2.118c0.229-0.758,1.351-1.067,2.202-0.688
			c0.635,0.284,1.504,0.483,2.785,0.442c2.428-0.079,3.702-1.584,3.665-2.955c-0.035-1.271-0.932-1.849-1.899-2.354
			C133.268,24.19,132.837,23.963,131.978,23.51z"/>
		<path fill="#16377A" d="M152.326,14.656c0.442-2.375,0.652-3.816,0.751-4.716c0.105-0.966,0.836-1.873,2.089-1.838
			c0.237,0,0.354,0,0.592,0c0.87,0.002,1.984-0.025,3.029-0.05c0.125,0,0.188,0,0.313,0.001c0.801-0.028,1.741-0.052,2.158-0.047
			c3.901,0.042,7.115,1.282,7.029,5.394c-0.033,1.604-0.838,9.028-11.442,8.983c-0.989-0.004-1.227,0.03-1.875-0.071
			c-0.454,2.487-0.679,3.731-1.124,6.219c-0.035,0.134-0.045,0.273-0.067,0.4c-0.05,0.278-0.065,0.573-0.101,0.805
			c-0.155,0.993-1.076,1.839-2.32,1.844c-0.229,0.001-0.343,0.001-0.571,0.002c-1.042,0.005-1.798-0.875-1.56-1.697
			c0.433-1.493,0.89-3.549,1.254-5.223C151.208,20.659,151.578,18.657,152.326,14.656z M155.35,19.905
			c0.274,0,0.718,0.034,0.957,0.036c1.645,0.006,3.277-0.194,4.354-0.674c2.495-1.111,3.145-4.441,3.163-5.746
			c0.05-3.376-2.934-3.416-4.565-3.428c-0.277-0.002-0.558,0.029-1.009,0.025c-0.313-0.001-0.7-0.075-0.832,0.028
			c-0.493,0.386-0.596,2.581-0.742,3.208c-0.099,0.431-0.176,0.801-0.317,1.335C155.954,16.775,155.751,17.82,155.35,19.905z"/>
		<path fill="#16377A" d="M169.741,19.386c0.385-1.797,0.531-2.947,0.5-3.7c-0.032-0.789,0.471-1.65,1.493-1.738
			c0.34-0.029,0.656-0.049,0.934-0.075c-0.014-0.001-0.021-0.001-0.034-0.001c1.041-0.172,2.018,0.564,1.896,1.326
			c-0.031,0.192-0.156,0.596-0.273,1.061c-0.118,0.465-0.424,1.527-0.424,1.527c0.018,0.007,1.736-2.616,3-3.351
			c0.656-0.382,1.376-0.667,1.998-0.833c1.027-0.274,1.818,0.666,1.499,1.463c-0.35,0.876-1.58,1.403-2.713,1.64
			c-1.447,0.301-3.387,1.744-4.41,4.978c-0.555,1.753-1.437,6.184-1.69,8.35c-0.111,0.955-1.088,1.709-2.265,1.648
			c-0.066-0.001-0.099-0.001-0.167-0.003c-1.008-0.023-1.906-0.782-1.649-1.606c0.175-0.562,0.36-1.164,0.438-1.664
			C168.611,24.798,168.985,22.994,169.741,19.386z"/>
		<path fill="#16377A" d="M195.696,15.968c1.581,1.739,1.559,3.75,1.497,4.718c-0.334,5.206-4.138,12.466-11.626,12.108
			c-1.847-0.088-3.707-0.702-4.901-1.889c-0.746-0.741-1.939-2.25-1.828-5.257c0.198-5.379,4.08-12.095,11.645-11.689
			C192.831,14.085,194.628,14.792,195.696,15.968z M192.178,17.101c-0.39-0.39-1.154-0.97-2.326-1.032
			c-5.233-0.276-6.846,7.504-6.959,10.143c-0.138,3.174,1.326,4.409,3.078,4.493c5.66,0.272,6.964-8.805,7.056-10.407
			C193.074,19.497,193.124,18.05,192.178,17.101z"/>
		<path fill="#16377A" d="M213.46,26.29c-0.059,0.297-0.129,0.565-0.214,0.854c-0.493,1.68-0.991,3.837-1.15,5.305
			c-0.09,0.848-0.899,1.615-1.959,1.541c-1.123-0.078-2.061-0.962-1.87-1.901c0.065-0.323,0.568-2.403,0.568-2.403
			c-0.044-0.022-3.425,4.281-6.176,4.079c-2.851-0.21-5.213-2.24-4.964-6.043c0.061-0.901,0.861-5.716,4.148-9.135
			c2.017-2.098,5.209-3.441,8.348-3.181c0.966,0.08,2.123,0.557,2.25,0.492c0.433-0.224,0.692-2.644,0.706-3.363
			c0.016-0.815,0.68-1.68,1.761-1.724c0.246-0.01,0.497-0.033,0.599-0.048c1.045-0.164,2.231,0.586,1.975,1.39
			c-0.187,0.582-0.401,1.342-0.756,2.515c-0.146,0.489-0.311,1.081-0.509,1.735C215.103,20.355,214.552,22.331,213.46,26.29z
			 M201.837,26.898c-0.167,2.334,0.651,4.136,2.336,4.263c1.077,0.082,2.683-0.566,4.095-2.83c1.095-1.755,1.665-3.756,3.572-10.272
			c0.097,0.008,0.145,0.012,0.241,0.021c-0.805-0.304-1.512-0.564-2.405-0.638C203.932,16.969,201.987,24.797,201.837,26.898z"/>
		<path fill="#16377A" d="M221.197,27.058c-0.545,1.66-0.757,2.412-0.829,3.144c-0.126,1.265,0.303,2.414,1.883,2.577
			c0.64,0.066,2.649-0.007,4.283-2.133c0.926-1.206,2.05-4.223,2.835-6.717c0.602-1.908,0.92-3.196,1.047-4.021
			c0.141-0.924,0.997-1.712,2.085-1.813c0.138-0.013,0.348,0.005,0.455-0.016c-0.014-0.001-0.021-0.002-0.035-0.004
			c0.107-0.021,0.225-0.029,0.386-0.022c0.876,0.04,1.831,0.807,1.567,1.465c-0.634,1.584-1.448,3.745-2.357,6.725
			c-1.374,4.506-1.946,6.708-2.092,7.97c-0.013,0.106-0.018,0.158-0.03,0.265c-0.066,0.868-1.052,1.46-2.09,1.343
			c-1.138-0.128-1.949-1.056-1.817-1.95c0.057-0.383,0.363-1.777,0.363-1.777c-0.015-0.006-1.444,1.953-2.447,2.492
			c-1.576,0.849-3.573,0.804-4.076,0.753c-2.377-0.239-4.376-1.601-4.148-4.031c0.045-0.466,0.151-0.926,0.471-2.139
			c1.009-3.479,1.517-5.216,2.544-8.691c0.202-0.652,0.328-1.18,0.399-1.576c0.154-0.856,0.783-1.712,1.852-1.867
			c0.101-0.014,0.309-0.002,0.416-0.025c0.106-0.023,0.294-0.027,0.421-0.025c0.968,0.02,1.944,0.868,1.672,1.649
			c-0.51,1.458-0.774,2.139-1.272,3.634C222.083,24.184,221.787,25.141,221.197,27.058z"/>
		<path fill="#16377A" d="M250.437,20.114c0.861,0.327,1.004,1.261,0.64,1.882c-0.42,0.712-1.521,0.625-2.328,0.174
			c0.013,0.002,0.021,0.004,0.034,0.006c-0.393-0.19-0.858-0.358-1.44-0.439c-4.415-0.613-7.598,3.574-8.185,8.151
			c-0.207,1.625-0.14,3.649,1.35,4.895c0.799,0.667,1.677,0.999,2.582,1.121c0.804,0.109,1.513,0.039,2.195-0.072
			c0.734-0.119,1.188,0.584,0.903,1.105c-0.389,0.714-1.393,1.158-2.378,1.156c-0.508,0-1.147-0.054-1.715-0.13
			c-5.109-0.686-7.843-3.87-7.294-8.384c0.63-5.178,5.233-11.159,13.37-10.023C249.133,19.69,249.874,19.9,250.437,20.114z"/>
		<path fill="#16377A" d="M258.606,21.062c0.479,0.075,0.929,0.143,1.273,0.166c0.826,0.056,1.396,0.773,1.153,1.367
			c-0.268,0.661-1.231,0.979-2.161,0.81c-0.665-0.12-1.907-0.43-2.044-0.35c-0.278,0.165-0.746,2.059-1.191,3.234
			c-0.601,1.583-1.255,3.504-1.67,4.616c-0.618,1.658-1.122,3.112-1.266,4.071c-0.193,1.29,0.396,1.917,1.333,2.06
			c0.301,0.046,0.585,0.039,0.85,0.028c0.681-0.026,1.277,0.604,1.061,1.112c-0.322,0.762-1.175,1.368-2.221,1.35
			c-0.238-0.004-0.572-0.053-0.84-0.093c-2.066-0.313-3.36-1.145-3.747-1.873c-0.378-0.711-0.517-1.36-0.412-2.088
			c0.09-0.628,0.324-1.337,0.627-2.239c1.513-4.295,2.277-6.442,3.819-10.73c0.11,0.017,0.163,0.025,0.273,0.042
			c-0.103-0.016-0.165-0.059-0.234-0.069c-0.752-0.111-1.25-0.73-1.074-1.272c0.205-0.637,0.966-1.077,1.843-0.845
			c-0.014-0.002-0.021-0.003-0.035-0.005c0.305-0.868,0.512-1.547,0.689-2.263c0.259-1.042,1.343-1.818,2.682-1.896
			c1.017-0.059,1.98,0.727,1.646,1.471c-0.451,1.001-1.434,3.089-1.319,3.282C257.677,21.009,258.263,21.009,258.606,21.062z"/>
		<path fill="#16377A" d="M276.474,25.817c1.366,1.917,1.103,3.91,0.925,4.864c-0.954,5.129-5.608,11.88-13.025,10.626
			c-1.83-0.31-3.615-1.143-4.662-2.465c-0.653-0.825-1.664-2.465-1.194-5.438c0.842-5.317,5.51-11.519,12.999-10.207
			C273.84,23.604,275.55,24.521,276.474,25.817z M272.829,26.518c-0.341-0.435-1.035-1.102-2.194-1.303
			c-5.183-0.904-7.717,6.629-8.145,9.236c-0.517,3.134,0.795,4.534,2.531,4.828c5.604,0.951,7.991-7.905,8.274-9.484
			C273.438,29.004,273.66,27.575,272.829,26.518z"/>
		<path fill="#16377A" d="M281.172,35.31c-0.895-0.785-2.57-2.259-2.168-4.395c0.34-1.808,1.848-3.25,3.707-4.128
			c1.953-0.921,4.547-0.643,5.909-0.368c0.954,0.193,1.623,0.396,2.237,0.693c-0.014-0.003-0.022-0.004-0.036-0.007
			c0.947,0.399,1.234,1.418,0.745,2.066c-0.535,0.708-1.658,0.63-2.45,0.044c-0.452-0.334-1.039-0.621-1.753-0.764
			c-2.378-0.477-3.981,0.883-4.237,2.196c-0.294,1.51,0.726,2.389,1.809,3.285c0.606,0.543,0.906,0.817,1.512,1.361
			c0.889,0.793,2.239,2.058,1.836,4.024c-0.289,1.409-1.386,3.178-3.661,4.203c-2.257,1.016-4.612,0.655-6.071,0.375
			c-0.895-0.172-1.792-0.431-2.379-0.688c-0.967-0.424-1.442-1.614-0.997-2.397c0.393-0.688,1.563-0.74,2.313-0.179
			c0.559,0.418,1.365,0.803,2.629,1.047c2.396,0.463,3.979-0.718,4.248-2.063c0.248-1.246-0.505-2.01-1.341-2.719
			C282.285,36.261,281.915,35.943,281.172,35.31z"/>
	</g>
</g>
</svg>
